0
SECTION
2
HEADER
9
$INSUNITS
70
4
9
$ACADVER
1
AC1014
9
$HANDSEED
5
FFFF
0
ENDSEC
0
SECTION
2
TABLES
0
TABLE
2
VPORT
5
8
100
AcDbSymbolTable
0
ENDTAB
0
TABLE
2
LTYPE
5
5
100
AcDbSymbolTable
0
LTYPE
5
14
100
AcDbSymbolTableRecord
100
AcDbLinetypeTableRecord
2
BYBLOCK
70
0
0
LTYPE
5
15
100
AcDbSymbolTableRecord
100
AcDbLinetypeTableRecord
2
BYLAYER
70
0
0
ENDTAB
0
TABLE
2
LAYER
5
2
100
AcDbSymbolTable
70
2
0
LAYER
5
50
100
AcDbSymbolTableRecord
100
AcDbLayerTableRecord
2
0
70
0
6
CONTINUOUS
0
ENDTAB
0
TABLE
2
STYLE
5
3
100
AcDbSymbolTable
70
1
0
STYLE
5
11
100
AcDbSymbolTableRecord
100
AcDbTextStyleTableRecord
2
STANDARD
70
0
0
ENDTAB
0
TABLE
2
VIEW
5
6
100
AcDbSymbolTable
70
0
0
ENDTAB
0
TABLE
2
UCS
5
7
100
AcDbSymbolTable
70
0
0
ENDTAB
0
TABLE
2
APPID
5
9
100
AcDbSymbolTable
70
2
0
APPID
5
12
100
AcDbSymbolTableRecord
100
AcDbRegAppTableRecord
2
ACAD
70
0
0
ENDTAB
0
TABLE
2
DIMSTYLE
5
A
100
AcDbSymbolTable
70
1
0
ENDTAB
0
TABLE
2
BLOCK_RECORD
5
1
100
AcDbSymbolTable
70
1
0
BLOCK_RECORD
5
1F
100
AcDbSymbolTableRecord
100
AcDbBlockTableRecord
2
*MODEL_SPACE
0
BLOCK_RECORD
5
1B
100
AcDbSymbolTableRecord
100
AcDbBlockTableRecord
2
*PAPER_SPACE
0
ENDTAB
0
ENDSEC
0
SECTION
2
BLOCKS
0
BLOCK
5
20
100
AcDbEntity
100
AcDbBlockBegin
2
*MODEL_SPACE
0
ENDBLK
5
21
100
AcDbEntity
100
AcDbBlockEnd
0
BLOCK
5
1C
100
AcDbEntity
100
AcDbBlockBegin
2
*PAPER_SPACE
0
ENDBLK
5
1D
100
AcDbEntity
100
AcDbBlockEnd
0
ENDSEC
0
SECTION
2
ENTITIES
0
SPLINE
5
100
100
AcDbEntity
8
0
100
AcDbSpline
70
0
71
3
72
15
73
11
74
0
42
0.000000001
43
0.0000000001
44
0.0000000001
40
0
40
0
40
0
40
0
40
0.12978451184284517
40
0.25328245587452392
40
0.374484336013646
40
0.49806973829951134
40
0.62300974222241312
40
0.74421162236153582
40
0.86903778571052614
40
1
40
1
40
1
40
1
10
70.851508898874883
20
95.95343456569563
30
0
10
70.849662898572802
20
95.979950923136386
30
0
10
70.846060315464726
20
96.03169922528798
30
0
10
70.824055652776195
20
96.105757520429478
30
0
10
70.787713957804499
20
96.172158968283284
30
0
10
70.739996570587195
20
96.231285825354831
30
0
10
70.681599542529682
20
96.28007584710781
30
0
10
70.614480140902486
20
96.316272762808126
30
0
10
70.540162864884664
20
96.339015322322894
30
0
10
70.48792011721406
20
96.343025707329275
30
0
10
70.461172123506614
20
96.345079001952882
30
0
0
SPLINE
5
101
100
AcDbEntity
8
0
100
AcDbSpline
70
0
71
3
72
11
73
7
74
0
42
0.000000001
43
0.0000000001
44
0.0000000001
40
0
40
0
40
0
40
0
40
0.25458601258697255
40
0.4978796178598236
40
0.74488501039788912
40
1
40
1
40
1
40
1
10
70.737854778639019
20
95.676751272056947
30
0
10
70.755341860309017
20
95.696155164034863
30
0
10
70.789540367331739
20
95.734102269709638
30
0
10
70.82421167058142
20
95.802626904916352
30
0
10
70.846852794560931
20
95.875942903475362
30
0
10
70.849940242618231
20
95.927327379820127
30
0
10
70.851508898874883
20
95.95343456569563
30
0
0
LINE
5
102
100
AcDbEntity
8
0
100
AcDbLine
10
70.737854778639019
20
95.676751272056947
30
0
11
70.738396231975869
21
95.676210457226389
31
0
0
SPLINE
5
103
100
AcDbEntity
8
0
100
AcDbSpline
70
0
71
3
72
15
73
11
74
0
42
0.000000001
43
0.0000000001
44
0.0000000001
40
0
40
0
40
0
40
0
40
0.16892422718293479
40
0.32531351943947368
40
0.46827828870640859
40
0.60275536728968238
40
0.72415640015059668
40
0.83001455949041236
40
0.92297687547797125
40
1
40
1
40
1
40
1
10
70.461172123506614
20
95.56244395988287
30
0
10
70.478443055453596
20
95.563301352901021
30
0
10
70.511703338773344
20
95.564952516531761
30
0
10
70.558725256675416
20
95.574540628172571
30
0
10
70.60137087236599
20
95.587167325982577
30
0
10
70.638089186371374
20
95.6051794194385
30
0
10
70.669963422625571
20
95.623975896727003
30
0
10
70.69679071884606
20
95.642729278208364
30
0
10
70.719839693804985
20
95.659052214191433
30
0
10
70.732609863596082
20
95.670860110408697
30
0
10
70.738396231975869
20
95.676210457226389
30
0
0
SPLINE
5
104
100
AcDbEntity
8
0
100
AcDbSpline
70
0
71
3
72
15
73
11
74
0
42
0.000000001
43
0.0000000001
44
0.0000000001
40
0
40
0
40
0
40
0
40
0.12780578719035737
40
0.24970931027692925
40
0.37054216534993634
40
0.49494014844901429
40
0.62070508324883977
40
0.74255248993390099
40
0.86783158982118058
40
1
40
1
40
1
40
1
10
70.069527687249348
20
95.95343456569563
30
0
10
70.071266031334801
20
95.927310045574728
30
0
10
70.074662440152736
20
95.876267475092462
30
0
10
70.098309311754562
20
95.8037417283915
30
0
10
70.133013372192153
20
95.736854762087546
30
0
10
70.182005256142261
20
95.678448507176782
30
0
10
70.239968089617889
20
95.628721251235604
30
0
10
70.307177494602826
20
95.591980131946528
30
0
10
70.381620849283976
20
95.568266461322779
30
0
10
70.434186148613463
20
95.564419112125336
30
0
10
70.461172123506628
20
95.56244395988287
30
0
0
SPLINE
5
105
100
AcDbEntity
8
0
100
AcDbSpline
70
0
71
3
72
15
73
11
74
0
42
0.000000001
43
0.0000000001
44
0.0000000001
40
0
40
0
40
0
40
0
40
0.12958505650064578
40
0.25320086319762325
40
0.37371417072871266
40
0.49778317815561346
40
0.62253117186957208
40
0.74354678662051388
40
0.86818111471294956
40
1
40
1
40
1
40
1
10
70.461172123506614
20
96.345079001952882
30
0
10
70.434622483430189
20
96.343324384285097
30
0
10
70.382746194863657
20
96.339895974250283
30
0
10
70.309196095101797
20
96.316601201750331
30
0
10
70.242013762157782
20
96.281539368071449
30
0
10
70.183567991686601
20
96.232798295685825
30
0
10
70.13448944264789
20
96.174573145057977
30
0
10
70.098346656435965
20
96.107380804530749
30
0
10
70.07551808632941
20
96.032874640311334
30
0
10
70.071561435571397
20
95.980404574920911
30
0
10
70.069527687249348
20
95.95343456569563
30
0
0
SPLINE
5
106
100
AcDbEntity
8
0
100
AcDbSpline
70
0
71
3
72
13
73
9
74
0
42
0.000000001
43
0.0000000001
44
0.0000000001
40
0
40
0
40
0
40
0
40
0.15276062174397695
40
0.29567625652371327
40
0.42476147409237791
40
0.54394782922079643
40
0.77090397989875625
40
1
40
1
40
1
40
1
10
69.262209907393057
20
96.898365775943574
30
0
10
69.25509849194556
20
96.92641052083772
30
0
10
69.241333971520774
20
96.980692606697247
30
0
10
69.222899500654563
20
97.059015652941284
30
0
10
69.208620631651598
20
97.131727572024644
30
0
10
69.192503959151097
20
97.220279987551791
30
0
10
69.180077220026121
20
97.328739635597046
30
0
10
69.17893205869639
20
97.415146233320286
30
0
10
69.178356791391849
20
97.458552248941402
30
0
0
LINE
5
107
100
AcDbEntity
8
0
100
AcDbLine
10
69.262209907393057
20
96.898365775943574
30
0
11
67.605169229212905
21
97.192123366375668
31
3.6977854932234928e-31
0
LINE
5
108
100
AcDbEntity
8
0
100
AcDbLine
10
67.605169229212905
20
97.192123366375668
30
3.6977854932234928e-31
11
67.605169229212919
21
98.735163853908915
31
0
0
LINE
5
109
100
AcDbEntity
8
0
100
AcDbLine
10
67.605169229212919
20
98.735163853908915
30
0
11
68.215281147802642
21
98.735163853908915
31
-7.7426433060735277e-32
0
LINE
5
110
100
AcDbEntity
8
0
100
AcDbLine
10
68.215281147802642
20
98.735163853908915
30
-7.7426433060735277e-32
11
68.215281147802656
21
97.707328986518135
31
0
0
LINE
5
111
100
AcDbEntity
8
0
100
AcDbLine
10
68.215281147802656
20
97.707328986518135
30
0
11
68.647446470455463
21
97.629855825401165
31
-9.2444637330587321e-32
0
SPLINE
5
112
100
AcDbEntity
8
0
100
AcDbSpline
70
0
71
3
72
19
73
15
74
0
42
0.000000001
43
0.0000000001
44
0.0000000001
40
0
40
0
40
0
40
0
40
0.1834570336214234
40
0.35443271598515819
40
0.51433608275840714
40
0.66658548509064941
40
0.73715006437513464
40
0.79908931826111151
40
0.85238659025539232
40
0.89794934441243213
40
0.93577806199166846
40
0.96501443457103897
40
0.98665663612100774
40
0.99999999999999989
40
0.99999999999999989
40
0.99999999999999989
40
0.99999999999999989
10
68.789327676912592
20
98.366068905911476
30
-4.4408920985006262e-15
10
68.769013357468282
20
98.324174190944134
30
0
10
68.729766786912165
20
98.243235034138948
30
0
10
68.687720252815623
20
98.119502520242634
30
0
10
68.658192169605229
20
98.000361745544609
30
0
10
68.647877449650068
20
97.903590910513486
30
0
10
68.645049210412253
20
97.831457646971444
30
0
10
68.642549200379634
20
97.784397802622195
30
0
10
68.642495015932269
20
97.743619068385982
30
0
10
68.641133220532936
20
97.708970177683639
30
0
10
68.642299635536062
20
97.680411927803107
30
0
10
68.64249996166086
20
97.657944199776509
30
0
10
68.643992673708127
20
97.641633344407822
30
0
10
68.646492895289953
20
97.633107536621509
30
0
10
68.647446470455463
20
97.629855825401165
30
0
0
SPLINE
5
113
100
AcDbEntity
8
0
100
AcDbSpline
70
0
71
3
72
19
73
15
74
0
42
0.000000001
43
0.0000000001
44
0.0000000001
40
0
40
0
40
0
40
0
40
0.12597022850252576
40
0.24991670114115178
40
0.37255639374758898
40
0.49698631698897622
40
0.55937739032864986
40
0.62144482782897625
40
0.6833498129315263
40
0.74488539651546382
40
0.80725514946527344
40
0.87031864468643805
40
0.93445460836770666
40
1
40
1
40
1
40
1
10
69.671344946547066
20
98.859057061066693
30
0
10
69.626789478152361
20
98.857512744474505
30
0
10
69.538394340576033
20
98.854448921277339
30
0
10
69.408293938803695
20
98.831029313838911
30
0
10
69.282706550724313
20
98.792103209856322
30
0
10
69.182859900987637
20
98.74672324860893
30
0
10
69.105948171301989
20
98.703791019582127
30
0
10
69.051857300088955
20
98.666021544530025
30
0
10
69.000148136751818
20
98.625647270823947
30
-4.4408920985006262e-15
10
68.951166190922152
20
98.581729148131473
30
-4.4408920985006262e-15
10
68.906438984965348
20
98.532965920666072
30
-4.4408920985006262e-15
10
68.863609439385996
20
98.481377798798079
30
-4.4408920985006262e-15
10
68.824170790103807
20
98.425679214896263
30
-4.4408920985006262e-15
10
68.801025897241189
20
98.386082459939558
30
-4.4408920985006262e-15
10
68.789327676912592
20
98.366068905911476
30
-4.4408920985006262e-15
0
SPLINE
5
114
100
AcDbEntity
8
0
100
AcDbSpline
70
0
71
3
72
19
73
15
74
0
42
0.000000001
43
0.0000000001
44
0.0000000001
40
0
40
0
40
0
40
0
40
0.087675473565530765
40
0.1716042959383694
40
0.25144010734708799
40
0.32850223678589491
40
0.40179889073929842
40
0.47242858594545845
40
0.54137732197449384
40
0.60753470903579754
40
0.7301764280419345
40
0.83600258847954678
40
0.92588312704884446
40
1
40
1
40
1
40
1
10
70.511517067733337
20
98.494873503478559
30
-4.4408920985006262e-15
10
70.492157977182472
20
98.514540520485028
30
-4.4408920985006262e-15
10
70.454267071449223
20
98.553034120454939
30
-4.4408920985006262e-15
10
70.394440190303158
20
98.60488873163581
30
-4.4408920985006262e-15
10
70.335500631517903
20
98.652527821556006
30
0
10
70.276370778254829
20
98.694494615071676
30
0
10
70.216399089422168
20
98.729807163544052
30
0
10
70.156670508437003
20
98.760203641032149
30
0
10
70.096840753717004
20
98.785154969956068
30
0
10
70.0193355606079
20
98.809286045443258
30
0
10
69.928985433890631
20
98.830307360124706
30
0
10
69.830851355878309
20
98.850290215433105
30
0
10
69.746322156910338
20
98.860683903818455
30
0
10
69.694682800414412
20
98.859563441848564
30
0
10
69.671344946547066
20
98.859057061066693
30
0
0
SPLINE
5
115
100
AcDbEntity
8
0
100
AcDbSpline
70
0
71
3
72
13
73
9
74
0
42
0.000000001
43
0.0000000001
44
0.0000000001
40
0
40
0
40
0
40
0
40
0.072520736643834835
40
0.16142396836674416
40
0.26771119220489431
40
0.39149875210195634
40
0.67627515158972629
40
1
40
1
40
1
40
1
10
70.698512574861184
20
98.213726412342311
30
0
10
70.695070471731711
20
98.221158029852631
30
0
10
70.687408691496145
20
98.237700073486252
30
0
10
70.673593021511238
20
98.264603023556404
30
0
10
70.655797978880827
20
98.295930278547445
30
0
10
70.625955194444515
20
98.345823528723443
30
0
10
70.579687577507826
20
98.414558999883099
30
-4.4408920985006262e-15
10
70.535189959996487
20
98.466983487736087
30
-4.4408920985006262e-15
10
70.511517067733337
20
98.494873503478559
30
-4.4408920985006262e-15
0
SPLINE
5
116
100
AcDbEntity
8
0
100
AcDbSpline
70
0
71
3
72
11
73
7
74
0
42
0.000000001
43
0.0000000001
44
0.0000000001
40
0
40
0
40
0
40
0
40
0.3290555101560117
40
0.5941679323917356
40
0.81065692810081325
40
1
40
1
40
1
40
1
10
70.778279889090541
20
97.973770639209732
30
0
10
70.772150843668939
20
98.000900678522754
30
0
10
70.76108376795284
20
98.049888763714506
30
0
10
70.740522634792185
20
98.115324085392061
30
0
10
70.71939896279288
20
98.167974406695663
30
0
10
70.705157161621216
20
98.199171326419446
30
0
10
70.698512574861184
20
98.213726412342311
30
0
0
SPLINE
5
117
100
AcDbEntity
8
0
100
AcDbSpline
70
0
71
3
72
11
73
7
74
0
42
0.000000001
43
0.0000000001
44
0.0000000001
40
0
40
0
40
0
40
0
40
0.3277216086318091
40
0.60139454749753296
40
0.82598956172964311
40
1
40
1
40
1
40
1
10
70.8135867330937
20
97.65273989095877
30
0
10
70.812047836208421
20
97.68805887444455
30
0
10
70.809223841172425
20
97.752871946064033
30
0
10
70.802505593752045
20
97.84172147409069
30
0
10
70.792822433436399
20
97.913709646950892
30
0
10
70.782699177056472
20
97.955518893573014
30
0
10
70.778279889090541
20
97.973770639209732
30
0
0
SPLINE
5
118
100
AcDbEntity
8
0
100
AcDbSpline
70
0
71
3
72
15
73
11
74
0
42
0.000000001
43
0.0000000001
44
0.0000000001
40
0
40
0
40
0
40
0
40
0.17354613305478009
40
0.33099028676774761
40
0.47615794820970869
40
0.60915193457010874
40
0.72630137236255876
40
0.82966852335589858
40
0.92142887644992277
40
1
40
1
40
1
40
1
10
70.773703075979014
20
97.31405572070625
30
0
10
70.777688366795644
20
97.333440302598376
30
0
10
70.785289184670546
20
97.370410923645437
30
0
10
70.795245470467208
20
97.423790808717825
30
0
10
70.803169637655358
20
97.472836363963353
30
0
10
70.808974687950823
20
97.517538980813399
30
0
10
70.813178797027945
20
97.557653514981197
30
0
10
70.814836303944531
20
97.593212909845505
30
0
10
70.816271467053994
20
97.624451265812482
30
0
10
70.814434223491659
20
97.643810016141487
30
0
10
70.8135867330937
20
97.65273989095877
30
0
0
SPLINE
5
119
100
AcDbEntity
8
0
100
AcDbSpline
70
0
71
3
72
13
73
9
74
0
42
0.000000001
43
0.0000000001
44
0.0000000001
40
0
40
0
40
0
40
0
40
0.24572794164465406
40
0.47723434869420467
40
0.59351378939271759
40
0.71904256928313504
40
0.85375079865898629
40
1
40
1
40
1
40
1
10
70.444575429420709
20
96.685956441323455
30
0
10
70.481408986001497
20
96.731702545219321
30
0
10
70.552944352583197
20
96.820547191668211
30
0
10
70.630802868327009
20
96.939462919029879
30
0
10
70.683735637555401
20
97.039537861614363
30
0
10
70.717841746088851
20
97.122897243696471
30
0
10
70.748995051680183
20
97.214978230682632
30
0
10
70.765244572413636
20
97.280137699075766
30
0
10
70.773703075979014
20
97.31405572070625
30
0
0
LINE
5
120
100
AcDbEntity
8
0
100
AcDbLine
10
70.444575429420709
20
96.685956441323455
30
0
11
69.857791976768823
21
96.789901434860965
31
9.2444637330587321e-32
0
LINE
5
121
100
AcDbEntity
8
0
100
AcDbLine
10
69.857791976768823
20
96.789901434860965
30
9.2444637330587321e-32
11
69.95118437679433
21
96.925026606227007
31
0
0
SPLINE
5
122
100
AcDbEntity
8
0
100
AcDbSpline
70
0
71
3
72
15
73
11
74
0
42
0.000000001
43
0.0000000001
44
0.0000000001
40
0
40
0
40
0
40
0
40
0.16620182476136747
40
0.32166230431168041
40
0.46876972174053322
40
0.60845986826990794
40
0.73621138342488146
40
0.84319419833174647
40
0.93119006849675745
40
1
40
1
40
1
40
1
10
70.191140149926909
20
97.603048777176554
30
0
10
70.188667085505344
20
97.56264348276332
30
0
10
70.183880786668396
20
97.484444220354447
30
0
10
70.163868765053337
20
97.371885953888324
30
0
10
70.135053375767413
20
97.267935222139883
30
0
10
70.095546391645726
20
97.174827125582013
30
0
10
70.052971221438668
20
97.094234191725675
30
0
10
70.016074321154932
20
97.024898348066912
30
0
10
69.983195842634188
20
96.969665948963254
30
0
10
69.960947467075286
20
96.938641038486892
30
0
10
69.95118437679433
20
96.925026606227007
30
0
0
SPLINE
5
123
100
AcDbEntity
8
0
100
AcDbSpline
70
0
71
3
72
11
73
7
74
0
42
0.000000001
43
0.0000000001
44
0.0000000001
40
0
40
0
40
0
40
0
40
0.32648218533422485
40
0.60020749422792874
40
0.82338534587887524
40
0.99999999999999989
40
0.99999999999999989
40
0.99999999999999989
40
0.99999999999999989
10
70.164986932146789
20
97.81554367164
30
0
10
70.17016861757898
20
97.792723229365919
30
0
10
70.179694670052399
20
97.75076994342939
30
0
10
70.187380908942146
20
97.692332020027379
30
0
10
70.193749584211403
20
97.644334238439853
30
0
10
70.191939696437913
20
97.615698893220582
30
0
10
70.191140149926909
20
97.603048777176554
30
0
0
SPLINE
5
124
100
AcDbEntity
8
0
100
AcDbSpline
70
0
71
3
72
15
73
11
74
0
42
0.000000001
43
0.0000000001
44
0.0000000001
40
0
40
0
40
0
40
0
40
0.13165370798928991
40
0.25584283210943287
40
0.3753866145492028
40
0.49551700940689558
40
0.61744272759393437
40
0.74054645740420266
40
0.8674713997600435
40
0.99999999999999989
40
0.99999999999999989
40
0.99999999999999989
40
0.99999999999999989
10
69.715805416773264
20
98.194765329451712
30
0
10
69.743629906388463
20
98.193176509028746
30
0
10
69.797701275390295
20
98.190088952111978
30
0
10
69.874616331802798
20
98.168495278028701
30
0
10
69.944099028485468
20
98.13473414918613
30
0
10
70.005250918424679
20
98.088222323287241
30
0
10
70.058084108407655
20
98.031636955082391
30
0
10
70.102933521979139
20
97.966852559915907
30
0
10
70.139207509456625
20
97.894290943015889
30
0
10
70.15627094631283
20
97.842168011138398
30
0
10
70.164986932146789
20
97.81554367164
30
0
0
SPLINE
5
125
100
AcDbEntity
8
0
100
AcDbSpline
70
0
71
3
72
15
73
11
74
0
42
0.000000001
43
0.0000000001
44
0.0000000001
40
0
40
0
40
0
40
0
40
0.16888543221916746
40
0.32618425998469636
40
0.4724574081373778
40
0.61105657426477233
40
0.73606847315766755
40
0.84114788588333189
40
0.92898398567084628
40
1
40
1
40
1
40
1
10
69.418312564524427
20
98.086883306108717
30
0
10
69.432954638654408
20
98.097603558355814
30
0
10
69.461234248399137
20
98.118308586019367
30
0
10
69.505082069497462
20
98.144100890875364
30
0
10
69.548692352664403
20
98.16316065294005
30
0
10
69.590664129231953
20
98.176660350902864
30
0
10
69.629308217639391
20
98.185515800647977
30
0
10
69.662930519600337
20
98.19135992811313
30
0
10
69.691084884670659
20
98.195378167202975
30
0
10
69.708168195928891
20
98.19495466102552
30
0
10
69.715805416773264
20
98.194765329451712
30
0
0
SPLINE
5
126
100
AcDbEntity
8
0
100
AcDbSpline
70
0
71
3
72
15
73
11
74
0
42
0.000000001
43
0.0000000001
44
0.0000000001
40
0
40
0
40
0
40
0
40
0.12066377995872912
40
0.24307465329893177
40
0.36988457542801978
40
0.50026292652131787
40
0.63013603912110416
40
0.75501154297188677
40
0.87736433974692263
40
1
40
1
40
1
40
1
10
69.178356791391849
20
97.458552248941402
30
0
10
69.17817167967317
20
97.486481026155559
30
0
10
69.177798775999378
20
97.542742961930486
30
0
10
69.188735731831713
20
97.627763222712375
30
0
10
69.205428998743713
20
97.713972180743582
30
0
10
69.229875458707852
20
97.800207641416847
30
0
10
69.262511813170406
20
97.883249869562661
30
0
10
69.304304703498744
20
97.960088184951928
30
0
10
69.356573342345726
20
98.028322225783526
30
0
10
69.397716988990936
20
98.067347926319371
30
0
10
69.418312564524427
20
98.086883306108717
30
0
0
SPLINE
5
127
100
AcDbEntity
8
0
100
AcDbSpline
70
0
71
3
72
15
73
11
74
0
42
0.000000001
43
0.0000000001
44
0.0000000001
40
0
40
0
40
0
40
0
40
0.12978451184284545
40
0.25328245587452386
40
0.37448433601364672
40
0.49806973829951307
40
0.6230097422224139
40
0.74421162236153682
40
0.86903778571052581
40
1
40
1
40
1
40
1
10
85.055934043724633
20
96.743049955094875
30
4.4408920985006262e-15
10
85.054088043422539
20
96.769566312535616
30
4.4408920985006262e-15
10
85.050485460314476
20
96.821314614687211
30
0
10
85.028480797625946
20
96.895372909828723
30
0
10
84.992139102654249
20
96.961774357682515
30
0
10
84.94442171543696
20
97.020901214754062
30
0
10
84.886024687379447
20
97.069691236507055
30
0
10
84.818905285752237
20
97.10588815220737
30
0
10
84.744588009734429
20
97.128630711722138
30
0
10
84.69234526206381
20
97.132641096728506
30
0
10
84.665597268356379
20
97.134694391352127
30
0
0
SPLINE
5
128
100
AcDbEntity
8
0
100
AcDbSpline
70
0
71
3
72
11
73
7
74
0
42
0.000000001
43
0.0000000001
44
0.0000000001
40
0
40
0
40
0
40
0
40
0.25458601258697372
40
0.49787961785982537
40
0.74488501039788946
40
1
40
1
40
1
40
1
10
84.942279923488769
20
96.466366661456178
30
0
10
84.959767005158767
20
96.485770553434094
30
0
10
84.993965512181489
20
96.523717659108883
30
0
10
85.028636815431184
20
96.592242294315582
30
0
10
85.051277939410681
20
96.665558292874593
30
0
10
85.054365387467982
20
96.716942769219372
30
4.4408920985006262e-15
10
85.055934043724633
20
96.743049955094875
30
4.4408920985006262e-15
0
LINE
5
129
100
AcDbEntity
8
0
100
AcDbLine
10
84.942279923488769
20
96.466366661456178
30
0
11
84.94282137682562
21
96.46582584662562
31
0
0
SPLINE
5
130
100
AcDbEntity
8
0
100
AcDbSpline
70
0
71
3
72
15
73
11
74
0
42
0.000000001
43
0.0000000001
44
0.0000000001
40
0
40
0
40
0
40
0
40
0.16892422718293576
40
0.32531351943947384
40
0.46827828870640792
40
0.60275536728968249
40
0.7241564001505979
40
0.83001455949041092
40
0.92297687547796925
40
1
40
1
40
1
40
1
10
84.665597268356379
20
96.352059349282101
30
0
10
84.682868200303361
20
96.352916742300252
30
0
10
84.716128483623095
20
96.354567905930992
30
0
10
84.763150401525166
20
96.364156017571815
30
0
10
84.805796017215741
20
96.376782715381808
30
0
10
84.842514331221125
20
96.394794808837759
30
0
10
84.874388567475322
20
96.413591286126234
30
0
10
84.901215863695825
20
96.432344667607595
30
0
10
84.924264838654736
20
96.448667603590664
30
0
10
84.937035008445832
20
96.460475499807927
30
0
10
84.94282137682562
20
96.46582584662562
30
0
0
SPLINE
5
131
100
AcDbEntity
8
0
100
AcDbSpline
70
0
71
3
72
15
73
11
74
0
42
0.000000001
43
0.0000000001
44
0.0000000001
40
0
40
0
40
0
40
0
40
0.12780578719035696
40
0.24970931027692914
40
0.37054216534993301
40
0.49494014844901174
40
0.620705083248836
40
0.74255248993389977
40
0.86783158982118036
40
1
40
1
40
1
40
1
10
84.273952832099113
20
96.743049955094875
30
4.4408920985006262e-15
10
84.275691176184537
20
96.716925434973973
30
4.4408920985006262e-15
10
84.2790875850025
20
96.665882864491692
30
0
10
84.302734456604313
20
96.593357117790731
30
0
10
84.337438517041917
20
96.526470151486805
30
0
10
84.386430400992012
20
96.468063896576012
30
0
10
84.44439323446764
20
96.418336640634848
30
0
10
84.511602639452576
20
96.381595521345787
30
0
10
84.586045994133741
20
96.357881850722009
30
0
10
84.638611293463214
20
96.35403450152458
30
0
10
84.665597268356379
20
96.352059349282101
30
0
0
SPLINE
5
132
100
AcDbEntity
8
0
100
AcDbSpline
70
0
71
3
72
15
73
11
74
0
42
0.000000001
43
0.0000000001
44
0.0000000001
40
0
40
0
40
0
40
0
40
0.129585056500647
40
0.25320086319762569
40
0.37371417072871238
40
0.49778317815561524
40
0.62253117186957185
40
0.7435467866205141
40
0.86818111471295001
40
1
40
1
40
1
40
1
10
84.665597268356379
20
97.134694391352127
30
0
10
84.63904762827994
20
97.132939773684342
30
0
10
84.587171339713407
20
97.129511363649527
30
0
10
84.513621239951547
20
97.106216591149561
30
0
10
84.446438907007533
20
97.07115475747068
30
0
10
84.387993136536352
20
97.02241368508507
30
0
10
84.338914587497641
20
96.964188534457207
30
0
10
84.302771801285715
20
96.896996193929994
30
0
10
84.279943231179146
20
96.822490029710565
30
0
10
84.275986580421147
20
96.77001996432017
30
0
10
84.273952832099113
20
96.743049955094875
30
4.4408920985006262e-15
0
SPLINE
5
133
100
AcDbEntity
8
0
100
AcDbSpline
70
0
71
3
72
13
73
9
74
0
42
0.000000001
43
0.0000000001
44
0.0000000001
40
0
40
0
40
0
40
0
40
0.152760621743977
40
0.29567625652371299
40
0.42476147409237797
40
0.54394782922079632
40
0.77090397989875614
40
1
40
1
40
1
40
1
10
83.466635052242822
20
97.687981165342819
30
0
10
83.459523636795311
20
97.716025910236951
30
0
10
83.445759116370525
20
97.770307996096477
30
0
10
83.427324645504314
20
97.848631042340514
30
0
10
83.413045776501349
20
97.921342961423875
30
0
10
83.396929104000861
20
98.009895376951022
30
0
10
83.384502364875871
20
98.118355024996276
30
0
10
83.38335720354614
20
98.204761622719516
30
0
10
83.382781936241614
20
98.248167638340632
30
0
0
LINE
5
134
100
AcDbEntity
8
0
100
AcDbLine
10
83.466635052242822
20
97.687981165342819
30
0
11
81.809594374062669
21
97.981738755774913
31
3.6977854932234928e-31
0
LINE
5
135
100
AcDbEntity
8
0
100
AcDbLine
10
81.809594374062669
20
97.981738755774913
30
3.6977854932234928e-31
11
81.809594374062655
21
99.524779243308146
31
0
0
LINE
5
136
100
AcDbEntity
8
0
100
AcDbLine
10
81.809594374062655
20
99.524779243308146
30
0
11
82.419706292652393
21
99.524779243308146
31
-1.5796674840341759e-32
0
LINE
5
137
100
AcDbEntity
8
0
100
AcDbLine
10
82.419706292652393
20
99.524779243308146
30
-1.5796674840341759e-32
11
82.419706292652393
21
98.496944375917366
31
0
0
LINE
5
138
100
AcDbEntity
8
0
100
AcDbLine
10
82.419706292652393
20
98.496944375917366
30
0
11
82.851871615305228
21
98.41947121480041
31
-6.1629758220391547e-32
0
SPLINE
5
139
100
AcDbEntity
8
0
100
AcDbSpline
70
0
71
3
72
19
73
15
74
0
42
0.000000001
43
0.0000000001
44
0.0000000001
40
0
40
0
40
0
40
0
40
0.18345703362142349
40
0.35443271598515758
40
0.51433608275840614
40
0.66658548509064819
40
0.73715006437513309
40
0.79908931826110996
40
0.85238659025539076
40
0.89794934441243046
40
0.93577806199166669
40
0.96501443457103941
40
0.98665663612100596
40
1
40
1
40
1
40
1
10
82.993752821762357
20
99.155684295310706
30
0
10
82.973438502318032
20
99.113789580343365
30
0
10
82.934191931761916
20
99.032850423538179
30
0
10
82.892145397665388
20
98.909117909641878
30
0
10
82.862617314454994
20
98.789977134943854
30
0
10
82.852302594499818
20
98.693206299912717
30
0
10
82.849474355262004
20
98.621073036370689
30
0
10
82.846974345229384
20
98.574013192021454
30
0
10
82.84692016078202
20
98.533234457785213
30
0
10
82.845558365382686
20
98.49858556708287
30
0
10
82.846724780385813
20
98.470027317202351
30
0
10
82.846925106510625
20
98.447559589175739
30
0
10
82.848417818557891
20
98.431248733807053
30
0
10
82.850918040139717
20
98.422722926020739
30
0
10
82.851871615305214
20
98.419471214800396
30
0
0
SPLINE
5
140
100
AcDbEntity
8
0
100
AcDbSpline
70
0
71
3
72
19
73
15
74
0
42
0.000000001
43
0.0000000001
44
0.0000000001
40
0
40
0
40
0
40
0
40
0.12597022850252579
40
0.24991670114115208
40
0.3725563937475897
40
0.49698631698897627
40
0.55937739032864986
40
0.62144482782897537
40
0.68334981293152808
40
0.74488539651546382
40
0.80725514946527521
40
0.87031864468643816
40
0.93445460836770811
40
1
40
1
40
1
40
1
10
83.875770091396816
20
99.648672450465924
30
0
10
83.831214623002111
20
99.647128133873736
30
0
10
83.74281948542577
20
99.644064310676569
30
0
10
83.61271908365346
20
99.620644703238156
30
0
10
83.487131695574064
20
99.581718599255552
30
0
10
83.387285045837402
20
99.536338638008161
30
0
10
83.310373316151725
20
99.493406408981357
30
0
10
83.256282444938705
20
99.455636933929256
30
0
10
83.204573281601569
20
99.415262660223192
30
0
10
83.155591335771902
20
99.371344537530717
30
0
10
83.110864129815099
20
99.322581310065317
30
0
10
83.068034584235747
20
99.270993188197309
30
0
10
83.028595934953557
20
99.215294604295508
30
0
10
83.005451042090939
20
99.175697849338803
30
0
10
82.993752821762357
20
99.155684295310706
30
0
0
SPLINE
5
141
100
AcDbEntity
8
0
100
AcDbSpline
70
0
71
3
72
19
73
15
74
0
42
0.000000001
43
0.0000000001
44
0.0000000001
40
0
40
0
40
0
40
0
40
0.087675473565530196
40
0.17160429593836821
40
0.25144010734708716
40
0.32850223678589546
40
0.40179889073929892
40
0.47242858594545734
40
0.54137732197449262
40
0.60753470903579732
40
0.73017642804193439
40
0.83600258847954756
40
0.92588312704884534
40
1
40
1
40
1
40
1
10
84.715942212583087
20
99.284488892877789
30
0
10
84.696583122032223
20
99.304155909884287
30
0
10
84.658692216298988
20
99.342649509854198
30
0
10
84.598865335152908
20
99.394504121035041
30
0
10
84.539925776367653
20
99.442143210955223
30
0
10
84.480795923104566
20
99.484110004470935
30
0
10
84.420824234271919
20
99.519422552943283
30
0
10
84.361095653286753
20
99.549819030431394
30
0
10
84.301265898566768
20
99.574770359355313
30
0
10
84.223760705457664
20
99.598901434842517
30
0
10
84.133410578740381
20
99.619922749523937
30
0
10
84.03527650072806
20
99.639905604832364
30
0
10
83.950747301760089
20
99.650299293217699
30
0
10
83.899107945264163
20
99.649178831247809
30
0
10
83.875770091396816
20
99.648672450465924
30
0
0
SPLINE
5
142
100
AcDbEntity
8
0
100
AcDbSpline
70
0
71
3
72
13
73
9
74
0
42
0.000000001
43
0.0000000001
44
0.0000000001
40
0
40
0
40
0
40
0
40
0.072520736643827924
40
0.16142396836674627
40
0.26771119220489437
40
0.391498752101958
40
0.67627515158972751
40
1
40
1
40
1
40
1
10
84.902937719710948
20
99.003341801741541
30
0
10
84.899495616581476
20
99.010773419251876
30
0
10
84.891833836345896
20
99.027315462885468
30
0
10
84.878018166361002
20
99.054218412955649
30
0
10
84.860223123730592
20
99.08554566794669
30
0
10
84.830380339294265
20
99.135438918122688
30
0
10
84.784112722357577
20
99.204174389282329
30
0
10
84.739615104846251
20
99.256598877135332
30
0
10
84.715942212583087
20
99.284488892877789
30
0
0
SPLINE
5
143
100
AcDbEntity
8
0
100
AcDbSpline
70
0
71
3
72
11
73
7
74
0
42
0.000000001
43
0.0000000001
44
0.0000000001
40
0
40
0
40
0
40
0
40
0.32905551015601087
40
0.59416793239173571
40
0.81065692810081202
40
1
40
1
40
1
40
1
10
84.982705033940306
20
98.763386028608963
30
0
10
84.976575988518675
20
98.790516067921999
30
0
10
84.965508912802591
20
98.839504153113737
30
0
10
84.944947779641936
20
98.904939474791291
30
0
10
84.923824107642645
20
98.957589796094908
30
0
10
84.909582306470966
20
98.988786715818676
30
0
10
84.902937719710948
20
99.003341801741541
30
0
0
SPLINE
5
144
100
AcDbEntity
8
0
100
AcDbSpline
70
0
71
3
72
11
73
7
74
0
42
0.000000001
43
0.0000000001
44
0.0000000001
40
0
40
0
40
0
40
0
40
0.32772160863180877
40
0.60139454749753263
40
0.82598956172964266
40
1
40
1
40
1
40
1
10
85.018011877943451
20
98.442355280358015
30
0
10
85.016472981058172
20
98.477674263843781
30
0
10
85.013648986022176
20
98.542487335463264
30
0
10
85.006930738601795
20
98.631336863489935
30
4.4408920985006262e-15
10
84.997247578286164
20
98.703325036350122
30
4.4408920985006262e-15
10
84.987124321906222
20
98.745134282972273
30
0
10
84.982705033940306
20
98.763386028608963
30
0
0
SPLINE
5
145
100
AcDbEntity
8
0
100
AcDbSpline
70
0
71
3
72
15
73
11
74
0
42
0.000000001
43
0.0000000001
44
0.0000000001
40
0
40
0
40
0
40
0
40
0.17354613305478006
40
0.33099028676774805
40
0.47615794820970869
40
0.60915193457010908
40
0.72630137236255876
40
0.82966852335589869
40
0.92142887644992277
40
1
40
1
40
1
40
1
10
84.978128220828779
20
98.103671110105495
30
0
10
84.982113511645395
20
98.123055691997635
30
0
10
84.989714329520297
20
98.160026313044696
30
0
10
84.999670615316973
20
98.213406198117056
30
0
10
85.007594782505095
20
98.262451753362598
30
0
10
85.013399832800587
20
98.307154370212629
30
0
10
85.017603941877695
20
98.347268904380428
30
0
10
85.019261448794282
20
98.382828299244736
30
0
10
85.020696611903745
20
98.414066655211712
30
0
10
85.018859368341424
20
98.433425405540731
30
0
10
85.018011877943451
20
98.442355280358015
30
0
0
SPLINE
5
146
100
AcDbEntity
8
0
100
AcDbSpline
70
0
71
3
72
13
73
9
74
0
42
0.000000001
43
0.0000000001
44
0.0000000001
40
0
40
0
40
0
40
0
40
0.24572794164465478
40
0.47723434869420472
40
0.59351378939271981
40
0.71904256928313548
40
0.85375079865898851
40
1
40
1
40
1
40
1
10
84.64900057427046
20
97.475571830722686
30
0
10
84.685834130851248
20
97.521317934618551
30
0
10
84.757369497432947
20
97.61016258106747
30
0
10
84.83522801317676
20
97.729078308429109
30
0
10
84.888160782405166
20
97.829153251013622
30
0
10
84.922266890938602
20
97.912512633095702
30
0
10
84.953420196529947
20
98.004593620081863
30
0
10
84.969669717263386
20
98.069753088474997
30
0
10
84.978128220828779
20
98.103671110105495
30
0
0
LINE
5
147
100
AcDbEntity
8
0
100
AcDbLine
10
84.64900057427046
20
97.475571830722686
30
0
11
84.062217121618573
21
97.579516824260196
31
3.0814879110195774e-32
0
LINE
5
148
100
AcDbEntity
8
0
100
AcDbLine
10
84.062217121618573
20
97.579516824260196
30
3.0814879110195774e-32
11
84.155609521644095
21
97.714641995626238
31
0
0
SPLINE
5
149
100
AcDbEntity
8
0
100
AcDbSpline
70
0
71
3
72
15
73
11
74
0
42
0.000000001
43
0.0000000001
44
0.0000000001
40
0
40
0
40
0
40
0
40
0.16620182476136719
40
0.32166230431168186
40
0.46876972174053733
40
0.60845986826990739
40
0.73621138342488235
40
0.84319419833174758
40
0.93119006849675778
40
1
40
1
40
1
40
1
10
84.395565294776645
20
98.392664166575784
30
0
10
84.393092230355094
20
98.352258872162565
30
0
10
84.388305931518147
20
98.274059609753678
30
0
10
84.368293909903088
20
98.161501343287568
30
0
10
84.339478520617178
20
98.057550611539114
30
0
10
84.299971536495491
20
97.964442514981243
30
0
10
84.257396366288418
20
97.883849581124906
30
0
10
84.220499466004682
20
97.814513737466143
30
0
10
84.187620987483953
20
97.759281338362484
30
0
10
84.165372611925036
20
97.728256427886151
30
0
10
84.155609521644067
20
97.714641995626238
30
0
0
SPLINE
5
150
100
AcDbEntity
8
0
100
AcDbSpline
70
0
71
3
72
11
73
7
74
0
42
0.000000001
43
0.0000000001
44
0.0000000001
40
0
40
0
40
0
40
0
40
0.3264821853342269
40
0.60020749422793263
40
0.8233853458788819
40
1
40
1
40
1
40
1
10
84.369412076996539
20
98.605159061039245
30
0
10
84.374593762428717
20
98.582338618765135
30
0
10
84.384119814902164
20
98.54038533282862
30
0
10
84.391806053791896
20
98.481947409426624
30
0
10
84.398174729061154
20
98.433949627839112
30
0
10
84.396364841287664
20
98.405314282619813
30
0
10
84.395565294776645
20
98.392664166575784
30
0
0
SPLINE
5
151
100
AcDbEntity
8
0
100
AcDbSpline
70
0
71
3
72
15
73
11
74
0
42
0.000000001
43
0.0000000001
44
0.0000000001
40
0
40
0
40
0
40
0
40
0.13165370798928955
40
0.25584283210943243
40
0.3753866145492023
40
0.49551700940689447
40
0.61744272759393515
40
0.74054645740420477
40
0.86747139976004373
40
1
40
1
40
1
40
1
10
83.920230561623015
20
98.984380718850943
30
0
10
83.948055051238214
20
98.98279189842799
30
0
10
84.002126420240046
20
98.979704341511209
30
0
10
84.079041476652563
20
98.958110667427931
30
0
10
84.148524173335218
20
98.924349538585389
30
0
10
84.209676063274429
20
98.877837712686471
30
0
10
84.262509253257406
20
98.82125234448165
30
0
10
84.30735866682889
20
98.756467949315137
30
0
10
84.34363265430639
20
98.68390633241512
30
4.4408920985006262e-15
10
84.360696091162581
20
98.631783400537628
30
4.4408920985006262e-15
10
84.369412076996539
20
98.605159061039245
30
0
0
SPLINE
5
152
100
AcDbEntity
8
0
100
AcDbSpline
70
0
71
3
72
15
73
11
74
0
42
0.000000001
43
0.0000000001
44
0.0000000001
40
0
40
0
40
0
40
0
40
0.16888543221916683
40
0.3261842599846983
40
0.47245740813737747
40
0.61105657426477222
40
0.73606847315766766
40
0.84114788588333222
40
0.92898398567084617
40
1
40
1
40
1
40
1
10
83.622737709374192
20
98.876498695507962
30
0
10
83.637379783504159
20
98.887218947755059
30
0
10
83.665659393248887
20
98.907923975418612
30
0
10
83.709507214347212
20
98.933716280274595
30
0
10
83.753117497514154
20
98.952776042339281
30
0
10
83.795089274081704
20
98.966275740302109
30
0
10
83.833733362489156
20
98.975131190047207
30
0
10
83.867355664450102
20
98.980975317512389
30
0
10
83.895510029520409
20
98.984993556602205
30
0
10
83.912593340778642
20
98.984570050424736
30
0
10
83.920230561623015
20
98.984380718850943
30
0
0
SPLINE
5
153
100
AcDbEntity
8
0
100
AcDbSpline
70
0
71
3
72
15
73
11
74
0
42
0.000000001
43
0.0000000001
44
0.0000000001
40
0
40
0
40
0
40
0
40
0.12066377995872901
40
0.24307465329893138
40
0.3698845754280195
40
0.50026292652131754
40
0.63013603912110372
40
0.75501154297188622
40
0.87736433974692274
40
0.99999999999999989
40
0.99999999999999989
40
0.99999999999999989
40
0.99999999999999989
10
83.382781936241614
20
98.248167638340632
30
0
10
83.382596824522921
20
98.276096415554804
30
0
10
83.382223920849128
20
98.332358351329731
30
0
10
83.393160876681463
20
98.417378612111605
30
0
10
83.409854143593464
20
98.503587570142827
30
0
10
83.434300603557602
20
98.589823030816063
30
0
10
83.46693695802017
20
98.672865258961892
30
4.4408920985006262e-15
10
83.508729848348509
20
98.749703574351159
30
0
10
83.560998487195462
20
98.817937615182757
30
0
10
83.602142133840687
20
98.856963315718616
30
0
10
83.622737709374192
20
98.876498695507962
30
0
0
LWPOLYLINE
5
154
100
AcDbEntity
8
0
100
AcDbPolyline
90
6
70
1
43
0.0
10
62.963778666444014
20
102.14908624726908
10
62.963778666444014
20
101.25866631654148
10
62.032576143469356
20
101.25866631654148
10
62.032576143469356
20
103.14818197193148
10
66.805296614101763
20
103.14818197193148
10
66.805296614101749
20
102.14908624726908
0
SPLINE
5
155
100
AcDbEntity
8
0
100
AcDbSpline
70
0
71
3
72
9
73
5
74
0
42
0.000000001
43
0.0000000001
44
0.0000000001
40
0
40
0
40
0
40
0
40
0.4968736155538836
40
1
40
1
40
1
40
1
10
63.826391180153792
20
107.67823455691165
30
0
10
63.765965467703715
20
107.73223802316036
30
0
10
63.64435363210098
20
107.84092454737541
30
0
10
63.520130662842369
20
107.94661695915812
30
0
10
63.45763080945413
20
107.99979360016174
30
-4.4408920985006262e-15
0
SPLINE
5
156
100
AcDbEntity
8
0
100
AcDbSpline
70
0
71
3
72
9
73
5
74
0
42
0.000000001
43
0.0000000001
44
0.0000000001
40
0
40
0
40
0
40
0
40
0.4978244742108125
40
1
40
1
40
1
40
1
10
63.805740599394618
20
108.33652463585112
30
-4.4408920985006262e-15
10
63.806493353122242
20
108.22720330361442
30
-4.4408920985006262e-15
10
63.80800543974437
20
108.00760515627543
30
-4.4408920985006262e-15
10
63.820244848584267
20
107.78834276402551
30
0
10
63.826391180153792
20
107.67823455691165
30
0
0
LINE
5
157
100
AcDbEntity
8
0
100
AcDbLine
10
63.805740599394618
20
108.33652463585112
30
-4.4408920985006262e-15
11
63.805740599394618
21
109.20363199689355
31
-4.4408920985006262e-15
0
LINE
5
158
100
AcDbEntity
8
0
100
AcDbLine
10
63.805740599394618
20
109.20363199689355
30
-4.4408920985006262e-15
11
64.678965157211408
21
109.20363199689355
31
-1.7605426537167699e-31
0
LINE
5
159
100
AcDbEntity
8
0
100
AcDbLine
10
64.678965157211408
20
109.20363199689355
30
-1.7605426537167699e-31
11
64.678965157211394
21
106.01700173756751
31
0
0
LINE
5
160
100
AcDbEntity
8
0
100
AcDbLine
10
64.678965157211394
20
106.01700173756751
30
0
11
64.422904293866424
21
106.01700173756751
31
3.745851508556124e-32
0
LINE
5
161
100
AcDbEntity
8
0
100
AcDbLine
10
64.422904293866424
20
106.01700173756751
30
3.745851508556124e-32
11
62.800745669114477
21
107.3370082938909
31
4.9303806576313238e-31
0
SPLINE
5
162
100
AcDbEntity
8
0
100
AcDbSpline
70
0
71
3
72
9
73
5
74
0
42
0.000000001
43
0.0000000001
44
0.0000000001
40
0
40
0
40
0
40
0
40
0.49936628053294602
40
1
40
1
40
1
40
1
10
62.315948701767994
20
107.71265219151027
30
0
10
62.396553638121162
20
107.65000530021044
30
0
10
62.557968093793164
20
107.524552513865
30
0
10
62.719751460494749
20
107.39957583398557
30
0
10
62.800745669114477
20
107.3370082938909
30
0
0
SPLINE
5
163
100
AcDbEntity
8
0
100
AcDbSpline
70
0
71
3
72
15
73
11
74
0
42
0.000000001
43
0.0000000001
44
0.0000000001
40
0
40
0
40
0
40
0
40
0.087799273268598002
40
0.18303095600010982
40
0.28681672555645044
40
0.40002427868818358
40
0.52647324567767817
40
0.66799377456720421
40
0.82582572484221772
40
1
40
1
40
1
40
1
10
61.309970410499318
20
108.14238094349895
30
-4.4408920985006262e-15
10
61.342493582274074
20
108.1415470313342
30
-4.4408920985006262e-15
10
61.410293086762884
20
108.1398086144311
30
-4.4408920985006262e-15
10
61.515061329123284
20
108.12063782791344
30
-4.4408920985006262e-15
10
61.626525668691713
20
108.0898616567511
30
-4.4408920985006262e-15
10
61.745793631479707
20
108.04555480457014
30
-4.4408920985006262e-15
10
61.874511088100597
20
107.98745930496668
30
-4.4408920985006262e-15
10
62.011859234749025
20
107.9099808393223
30
0
10
62.161715791987774
20
107.81904530284859
30
0
10
62.262877899484806
20
107.74926154929373
30
0
10
62.315948701767994
20
107.71265219151027
30
0
0
SPLINE
5
164
100
AcDbEntity
8
0
100
AcDbSpline
70
0
71
3
72
15
73
11
74
0
42
0.000000001
43
0.0000000001
44
0.0000000001
40
0
40
0
40
0
40
0
40
0.13352827374799808
40
0.25822132824949878
40
0.37862297758803831
40
0.49758111350277584
40
0.61612420079200902
40
0.73519760831380598
40
0.86217613192222609
40
1
40
1
40
1
40
1
10
60.709136846506013
20
107.51499663281524
30
0
10
60.711312824691831
20
107.5584294733687
30
0
10
60.715520802235574
20
107.6424213161639
30
0
10
60.745209493254997
20
107.76286269931845
30
0
10
60.796186320049557
20
107.87049615106055
30
0
10
60.865316480742308
20
107.96498670136542
30
-4.4408920985006262e-15
10
60.952410966624903
20
108.04314558819581
30
-4.4408920985006262e-15
10
61.058083265594689
20
108.09901084552254
30
-4.4408920985006262e-15
10
61.179033631355544
20
108.13382598099193
30
-4.4408920985006262e-15
10
61.265149157693259
20
108.13945247573166
30
-4.4408920985006262e-15
10
61.309970410499318
20
108.14238094349895
30
-4.4408920985006262e-15
0
SPLINE
5
165
100
AcDbEntity
8
0
100
AcDbSpline
70
0
71
3
72
11
73
7
74
0
42
0.000000001
43
0.0000000001
44
0.0000000001
40
0
40
0
40
0
40
0
40
0.25062603995062377
40
0.49758619672770171
40
0.74541698802371326
40
1
40
1
40
1
40
1
10
60.804522862393654
20
107.15311978903532
30
0
10
60.789256206444769
20
107.18091719523491
30
0
10
60.758946198466937
20
107.23610541762584
30
0
10
60.728491601676986
20
107.32573010508895
30
0
10
60.711515362941945
20
107.41927092321458
30
0
10
60.70993675724025
20
107.48280344655237
30
0
10
60.709136846506013
20
107.51499663281524
30
0
0
SPLINE
5
166
100
AcDbEntity
8
0
100
AcDbSpline
70
0
71
3
72
13
73
9
74
0
42
0.000000001
43
0.0000000001
44
0.0000000001
40
0
40
0
40
0
40
0
40
0.24422825509386614
40
0.49537023037829536
40
0.62032556781306747
40
0.74308741356774988
40
0.86887794780699346
40
1
40
1
40
1
40
1
10
61.644808668348475
20
106.87343617475588
30
0
10
61.569520556266795
20
106.87333273489472
30
0
10
61.416813043320275
20
106.87312292695162
30
0
10
61.22650854879992
20
106.89683071731827
30
0
10
61.077097428296803
20
106.93555752227759
30
0
10
60.973862171645088
20
106.98827205568834
30
0
10
60.880893575747734
20
107.06077158302597
30
0
10
60.830329539596264
20
107.12191410510157
30
0
10
60.804522862393654
20
107.15311978903532
30
0
0
LINE
5
167
100
AcDbEntity
8
0
100
AcDbLine
10
61.644808668348475
20
106.87343617475588
30
0
11
61.645296507588881
21
105.88065066987437
31
0
0
SPLINE
5
168
100
AcDbEntity
8
0
100
AcDbSpline
70
0
71
3
72
13
73
9
74
0
42
0.000000001
43
0.0000000001
44
0.0000000001
40
0
40
0
40
0
40
0
40
0.13199016953829487
40
0.25886859631123776
40
0.38148216860291723
40
0.50104083632405794
40
0.74217500525628954
40
1
40
1
40
1
40
1
10
60.592116888870663
20
106.09108992142029
30
-4.4408920985006262e-15
10
60.635494543889486
20
106.07125038595049
30
-4.4408920985006262e-15
10
60.720569915072645
20
106.03233966467099
30
-4.4408920985006262e-15
10
60.849648869182012
20
105.98350335204147
30
-4.4408920985006262e-15
10
60.978137749428811
20
105.94729482021975
30
0
10
61.149206865700421
20
105.91161241168535
30
0
10
61.371883355396065
20
105.88722833198163
30
0
10
61.552148753711236
20
105.88289158054799
30
0
10
61.645296507588874
20
105.88065066987437
30
0
0
SPLINE
5
169
100
AcDbEntity
8
0
100
AcDbSpline
70
0
71
3
72
19
73
15
74
0
42
0.000000001
43
0.0000000001
44
0.0000000001
40
0
40
0
40
0
40
0
40
0.08928598282244464
40
0.1736512511756845
40
0.25406842746697561
40
0.33050172629398528
40
0.40288184104438274
40
0.47226838735555948
40
0.53802435665422832
40
0.60167491595759148
40
0.71983812177840245
40
0.82512582113879507
40
0.91819555062167912
40
1
40
1
40
1
40
1
10
59.83197884473509
20
107.09116804675779
30
0
10
59.841721940375791
20
107.05368110125791
30
0
10
59.86067117176519
20
106.98077318466196
30
0
10
59.89534071715422
20
106.87608143993694
30
0
10
59.933847715436627
20
106.77877466544643
30
0
10
59.97460050692694
20
106.68801696628934
30
0
10
60.020127788955236
20
106.60493067667575
30
0
10
60.069127827259294
20
106.52935572650154
30
0
10
60.121370486521137
20
106.46059814992874
30
0
10
60.194803579686337
20
106.38211047468941
30
-4.4408920985006262e-15
10
60.286030946084679
20
106.2971778871475
30
-4.4408920985006262e-15
10
60.392108702765995
20
106.2100093316198
30
-4.4408920985006262e-15
10
60.492057151286104
20
106.14019960743815
30
-4.4408920985006262e-15
10
60.560227472154573
20
106.10674136404873
30
-4.4408920985006262e-15
10
60.592116888870663
20
106.09108992142029
30
-4.4408920985006262e-15
0
SPLINE
5
170
100
AcDbEntity
8
0
100
AcDbSpline
70
0
71
3
72
11
73
7
74
0
42
0.000000001
43
0.0000000001
44
0.0000000001
40
0
40
0
40
0
40
0
40
0.33151262580136787
40
0.60787657224935987
40
0.83201885409953047
40
0.99999999999999989
40
0.99999999999999989
40
0.99999999999999989
40
0.99999999999999989
10
59.784777517285541
20
107.54843090642537
30
0
10
59.787175391885043
20
107.49761028878622
30
0
10
59.79157224340377
20
107.40442330148699
30
0
10
59.800688720010513
20
107.2770637046917
30
0
10
59.813345076432249
20
107.17511487397424
30
0
10
59.826390385188063
20
107.11634456716826
30
0
10
59.83197884473509
20
107.09116804675779
30
0
0
SPLINE
5
171
100
AcDbEntity
8
0
100
AcDbSpline
70
0
71
3
72
15
73
11
74
0
42
0.000000001
43
0.0000000001
44
0.0000000001
40
0
40
0
40
0
40
0
40
0.16753059099655496
40
0.32411046026349788
40
0.46960357018531595
40
0.60725937653571538
40
0.73321006179339177
40
0.84008177607054058
40
0.92885028067799702
40
1
40
1
40
1
40
1
10
60.133870668214549
20
108.60259388613213
30
0
10
60.096471823619176
20
108.55149146913242
30
0
10
60.024118728802158
20
108.45262697044103
30
0
10
59.935790922696164
20
108.29819040211918
30
-4.4408920985006262e-15
10
59.872005960778829
20
108.14431864109363
30
-4.4408920985006262e-15
10
59.831237806103829
20
107.99480635429219
30
-4.4408920985006262e-15
10
59.809217362401846
20
107.85647878800893
30
0
10
59.791494239326298
20
107.73633000514042
30
0
10
59.782112770652176
20
107.63575418608895
30
0
10
59.783956996825793
20
107.57531921793631
30
0
10
59.784777517285541
20
107.54843090642537
30
0
0
SPLINE
5
172
100
AcDbEntity
8
0
100
AcDbSpline
70
0
71
3
72
19
73
15
74
0
42
0.000000001
43
0.0000000001
44
0.0000000001
40
0
40
0
40
0
40
0
40
0.088188896261464214
40
0.17225684364105276
40
0.25252817021092833
40
0.32916132932058584
40
0.40264442159781488
40
0.47243742239824521
40
0.54059986343305066
40
0.60594180082126681
40
0.72741397705061228
40
0.8333714173689446
40
0.92344544268735318
40
1
40
1
40
1
40
1
10
61.303086883579596
20
109.14147570784789
30
0
10
61.264057170751506
20
109.1395395821738
30
0
10
61.187821551246174
20
109.13575780338252
30
0
10
61.076447234191605
20
109.12420022079263
30
0
10
60.971146377297686
20
109.10625356263985
30
0
10
60.87142996683032
20
109.08409515690174
30
0
10
60.778168435573065
20
109.05553487449004
30
0
10
60.69066063289921
20
109.02190874629926
30
0
10
60.60921214110428
20
108.98308773734266
30
0
10
60.512567835301851
20
108.924424643858
30
0
10
60.404872177697222
20
108.85191568654872
30
0
10
60.293933714345627
20
108.76542292386446
30
0
10
60.202772546778121
20
108.68562437466336
30
0
10
60.155561122629535
20
108.62873205629651
30
0
10
60.133870668214549
20
108.60259388613213
30
0
0
SPLINE
5
173
100
AcDbEntity
8
0
100
AcDbSpline
70
0
71
3
72
19
73
15
74
0
42
0.000000001
43
0.0000000001
44
0.0000000001
40
0
40
0
40
0
40
0
40
0.091635004245737214
40
0.17790214036910362
40
0.25937373514774753
40
0.33553363359471189
40
0.40684832410462363
40
0.47336692258989449
40
0.53469600240018245
40
0.59159164110885432
40
0.69808700859163086
40
0.80136865555300774
40
0.90109360630560476
40
0.99999999999999989
40
0.99999999999999989
40
0.99999999999999989
40
0.99999999999999989
10
62.999384588798016
20
108.3626538049302
30
-4.4408920985006262e-15
10
62.952904163526533
20
108.39748479297273
30
0
10
62.862666080283915
20
108.46510641175198
30
0
10
62.730025826083363
20
108.56228523162085
30
0
10
62.602111675662719
20
108.64914438944284
30
0
10
62.481119167631299
20
108.7292787402268
30
0
10
62.36609568064079
20
108.801220529831
30
0
10
62.257059177199245
20
108.8648474059071
30
0
10
62.154736613928996
20
108.92188910317991
30
0
10
62.026361511546817
20
108.98370367812839
30
0
10
61.869692795011453
20
109.04800550283883
30
0
10
61.68069452571811
20
109.10160122719839
30
0
10
61.491876398403058
20
109.13649649784145
30
0
10
61.365843595367295
20
109.13982053728611
30
0
10
61.303086883579596
20
109.14147570784789
30
0
0
SPLINE
5
174
100
AcDbEntity
8
0
100
AcDbSpline
70
0
71
3
72
9
73
5
74
0
42
0.000000001
43
0.0000000001
44
0.0000000001
40
0
40
0
40
0
40
0
40
0.49892879494290177
40
1
40
1
40
1
40
1
10
63.45763080945413
20
107.99979360016174
30
-4.4408920985006262e-15
10
63.382156936018973
20
108.06107127652645
30
-4.4408920985006262e-15
10
63.230885102843288
20
108.1838897568102
30
-4.4408920985006262e-15
10
63.076661563503286
20
108.30298074164673
30
-4.4408920985006262e-15
10
62.999384588798023
20
108.3626538049302
30
-4.4408920985006262e-15
0
LWPOLYLINE
5
175
100
AcDbEntity
8
0
100
AcDbPolyline
90
11
70
1
43
0.0
10
65.050220049557481
20
117.46914655164818
10
62.154006828113253
20
119.53415085001222
10
62.154006828113253
20
120.3750781453619
10
65.098236683139135
20
120.3750781453619
10
65.098236683139135
20
120.97284830940069
10
65.922246136169505
20
120.97284830940069
10
65.922246136169505
20
120.3750781453619
10
66.929206828113237
20
120.3750781453619
10
66.929206828113223
20
119.49468196658577
10
65.922246136169491
20
119.49468196658577
10
65.922246136169505
20
117.46914655164818
0
SPLINE
5
176
100
AcDbEntity
8
0
100
AcDbSpline
70
0
71
3
72
13
73
9
74
0
42
0.000000001
43
0.0000000001
44
0.0000000001
40
0
40
0
40
0
40
0
40
0.24811845863481252
40
0.50564483593052045
40
0.63461017269639919
40
0.759577699334544
40
0.88113720066320533
40
1
40
1
40
1
40
1
10
74.789598067580158
20
126.01718449363256
30
0
10
74.926927905522419
20
125.92618513823504
30
-4.4408920985006262e-15
10
75.206794722996406
20
125.74073600082328
30
0
10
75.563369477063119
20
125.51627774525771
30
0
10
75.855665887250709
20
125.34306579386813
30
0
10
76.079110683535234
20
125.23226060726802
30
0
10
76.299979781475173
20
125.1314015036324
30
0
10
76.450710292743352
20
125.07860802405969
30
0
10
76.525230212339878
20
125.05250736388226
30
0
0
SPLINE
5
177
100
AcDbEntity
8
0
100
AcDbSpline
70
0
71
3
72
9
73
5
74
0
42
0.000000001
43
0.0000000001
44
0.0000000001
40
0
40
0
40
0
40
0
40
0.49282624701256034
40
1
40
1
40
1
40
1
10
73.846555839891025
20
126.6595698609587
30
0
10
73.99971097237291
20
126.55145371665279
30
0
10
74.310479997785578
20
126.33207387444415
30
0
10
74.628371726489647
20
126.12314681464932
30
0
10
74.789598067580158
20
126.01718449363256
30
0
0
LINE
5
178
100
AcDbEntity
8
0
100
AcDbLine
10
73.846555839891025
20
126.6595698609587
30
0
11
73.847538240566095
21
127.91507120150014
31
0
0
SPLINE
5
179
100
AcDbEntity
8
0
100
AcDbSpline
70
0
71
3
72
9
73
5
74
0
42
0.000000001
43
0.0000000001
44
0.0000000001
40
0
40
0
40
0
40
0
40
0.51805155144253512
40
1
40
1
40
1
40
1
10
74.265466660692368
20
127.55122763574313
30
0
10
74.190360059716255
20
127.61069157170445
30
0
10
74.045381049872574
20
127.72547539156895
30
0
10
73.911879233733785
20
127.85341223722355
30
-4.4408920985006262e-15
10
73.847538240566095
20
127.91507120150014
30
-4.4408920985006262e-15
0
SPLINE
5
180
100
AcDbEntity
8
0
100
AcDbSpline
70
0
71
3
72
9
73
5
74
0
42
0.000000001
43
0.0000000001
44
0.0000000001
40
0
40
0
40
0
40
0
40
0.50138482931596207
40
1
40
1
40
1
40
1
10
75.076739476231623
20
126.95334415471542
30
0
10
74.940484148947846
20
127.05236004973301
30
0
10
74.668726171209144
20
127.24984487421933
30
0
10
74.399638070137343
20
127.45095238161647
30
0
10
74.265466660692368
20
127.55122763574313
30
0
0
SPLINE
5
181
100
AcDbEntity
8
0
100
AcDbSpline
70
0
71
3
72
9
73
5
74
0
42
0.000000001
43
0.0000000001
44
0.0000000001
40
0
40
0
40
0
40
0
40
0.49529435213609646
40
1
40
1
40
1
40
1
10
75.879162042874086
20
126.35152722973359
30
0
10
75.747739109883341
20
126.45229323907921
30
0
10
75.482396021628972
20
126.65573995497867
30
0
10
75.212804061252399
20
126.853522292115
30
0
10
75.076739476231623
20
126.95334415471542
30
0
0
SPLINE
5
182
100
AcDbEntity
8
0
100
AcDbSpline
70
0
71
3
72
13
73
9
74
0
42
0.000000001
43
0.0000000001
44
0.0000000001
40
0
40
0
40
0
40
0
40
0.13628010437073365
40
0.26289662006181619
40
0.38500960544218404
40
0.49912792128172462
40
0.73636013091441843
40
1
40
1
40
1
40
1
10
75.67855640121347
20
126.96612784756636
30
0
10
75.678963171771926
20
126.93626285513275
30
0
10
75.679747868888583
20
126.87865058953304
30
0
10
75.690324198623372
20
126.7948727106326
30
0
10
75.705314291260549
20
126.71674436773259
30
0
10
75.735594890514221
20
126.6174072947388
30
0
10
75.791298763467267
20
126.49414562528014
30
0
10
75.848862629572849
20
126.4007087961422
30
0
10
75.879162042874086
20
126.35152722973359
30
0
0
SPLINE
5
183
100
AcDbEntity
8
0
100
AcDbSpline
70
0
71
3
72
15
73
11
74
0
42
0.000000001
43
0.0000000001
44
0.0000000001
40
0
40
0
40
0
40
0
40
0.12500111503611805
40
0.24833872554550282
40
0.3722098826429856
40
0.49645883419002129
40
0.6211975404311133
40
0.74622851519547873
40
0.87232973128678526
40
1
40
1
40
1
40
1
10
76.085667850465896
20
127.93473842127078
30
0
10
76.054218035612337
20
127.90253652919203
30
-4.4408920985006262e-15
10
75.991736937446774
20
127.83856128515777
30
-4.4408920985006262e-15
10
75.909410037573792
20
127.73243861659402
30
0
10
75.839834951643866
20
127.6180308136372
30
0
10
75.781384419254152
20
127.49695507718135
30
0
10
75.736715918173573
20
127.36974370204648
30
0
10
75.702629942664373
20
127.23866075229589
30
0
10
75.682761976144178
20
127.1034205974869
30
0
10
75.679964026038348
20
127.01208034781857
30
0
10
75.67855640121347
20
126.96612784756636
30
0
0
SPLINE
5
184
100
AcDbEntity
8
0
100
AcDbSpline
70
0
71
3
72
15
73
11
74
0
42
0.000000001
43
0.0000000001
44
0.0000000001
40
0
40
0
40
0
40
0
40
0.17010027987407245
40
0.325117804953725
40
0.46887251034234739
40
0.60172716554119787
40
0.72274881568018323
40
0.82971170824360085
40
0.92130772634070091
40
1
40
1
40
1
40
1
10
77.070012199986849
20
128.29858198702777
30
0
10
77.009288754742812
20
128.29532772105964
30
0
10
76.89322619892819
20
128.28910774417847
30
0
10
76.727154699402817
20
128.26422200103335
30
0
10
76.57805144166278
20
128.22310306422048
30
0
10
76.446522758202192
20
128.16853759934031
30
0
10
76.332367887537643
20
128.10828294814536
30
0
10
76.234438121954213
20
128.04956777315806
30
0
10
76.151850145739587
20
127.99436514969479
30
0
10
76.106585287464966
20
127.95358391960403
30
0
10
76.085667850465896
20
127.93473842127078
30
0
0
SPLINE
5
185
100
AcDbEntity
8
0
100
AcDbSpline
70
0
71
3
72
15
73
11
74
0
42
0.000000001
43
0.0000000001
44
0.0000000001
40
0
40
0
40
0
40
0
40
0.075851938965679599
40
0.1671897686696811
40
0.27364824158774093
40
0.39499170611722301
40
0.52947638370682992
40
0.67511776351450326
40
0.83144699286637691
40
1
40
1
40
1
40
1
10
77.798682692489365
20
128.13042725798874
30
0
10
77.781781307676553
20
128.13926414570065
30
0
10
77.74452796049016
20
128.1587420553291
30
0
10
77.680129250223615
20
128.18312175450535
30
0
10
77.604584517904826
20
128.20994566199022
30
0
10
77.517389331249859
20
128.23615949099261
30
0
10
77.419643160870578
20
128.2614060779122
30
0
10
77.311323522553607
20
128.27900384875446
30
0
10
77.193943840100459
20
128.29367809513136
30
0
10
77.112346125036339
20
128.29690686200075
30
0
10
77.070012199986849
20
128.29858198702777
30
0
0
SPLINE
5
186
100
AcDbEntity
8
0
100
AcDbSpline
70
0
71
3
72
11
73
7
74
0
42
0.000000001
43
0.0000000001
44
0.0000000001
40
0
40
0
40
0
40
0
40
0.16296330489718741
40
0.39107647650268029
40
0.67452868190134196
40
1
40
1
40
1
40
1
10
78.144825760452775
20
127.88852045480976
30
-4.4408920985006262e-15
10
78.127571651675382
20
127.90374128900466
30
-4.4408920985006262e-15
10
78.086165544514557
20
127.9402679795386
30
0
10
78.011214055373728
20
127.99901889115388
30
0
10
77.915124914807521
20
128.06814847124937
30
0
10
77.839242209615435
20
128.10873411724427
30
0
10
77.798682692489365
20
128.13042725798874
30
0
0
SPLINE
5
187
100
AcDbEntity
8
0
100
AcDbSpline
70
0
71
3
72
19
73
15
74
0
42
0.000000001
43
0.0000000001
44
0.0000000001
40
0
40
0
40
0
40
0
40
0.075772048667455502
40
0.16651977042823082
40
0.27378384014107732
40
0.39707860956711727
40
0.46417999781198827
40
0.53248325566091625
40
0.60333348051964553
40
0.6758712458485544
40
0.75171839692017373
40
0.83122132312903285
40
0.91377781202005259
40
1
40
1
40
1
40
1
10
78.684690943157079
20
126.61113453070614
30
0
10
78.685062461429794
20
126.64721839327392
30
0
10
78.685878925265314
20
126.72651777367369
30
0
10
78.670562520032362
20
126.85624784974665
30
0
10
78.640643772478228
20
127.00620011300587
30
0
10
78.608671450553047
20
127.14428226827388
30
0
10
78.572739239068781
20
127.26213175683314
30
0
10
78.536017128450254
20
127.35331091458687
30
0
10
78.490431131960747
20
127.44323352580109
30
0
10
78.438153948590411
20
127.53359189649437
30
0
10
78.376900102194483
20
127.62322668212646
30
0
10
78.306633019501021
20
127.71203195407398
30
0
10
78.230407825455885
20
127.80241824497942
30
0
10
78.173763203079588
20
127.85940713817132
30
0
10
78.144825760452775
20
127.88852045480976
30
-4.4408920985006262e-15
0
SPLINE
5
188
100
AcDbEntity
8
0
100
AcDbSpline
70
0
71
3
72
15
73
11
74
0
42
0.000000001
43
0.0000000001
44
0.0000000001
40
0
40
0
40
0
40
0
40
0.16652037267242312
40
0.32258184440621296
40
0.46808466962069484
40
0.60545413361844613
40
0.73041954619812943
40
0.83838070771942841
40
0.92725386707726887
40
1
40
1
40
1
40
1
10
78.345431402113391
20
125.56188835594206
30
0
10
78.380469646889495
20
125.61341188862464
30
0
10
78.448345435558693
20
125.71322283629632
30
0
10
78.531343880474012
20
125.86776771407628
30
0
10
78.593342697724893
20
126.02016975239628
30
0
10
78.633403406332775
20
126.16762897092988
30
0
10
78.659228542786963
20
126.30378832953058
30
0
10
78.675475398334214
20
126.42300435757535
30
0
10
78.686361550855878
20
126.52342249555473
30
0
10
78.685209493406603
20
126.58390904997445
30
0
10
78.684690943157079
20
126.61113453070614
30
0
0
SPLINE
5
189
100
AcDbEntity
8
0
100
AcDbSpline
70
0
71
3
72
15
73
11
74
0
42
0.000000001
43
0.0000000001
44
0.0000000001
40
0
40
0
40
0
40
0
40
0.12662639778188575
40
0.25060322943668212
40
0.37316215041621631
40
0.49590014785520986
40
0.61882072260134513
40
0.74237912892078806
40
0.86904203739998465
40
1
40
1
40
1
40
1
10
77.082795892837765
20
124.96400487491434
30
0
10
77.143886795320526
20
124.96548170894502
30
0
10
77.264790317173492
20
124.96840447531852
30
0
10
77.4426786666358
20
124.99853368243004
30
0
10
77.614871822111752
20
125.044485929769
30
0
10
77.7806945758837
20
125.10910953584515
30
0
10
77.93735290395017
20
125.19446899592658
30
0
10
78.08525313653513
20
125.29741364710908
30
0
10
78.223019572597593
20
125.4199052121175
30
0
10
78.304176443268261
20
125.51403751686584
30
0
10
78.345431402113391
20
125.56188835594206
30
0
0
SPLINE
5
190
100
AcDbEntity
8
0
100
AcDbSpline
70
0
71
3
72
13
73
9
74
0
42
0.000000001
43
0.0000000001
44
0.0000000001
40
0
40
0
40
0
40
0
40
0.17303252934528787
40
0.33042085093132956
40
0.47367988200574618
40
0.60348834748102964
40
0.82294292037561434
40
1
40
1
40
1
40
1
10
76.525230212339878
20
125.05250736388226
30
0
10
76.55665222573856
20
125.04349690081766
30
0
10
76.616655327146447
20
125.02629062819162
30
0
10
76.70338785208682
20
125.00413688706068
30
0
10
76.783217645490311
20
124.9884277726246
30
0
10
76.875270644137657
20
124.97472623255328
30
0
10
76.974446894036745
20
124.96610441062792
30
0
10
77.049349234690553
20
124.96465298845537
30
0
10
77.082795892837765
20
124.96400487491434
30
0
0
LWPOLYLINE
5
191
100
AcDbEntity
8
0
100
AcDbPolyline
90
6
70
1
43
0.0
10
87.088586528992835
20
101.45113185245756
10
87.088586528992835
20
100.56071192172996
10
86.157384006018191
20
100.56071192172999
10
86.157384006018191
20
102.45022757711996
10
90.930104476650584
20
102.45022757711999
10
90.930104476650584
20
101.45113185245759
0
SPLINE
5
192
100
AcDbEntity
8
0
100
AcDbSpline
70
0
71
3
72
9
73
5
74
0
42
0.000000001
43
0.0000000001
44
0.0000000001
40
0
40
0
40
0
40
0
40
0.4968736155538841
40
1
40
1
40
1
40
1
10
91.449491782301493
20
107.16111301771232
30
0
10
91.389066069851424
20
107.21511648396104
30
0
10
91.267454234248675
20
107.3238030081761
30
0
10
91.143231264990078
20
107.42949541995881
30
0
10
91.080731411601832
20
107.48267206096243
30
0
0
SPLINE
5
193
100
AcDbEntity
8
0
100
AcDbSpline
70
0
71
3
72
9
73
5
74
0
42
0.000000001
43
0.0000000001
44
0.0000000001
40
0
40
0
40
0
40
0
40
0.4978244742108125
40
1
40
1
40
1
40
1
10
91.428841201542298
20
107.81940309665181
30
0
10
91.429593955269937
20
107.71008176441511
30
0
10
91.431106041892065
20
107.49048361707611
30
0
10
91.443345450731954
20
107.27122122482621
30
0
10
91.449491782301493
20
107.16111301771232
30
0
0
LINE
5
194
100
AcDbEntity
8
0
100
AcDbLine
10
91.428841201542298
20
107.81940309665181
30
0
11
91.428841201542298
21
108.68651045769424
31
0
0
LINE
5
195
100
AcDbEntity
8
0
100
AcDbLine
10
91.428841201542298
20
108.68651045769424
30
0
11
92.302065759359095
21
108.68651045769424
31
-1.7605426537167699e-31
0
LINE
5
196
100
AcDbEntity
8
0
100
AcDbLine
10
92.302065759359095
20
108.68651045769424
30
-1.7605426537167699e-31
11
92.302065759359095
21
105.49988019836819
31
0
0
LINE
5
197
100
AcDbEntity
8
0
100
AcDbLine
10
92.302065759359095
20
105.49988019836819
30
0
11
92.046004896014153
21
105.49988019836819
31
3.745851508556124e-32
0
LINE
5
198
100
AcDbEntity
8
0
100
AcDbLine
10
92.046004896014153
20
105.49988019836819
30
3.745851508556124e-32
11
90.423846271262178
21
106.81988675469158
31
4.9303806576313238e-31
0
SPLINE
5
199
100
AcDbEntity
8
0
100
AcDbSpline
70
0
71
3
72
9
73
5
74
0
42
0.000000001
43
0.0000000001
44
0.0000000001
40
0
40
0
40
0
40
0
40
0.49936628053294602
40
1
40
1
40
1
40
1
10
89.939049303915681
20
107.19553065231096
30
0
10
90.019654240268864
20
107.13288376101113
30
0
10
90.181068695940851
20
107.0074309746657
30
0
10
90.34285206264245
20
106.88245429478626
30
0
10
90.423846271262178
20
106.81988675469157
30
0
0
SPLINE
5
200
100
AcDbEntity
8
0
100
AcDbSpline
70
0
71
3
72
15
73
11
74
0
42
0.000000001
43
0.0000000001
44
0.0000000001
40
0
40
0
40
0
40
0
40
0.087799273268598002
40
0.18303095600010982
40
0.28681672555645044
40
0.40002427868818369
40
0.52647324567767806
40
0.6679937745672041
40
0.82582572484221772
40
1
40
1
40
1
40
1
10
88.933071012647019
20
107.62525940429964
30
0
10
88.965594184421789
20
107.62442549213489
30
0
10
89.033393688910593
20
107.62268707523178
30
0
10
89.138161931270986
20
107.60351628871413
30
0
10
89.249626270839428
20
107.57274011755177
30
0
10
89.368894233627415
20
107.52843326537084
30
0
10
89.497611690248306
20
107.47033776576737
30
0
10
89.634959836896712
20
107.39285930012299
30
0
10
89.784816394135461
20
107.30192376364926
30
0
10
89.885978501632508
20
107.23214001009441
30
0
10
89.939049303915681
20
107.19553065231096
30
0
0
SPLINE
5
201
100
AcDbEntity
8
0
100
AcDbSpline
70
0
71
3
72
15
73
11
74
0
42
0.000000001
43
0.0000000001
44
0.0000000001
40
0
40
0
40
0
40
0
40
0.13352827374799806
40
0.25822132824949917
40
0.37862297758803831
40
0.49758111350277612
40
0.61612420079200902
40
0.73519760831380598
40
0.8621761319222262
40
1
40
1
40
1
40
1
10
88.332237448653714
20
106.99787509361593
30
0
10
88.334413426839532
20
107.04130793416938
30
0
10
88.338621404383261
20
107.1252997769646
30
0
10
88.368310095402705
20
107.24574116011911
30
0
10
88.419286922197259
20
107.35337461186123
30
0
10
88.488417082889995
20
107.4478651621661
30
0
10
88.575511568772612
20
107.52602404899649
30
0
10
88.681183867742405
20
107.58188930632322
30
0
10
88.802134233503253
20
107.61670444179261
30
0
10
88.888249759840946
20
107.62233093653235
30
0
10
88.933071012647019
20
107.62525940429964
30
0
0
SPLINE
5
202
100
AcDbEntity
8
0
100
AcDbSpline
70
0
71
3
72
11
73
7
74
0
42
0.000000001
43
0.0000000001
44
0.0000000001
40
0
40
0
40
0
40
0
40
0.25062603995062377
40
0.49758619672770171
40
0.74541698802371326
40
1
40
1
40
1
40
1
10
88.427623464541355
20
106.63599824983601
30
0
10
88.412356808592477
20
106.6637956560356
30
0
10
88.382046800614646
20
106.71898387842653
30
0
10
88.35159220382468
20
106.80860856588964
30
0
10
88.334615965089654
20
106.90214938401526
30
0
10
88.33303735938793
20
106.96568190735306
30
0
10
88.332237448653714
20
106.99787509361593
30
0
0
SPLINE
5
203
100
AcDbEntity
8
0
100
AcDbSpline
70
0
71
3
72
13
73
9
74
0
42
0.000000001
43
0.0000000001
44
0.0000000001
40
0
40
0
40
0
40
0
40
0.24422825509386614
40
0.49537023037829536
40
0.62032556781306747
40
0.74308741356774988
40
0.86887794780699346
40
1
40
1
40
1
40
1
10
89.267909270496176
20
106.35631463555656
30
0
10
89.192621158414497
20
106.35621119569541
30
0
10
89.039913645467976
20
106.35600138775231
30
0
10
88.849609150947629
20
106.37970917811896
30
0
10
88.700198030444497
20
106.41843598307828
30
0
10
88.596962773792782
20
106.47115051648903
30
4.4408920985006262e-15
10
88.503994177895436
20
106.54365004382666
30
4.4408920985006262e-15
10
88.453430141743965
20
106.60479256590224
30
4.4408920985006262e-15
10
88.427623464541355
20
106.63599824983601
30
0
0
LINE
5
204
100
AcDbEntity
8
0
100
AcDbLine
10
89.267909270496176
20
106.35631463555656
30
0
11
89.268397109736583
21
105.36352913067506
31
0
0
SPLINE
5
205
100
AcDbEntity
8
0
100
AcDbSpline
70
0
71
3
72
13
73
9
74
0
42
0.000000001
43
0.0000000001
44
0.0000000001
40
0
40
0
40
0
40
0
40
0.13199016953829487
40
0.25886859631123776
40
0.38148216860291723
40
0.50104083632405794
40
0.74217500525628954
40
1
40
1
40
1
40
1
10
88.21521749101835
20
105.57396838222098
30
0
10
88.258595146037194
20
105.55412884675118
30
0
10
88.343670517220346
20
105.51521812547166
30
0
10
88.47274947132972
20
105.46638181284216
30
0
10
88.601238351576512
20
105.43017328102044
30
0
10
88.772307467848123
20
105.39449087248605
30
0
10
88.994983957543766
20
105.37010679278231
30
0
10
89.175249355858938
20
105.36577004134868
30
0
10
89.268397109736583
20
105.36352913067505
30
0
0
SPLINE
5
206
100
AcDbEntity
8
0
100
AcDbSpline
70
0
71
3
72
19
73
15
74
0
42
0.000000001
43
0.0000000001
44
0.0000000001
40
0
40
0
40
0
40
0
40
0.08928598282244464
40
0.1736512511756845
40
0.25406842746697561
40
0.33050172629398528
40
0.40288184104438213
40
0.47226838735555965
40
0.53802435665422932
40
0.60167491595759159
40
0.71983812177840245
40
0.82512582113879507
40
0.91819555062167912
40
1
40
1
40
1
40
1
10
87.455079446882792
20
106.57404650755848
30
4.4408920985006262e-15
10
87.464822542523493
20
106.5365595620586
30
4.4408920985006262e-15
10
87.483771773912892
20
106.46365164546265
30
4.4408920985006262e-15
10
87.518441319301914
20
106.35895990073763
30
0
10
87.556948317584343
20
106.26165312624713
30
0
10
87.597701109074649
20
106.17089542709003
30
0
10
87.643228391102937
20
106.08780913747644
30
0
10
87.692228429406981
20
106.01223418730223
30
0
10
87.744471088668831
20
105.94347661072942
30
0
10
87.817904181834038
20
105.86498893549009
30
0
10
87.909131548232381
20
105.7800563479482
30
0
10
88.015209304913697
20
105.69288779242049
30
0
10
88.11515775343382
20
105.62307806823881
30
0
10
88.183328074302267
20
105.58961982484942
30
0
10
88.21521749101835
20
105.57396838222098
30
0
0
SPLINE
5
207
100
AcDbEntity
8
0
100
AcDbSpline
70
0
71
3
72
11
73
7
74
0
42
0.000000001
43
0.0000000001
44
0.0000000001
40
0
40
0
40
0
40
0
40
0.33151262580136726
40
0.60787657224935965
40
0.83201885409953036
40
1
40
1
40
1
40
1
10
87.407878119433235
20
107.03130936722603
30
0
10
87.410275994032745
20
106.9804887495869
30
0
10
87.414672845551479
20
106.88730176228768
30
0
10
87.423789322158214
20
106.75994216549239
30
0
10
87.436445678579929
20
106.65799333477493
30
0
10
87.449490987335764
20
106.59922302796895
30
4.4408920985006262e-15
10
87.455079446882792
20
106.57404650755848
30
4.4408920985006262e-15
0
SPLINE
5
208
100
AcDbEntity
8
0
100
AcDbSpline
70
0
71
3
72
15
73
11
74
0
42
0.000000001
43
0.0000000001
44
0.0000000001
40
0
40
0
40
0
40
0
40
0.16753059099655407
40
0.32411046026349782
40
0.46960357018531529
40
0.60725937653571471
40
0.73321006179339143
40
0.84008177607053958
40
0.92885028067799658
40
1
40
1
40
1
40
1
10
87.756971270362243
20
108.0854723469328
30
0
10
87.719572425766884
20
108.03436992993311
30
0
10
87.647219330949866
20
107.93550543124171
30
0
10
87.558891524843858
20
107.78106886291987
30
0
10
87.495106562926509
20
107.62719710189431
30
0
10
87.454338408251544
20
107.47768481509289
30
0
10
87.432317964549526
20
107.33935724880962
30
0
10
87.414594841473999
20
107.21920846594111
30
0
10
87.405213372799864
20
107.11863264688964
30
0
10
87.407057598973495
20
107.058197678737
30
0
10
87.407878119433235
20
107.03130936722603
30
0
0
SPLINE
5
209
100
AcDbEntity
8
0
100
AcDbSpline
70
0
71
3
72
19
73
15
74
0
42
0.000000001
43
0.0000000001
44
0.0000000001
40
0
40
0
40
0
40
0
40
0.088188896261464228
40
0.17225684364105279
40
0.25252817021092838
40
0.32916132932058589
40
0.40264442159781494
40
0.47243742239824527
40
0.54059986343305066
40
0.60594180082126692
40
0.7274139770506135
40
0.83337141736894371
40
0.92344544268735229
40
1
40
1
40
1
40
1
10
88.926187485727297
20
108.62435416864857
30
0
10
88.887157772899187
20
108.62241804297449
30
0
10
88.810922153393861
20
108.61863626418321
30
0
10
88.699547836339306
20
108.60707868159332
30
0
10
88.594246979445401
20
108.58913202344054
30
4.4408920985006262e-15
10
88.494530568978021
20
108.56697361770243
30
4.4408920985006262e-15
10
88.401269037720752
20
108.53841333529073
30
4.4408920985006262e-15
10
88.313761235046911
20
108.50478720709995
30
4.4408920985006262e-15
10
88.232312743251967
20
108.46596619814335
30
4.4408920985006262e-15
10
88.135668437449567
20
108.40730310465869
30
4.4408920985006262e-15
10
88.02797277984493
20
108.33479414734938
30
0
10
87.917034316493329
20
108.24830138466515
30
0
10
87.825873148925822
20
108.16850283546404
30
0
10
87.778661724777237
20
108.11161051709719
30
0
10
87.756971270362243
20
108.0854723469328
30
0
0
SPLINE
5
210
100
AcDbEntity
8
0
100
AcDbSpline
70
0
71
3
72
19
73
15
74
0
42
0.000000001
43
0.0000000001
44
0.0000000001
40
0
40
0
40
0
40
0
40
0.091635004245737214
40
0.17790214036910362
40
0.25937373514774753
40
0.33553363359471189
40
0.40684832410462363
40
0.47336692258989449
40
0.53469600240018245
40
0.59159164110885432
40
0.69808700859163086
40
0.80136865555300774
40
0.90109360630560476
40
0.99999999999999989
40
0.99999999999999989
40
0.99999999999999989
40
0.99999999999999989
10
90.622485190945724
20
107.84553226573088
30
0
10
90.576004765674227
20
107.88036325377342
30
0
10
90.485766682431631
20
107.94798487255265
30
0
10
90.353126428231064
20
108.04516369242153
30
0
10
90.225212277810428
20
108.13202285024353
30
0
10
90.104219769778979
20
108.21215720102749
30
0
10
89.989196282788484
20
108.28409899063169
30
0
10
89.88015977934694
20
108.34772586670778
30
0
10
89.777837216076705
20
108.40476756398058
30
4.4408920985006262e-15
10
89.649462113694526
20
108.46658213892908
30
4.4408920985006262e-15
10
89.492793397159147
20
108.53088396363952
30
4.4408920985006262e-15
10
89.303795127865811
20
108.58447968799908
30
4.4408920985006262e-15
10
89.114977000550766
20
108.61937495864213
30
0
10
88.988944197514996
20
108.6226989980868
30
0
10
88.926187485727297
20
108.62435416864857
30
0
0
SPLINE
5
211
100
AcDbEntity
8
0
100
AcDbSpline
70
0
71
3
72
9
73
5
74
0
42
0.000000001
43
0.0000000001
44
0.0000000001
40
0
40
0
40
0
40
0
40
0.49892879494290177
40
1
40
1
40
1
40
1
10
91.080731411601832
20
107.48267206096243
30
0
10
91.005257538166688
20
107.54394973732713
30
0
10
90.853985704990976
20
107.66676821761089
30
0
10
90.699762165650981
20
107.78585920244743
30
0
10
90.622485190945724
20
107.84553226573088
30
0
0
LWPOLYLINE
5
212
100
AcDbEntity
8
0
100
AcDbPolyline
90
11
70
1
43
0.0
10
88.065640902048926
20
117.85923662852467
10
85.169427680604713
20
119.9242409268887
10
85.169427680604713
20
120.76516822223837
10
88.11365753563058
20
120.76516822223837
10
88.11365753563058
20
121.36293838627716
10
88.937666988660951
20
121.36293838627716
10
88.937666988660951
20
120.76516822223837
10
89.944627680604697
20
120.76516822223837
10
89.944627680604668
20
119.88477204346225
10
88.937666988660936
20
119.88477204346225
10
88.937666988660951
20
117.85923662852467
0
SPLINE
5
213
100
AcDbEntity
8
0
100
AcDbSpline
70
0
71
3
72
23
73
19
74
0
42
0.000000001
43
0.0000000001
44
0.0000000001
40
0
40
0
40
0
40
0
40
0.041284079430822941
40
0.084120145872070853
40
0.12909512418727598
40
0.17634621138628151
40
0.22580035320771297
40
0.27800411384487039
40
0.33291036596939805
40
0.390842111582687
40
0.45218265604903546
40
0.51725650945097601
40
0.58628092196083192
40
0.65986085167064745
40
0.73815473413980059
40
0.82047833209598031
40
0.90771591712506661
40
1
40
1
40
1
40
1
10
74.14417523550172
20
95.500071803109194
30
0
10
74.165444864441739
20
95.476769162601755
30
0
10
74.20878370870679
20
95.429287868463305
30
0
10
74.282257443999185
20
95.363255070939701
30
0
10
74.364334723598503
20
95.300647858728439
30
0
10
74.453749018694694
20
95.239580735654556
30
0
10
74.551543127796478
20
95.181315981269634
30
0
10
74.658047861968299
20
95.126809107302748
30
0
10
74.772245169483284
20
95.073316651390741
30
0
10
74.895531607286657
20
95.023138372647864
30
0
10
75.028488065045835
20
94.976504149368253
30
0
10
75.172429644074484
20
94.936531635726396
30
0
10
75.327363216434932
20
94.90216508602802
30
0
10
75.493770880757779
20
94.873783809664317
30
0
10
75.67135783483748
20
94.851893567456074
30
0
10
75.859837410448023
20
94.833597840382168
30
0
10
76.059650893379697
20
94.823173849850377
30
0
10
76.196766560553201
20
94.820804153996008
30
0
10
76.267251609743226
20
94.819585999044762
30
0
0
SPLINE
5
214
100
AcDbEntity
8
0
100
AcDbSpline
70
0
71
3
72
15
73
11
74
0
42
0.000000001
43
0.0000000001
44
0.0000000001
40
0
40
0
40
0
40
0
40
0.17362416581077861
40
0.33055859227353984
40
0.472880508235059
40
0.60310448003323647
40
0.72153446838466595
40
0.82588600188660322
40
0.91884968109687803
40
1
40
1
40
1
40
1
10
73.722314331734779
20
96.613801106445521
30
-4.4408920985006262e-15
10
73.726320335623356
20
96.543351494996273
30
-4.4408920985006262e-15
10
73.733947263590807
20
96.40922428823248
30
0
10
73.764120585513581
20
96.219137176475158
30
0
10
73.809676683146549
20
96.05029817555554
30
0
10
73.87108331889489
20
95.903321135061248
30
0
10
73.940926009763089
20
95.777927752060322
30
0
10
74.007617029230246
20
95.668374287727289
30
0
10
74.073493842969583
20
95.576061710855697
30
0
10
74.121705124475085
20
95.52422952840007
30
0
10
74.14417523550172
20
95.500071803109194
30
0
0
LINE
5
215
100
AcDbEntity
8
0
100
AcDbLine
10
73.722314331734779
20
96.613801106445521
30
-4.4408920985006262e-15
11
73.72329673240985
21
96.613236442127885
31
-4.4408920985006262e-15
0
SPLINE
5
216
100
AcDbEntity
8
0
100
AcDbSpline
70
0
71
3
72
15
73
11
74
0
42
0.000000001
43
0.0000000001
44
0.0000000001
40
0
40
0
40
0
40
0
40
0.16667320459622761
40
0.32326102298623643
40
0.47068025609032194
40
0.60899186860521959
40
0.73508901034952523
40
0.84176024724323595
40
0.93040812816828211
40
1
40
1
40
1
40
1
10
73.917018847150729
20
97.41467564778182
30
0
10
73.896175805736206
20
97.373300504934434
30
0
10
73.855750934167162
20
97.293053826798953
30
0
10
73.805439082495297
20
97.172041304204257
30
0
10
73.771448839094802
20
97.05366653976553
30
0
10
73.749092130824224
20
96.941301949598341
30
0
10
73.736222502888296
20
96.838907628752636
30
0
10
73.727576794359805
20
96.750038429474699
30
0
10
73.721079388561137
20
96.676572922597487
30
-4.4408920985006262e-15
10
73.722619437898146
20
96.632582765269262
30
-4.4408920985006262e-15
10
73.72329673240985
20
96.613236442127885
30
-4.4408920985006262e-15
0
SPLINE
5
217
100
AcDbEntity
8
0
100
AcDbSpline
70
0
71
3
72
23
73
19
74
0
42
0.000000001
43
0.0000000001
44
0.0000000001
40
0
40
0
40
0
40
0
40
0.090971912459988924
40
0.17725319019404928
40
0.25907286930200618
40
0.33591227411425073
40
0.40806250563182728
40
0.47661708485741316
40
0.54095161785106061
40
0.60138605938258638
40
0.65895225945226232
40
0.71358203309001145
40
0.76648914221243658
40
0.81688264326348048
40
0.86494653187061343
40
0.9112615460769331
40
0.95635920525595219
40
1
40
1
40
1
40
1
10
75.701819041337075
20
98.364602362704147
30
0
10
75.638815460979828
20
98.355537723082747
30
0
10
75.516056849997767
20
98.337875828906817
30
0
10
75.337773039719295
20
98.304717091977636
30
0
10
75.170999222217716
20
98.265096062006137
30
0
10
75.015191170670576
20
98.222431325127445
30
0
10
74.870847820542139
20
98.173895159258549
30
0
10
74.737296779683902
20
98.121335956025177
30
0
10
74.614804772552446
20
98.063623610723312
30
0
10
74.504248372677353
20
97.999762240464349
30
0
10
74.402882284621199
20
97.934007202914358
30
0
10
74.309612877069952
20
97.86572410775679
30
0
10
74.224607490715485
20
97.795058068848817
30
0
10
74.14633650434385
20
97.723622388026854
30
0
10
74.077143879505158
20
97.649467928098971
30
0
10
74.016172966258253
20
97.573239987866685
30
0
10
73.961149874967504
20
97.496199156898413
30
0
10
73.931567299012997
20
97.44155108909149
30
0
10
73.917018847150729
20
97.41467564778182
30
0
0
SPLINE
5
218
100
AcDbEntity
8
0
100
AcDbSpline
70
0
71
3
72
9
73
5
74
0
42
0.000000001
43
0.0000000001
44
0.0000000001
40
0
40
0
40
0
40
0
40
0.50425717218372801
40
1
40
1
40
1
40
1
10
76.274135136662949
20
98.399019997302787
30
0
10
76.177678683713111
20
98.397511775080417
30
0
10
75.986394437755592
20
98.394520796854295
30
0
10
75.796137535882977
20
98.374518405003386
30
0
10
75.701819041337075
20
98.364602362704147
30
0
0
SPLINE
5
219
100
AcDbEntity
8
0
100
AcDbSpline
70
0
71
3
72
19
73
15
74
0
42
0.000000001
43
0.0000000001
44
0.0000000001
40
0
40
0
40
0
40
0
40
0.16024947124199984
40
0.31602767992350667
40
0.46716047481651807
40
0.61545190968555041
40
0.68623687429953872
40
0.74995734425500538
40
0.80775774597749206
40
0.85912963637337836
40
0.90398199602729556
40
0.94241220976209905
40
0.9744038277095064
40
1
40
1
40
1
40
1
10
77.77179392219783
20
98.10302833975453
30
0
10
77.695817414151747
20
98.134235143098479
30
0
10
77.545984285964778
20
98.19577802110102
30
0
10
77.317634976079518
20
98.268635849947287
30
0
10
77.090333842287066
20
98.32181579658986
30
0
10
76.902770137898173
20
98.351574758971196
30
0
10
76.758553090258289
20
98.365752887089428
30
0
10
76.660732449083312
20
98.377779319208258
30
0
10
76.572397822079836
20
98.384640987706561
30
0
10
76.493854693952983
20
98.392549786171202
30
0
10
76.424916298784751
20
98.395791138876007
30
0
10
76.365951950269462
20
98.399158603228983
30
0
10
76.316741749652024
20
98.400467803650912
30
0
10
76.287245430686397
20
98.399465495444531
30
0
10
76.274135136662949
20
98.399019997302787
30
0
0
SPLINE
5
220
100
AcDbEntity
8
0
100
AcDbSpline
70
0
71
3
72
13
73
9
74
0
42
0.000000001
43
0.0000000001
44
0.0000000001
40
0
40
0
40
0
40
0
40
0.07414000593426498
40
0.16251978715995735
40
0.26917521546770906
40
0.39023635104820886
40
0.67435100296314765
40
1
40
1
40
1
40
1
10
78.221189893957146
20
97.800153155286552
30
0
10
78.211422555522603
20
97.809403598184019
30
0
10
78.190011904909639
20
97.82968117965828
30
0
10
78.152967993595098
20
97.861537378019705
30
0
10
78.108058876949201
20
97.89721264169674
30
0
10
78.034977642513439
20
97.954491082074938
30
0
10
77.924423227800204
20
98.028458125166296
30
0
10
77.824929381185882
20
98.077067908608313
30
0
10
77.77179392219783
20
98.10302833975453
30
0
0
SPLINE
5
221
100
AcDbEntity
8
0
100
AcDbSpline
70
0
71
3
72
15
73
11
74
0
42
0.000000001
43
0.0000000001
44
0.0000000001
40
0
40
0
40
0
40
0
40
0.16915695038258327
40
0.32617312099826401
40
0.4729870759012833
40
0.60888666907093469
40
0.73248230861138397
40
0.83818018028309182
40
0.92731702253010606
40
1
40
1
40
1
40
1
10
78.583066737737084
20
97.344857017596027
30
0
10
78.567360065373578
20
97.373908972774501
30
0
10
78.537074024311011
20
97.429927758111049
30
0
10
78.487415634232406
20
97.507817864389096
30
0
10
78.437832067712549
20
97.577957214834981
30
0
10
78.386481003477058
20
97.638496070663365
30
0
10
78.337770223601197
20
97.690527848689158
30
0
10
78.294708038601357
20
97.735366112827947
30
0
10
78.256307572160722
20
97.770795861064698
30
0
10
78.232074443925356
20
97.791054007727951
30
0
10
78.221189893957146
20
97.800153155286552
30
0
0
SPLINE
5
222
100
AcDbEntity
8
0
100
AcDbSpline
70
0
71
3
72
9
73
5
74
0
42
0.000000001
43
0.0000000001
44
0.0000000001
40
0
40
0
40
0
40
0
40
0.49923048164595824
40
1
40
1
40
1
40
1
10
78.703036778338031
20
96.982980173816102
30
0
10
78.687938200267197
20
97.044812780665296
30
0
10
78.657694497957479
20
97.168668613036218
30
0
10
78.607968168026247
20
97.286067322435002
30
0
10
78.583066737737084
20
97.344857017596027
30
0
0
SPLINE
5
223
100
AcDbEntity
8
0
100
AcDbSpline
70
0
71
3
72
11
73
7
74
0
42
0.000000001
43
0.0000000001
44
0.0000000001
40
0
40
0
40
0
40
0
40
0.32666743153703465
40
0.60253830923788765
40
0.82590692599404569
40
0.99999999999999989
40
0.99999999999999989
40
0.99999999999999989
40
0.99999999999999989
10
78.74925474479906
20
96.564068392701273
30
0
10
78.746883945192423
20
96.609977677191239
30
0
10
78.742511003635926
20
96.694657385005229
30
0
10
78.732998461023911
20
96.810461653803685
30
0
10
78.721535116188349
20
96.904662009438539
30
0
10
78.708671290897243
20
96.959124804519107
30
0
10
78.703036778338031
20
96.982980173816102
30
0
0
SPLINE
5
224
100
AcDbEntity
8
0
100
AcDbSpline
70
0
71
3
72
19
73
15
74
0
42
0.000000001
43
0.0000000001
44
0.0000000001
40
0
40
0
40
0
40
0
40
0.12831012129769562
40
0.252233782248865
40
0.37419269903746066
40
0.49506557925117389
40
0.55571334115286808
40
0.61686529596897977
40
0.67805071592157218
40
0.73976081798460369
40
0.80267274225020313
40
0.86710903481778689
40
0.93278818112093365
40
1
40
1
40
1
40
1
10
77.940932012225403
20
95.180479481836159
30
0
10
78.002343622152182
20
95.218251946581219
30
0
10
78.123067400519446
20
95.292505571713406
30
0
10
78.283264904558678
20
95.429526049892189
30
0
10
78.4230664485966
20
95.581191566428231
30
0
10
78.520655928563599
20
95.721555021065086
30
0
10
78.58615833223665
20
95.841037242494849
30
0
10
78.629558387763325
20
95.934216427302417
30
0
10
78.66568953668704
20
96.031055291955994
30
0
10
78.696671439430133
20
96.130695900795473
30
0
10
78.720145192424553
20
96.234274839577623
30
0
10
78.736749677946733
20
96.341391014596311
30
0
10
78.746581304005517
20
96.451784572234644
30
0
10
78.748356772193418
20
96.526353775987403
30
0
10
78.74925474479906
20
96.564068392701273
30
0
0
SPLINE
5
225
100
AcDbEntity
8
0
100
AcDbSpline
70
0
71
3
72
19
73
15
74
0
42
0.000000001
43
0.0000000001
44
0.0000000001
40
0
40
0
40
0
40
0
40
0.028451586302629693
40
0.062570946888581627
40
0.10238758186812003
40
0.14796249913984491
40
0.19928897923174554
40
0.25637649313172484
40
0.31979768822292676
40
0.38842613890966071
40
0.53368394330640512
40
0.68359216860786443
40
0.83845506354184685
40
1
40
1
40
1
40
1
10
76.267251609743226
20
94.819585999044762
30
0
10
76.283638380634301
20
94.818708151119552
30
0
10
76.319676292903736
20
94.816777581227228
30
0
10
76.378707937926947
20
94.818895866469461
30
0
10
76.447598002478884
20
94.820037384984147
30
0
10
76.526243715639652
20
94.825665726589676
30
0
10
76.6147545151548
20
94.832416107933369
30
0
10
76.713415682153027
20
94.84140646593174
30
0
10
76.821905572411964
20
94.852315114780509
30
0
10
76.98095626639109
20
94.868510530226899
30
0
10
77.188211283951688
20
94.902732598292971
30
0
10
77.439340741122294
20
94.969157150684936
30
0
10
77.692656548871227
20
95.060633252739123
30
0
10
77.857016515445125
20
95.139972233491704
30
0
10
77.940932012225403
20
95.180479481836159
30
0
0
SPLINE
5
226
100
AcDbEntity
8
0
100
AcDbSpline
70
0
71
3
72
11
73
7
74
0
42
0.000000001
43
0.0000000001
44
0.0000000001
40
0
40
0
40
0
40
0
40
0.24967963834871498
40
0.49648942072208335
40
0.74377245362206978
40
0.99999999999999989
40
0.99999999999999989
40
0.99999999999999989
40
0.99999999999999989
10
72.603512837544912
20
97.405834554693499
30
0
10
72.638229493416915
20
97.406436351542055
30
0
10
72.707263766605109
20
97.407633028094054
30
0
10
72.810411267410728
20
97.415093630442328
30
0
10
72.91396599562033
20
97.430732180247929
30
0
10
72.980378573909263
20
97.453279198222788
30
0
10
73.01417474956861
20
97.464752973216974
30
0
0
LINE
5
227
100
AcDbEntity
8
0
100
AcDbLine
10
72.603512837544912
20
97.405834554693499
30
0
11
71.212113881155815
21
97.405834554693499
31
2.7917631787748205e-31
0
LINE
5
228
100
AcDbEntity
8
0
100
AcDbLine
10
71.212113881155815
20
97.405834554693499
30
2.7917631787748205e-31
11
71.212113881155815
21
97.873496383258868
31
0
0
LINE
5
229
100
AcDbEntity
8
0
100
AcDbLine
10
71.212113881155815
20
97.873496383258868
30
0
11
72.587940067475358
21
97.873496383258868
31
-3.673416226097252e-31
0
SPLINE
5
230
100
AcDbEntity
8
0
100
AcDbSpline
70
0
71
3
72
13
73
9
74
0
42
0.000000001
43
0.0000000001
44
0.0000000001
40
0
40
0
40
0
40
0
40
0.1324915170313504
40
0.26007590191297242
40
0.38275607642292175
40
0.50317247469224602
40
0.7469970977019853
40
1
40
1
40
1
40
1
10
72.912449193691046
20
97.955889480553367
30
0
10
72.900240798900711
20
97.946947650613026
30
0
10
72.876276175676864
20
97.929395172246174
30
0
10
72.837271039962317
20
97.909511032983275
30
0
10
72.797951853948859
20
97.893693916062887
30
0
10
72.743654702599457
20
97.881353437286833
30
0
10
72.673478191713642
20
97.873814848502136
30
0
10
72.616801784595211
20
97.873603837728382
30
0
10
72.587940067475358
20
97.873496383258868
30
0
0
SPLINE
5
231
100
AcDbEntity
8
0
100
AcDbSpline
70
0
71
3
72
15
73
11
74
0
42
0.000000001
43
0.0000000001
44
0.0000000001
40
0
40
0
40
0
40
0
40
0.17558084252663897
40
0.33313225312249656
40
0.47560230411028076
40
0.60504503898744177
40
0.72244060165792756
40
0.82607862280426836
40
0.91850183529871376
40
1
40
1
40
1
40
1
10
73.068029455621414
20
98.331951829657228
30
0
10
73.067000862922754
20
98.307359144330576
30
0
10
73.065049298057701
20
98.260699061400686
30
0
10
73.054465782411071
20
98.194755116718468
30
0
10
73.038210175353328
20
98.136652537359623
30
0
10
73.015922324530138
20
98.086669094375935
30
0
10
72.990395615859399
20
98.044618327840425
30
0
10
72.964874804459782
20
98.008910378413134
30
0
10
72.940150727927772
20
97.978660587196998
30
0
10
72.921288079638998
20
97.963155186951113
30
0
10
72.912449193691046
20
97.955889480553367
30
0
0
SPLINE
5
232
100
AcDbEntity
8
0
100
AcDbSpline
70
0
71
3
72
19
73
15
74
0
42
0.000000001
43
0.0000000001
44
0.0000000001
40
0
40
0
40
0
40
0
40
0.08531707554001465
40
0.17867538518756529
40
0.2807236195621956
40
0.3952524133228511
40
0.45585607921186738
40
0.51992354847806432
40
0.58726605411382127
40
0.65765879911927039
40
0.73510168823387101
40
0.8169823423792052
40
0.90484789145723898
40
1
40
1
40
1
40
1
10
72.788169102799941
20
98.740695239699136
30
0
10
72.803088602969069
20
98.737102833454571
30
0
10
72.834333783639551
20
98.729579432477252
30
0
10
72.879496323689906
20
98.706383812563999
30
0
10
72.924969280070485
20
98.674320170367139
30
0
10
72.962394330584843
20
98.641387993899656
30
0
10
72.991274100755973
20
98.609536174689168
30
-4.4408920985006262e-15
10
73.010438140770219
20
98.580795369320128
30
-4.4408920985006262e-15
10
73.027093694488684
20
98.548565363780568
30
-4.4408920985006262e-15
10
73.040281840614668
20
98.512232204568221
30
-4.4408920985006262e-15
10
73.051902814190498
20
98.47266343809288
30
-4.4408920985006262e-15
10
73.059943448579972
20
98.429001797606603
30
0
10
73.065441792735044
20
98.381783483464488
30
0
10
73.067144307018708
20
98.348997488491136
30
0
10
73.068029455621414
20
98.331951829657228
30
0
0
SPLINE
5
233
100
AcDbEntity
8
0
100
AcDbSpline
70
0
71
3
72
11
73
7
74
0
42
0.000000001
43
0.0000000001
44
0.0000000001
40
0
40
0
40
0
40
0
40
0.33196524883070311
40
0.59471931540764578
40
0.80935201962879921
40
1
40
1
40
1
40
1
10
72.603512837544912
20
98.760947392531193
30
0
10
72.624106249928019
20
98.760147330461649
30
0
10
72.660999569808723
20
98.75871401065497
30
0
10
72.711106381100336
20
98.755187962110767
30
0
10
72.752352394668122
20
98.750087246267213
30
0
10
72.776710712777216
20
98.743699906514323
30
0
10
72.788169102799941
20
98.740695239699136
30
0
0
LINE
5
234
100
AcDbEntity
8
0
100
AcDbLine
10
72.603512837544912
20
98.760947392531193
30
0
11
71.212113881155815
21
98.760947392531193
31
2.7917631787748205e-31
0
LINE
5
235
100
AcDbEntity
8
0
100
AcDbLine
10
71.212113881155815
20
98.760947392531193
30
2.7917631787748205e-31
11
71.212113881155815
21
99.228609221096576
31
0
0
LINE
5
236
100
AcDbEntity
8
0
100
AcDbLine
10
71.212113881155815
20
99.228609221096576
30
0
11
72.451231967495133
21
99.228149373972059
31
-2.3580604756591219e-31
0
SPLINE
5
237
100
AcDbEntity
8
0
100
AcDbSpline
70
0
71
3
72
15
73
11
74
0
42
0.000000001
43
0.0000000001
44
0.0000000001
40
0
40
0
40
0
40
0
40
0.12918631464111199
40
0.2548939470474107
40
0.37882641264614147
40
0.50169858202590767
40
0.62499943817376635
40
0.74901200257435663
40
0.8739443498581565
40
1
40
1
40
1
40
1
10
73.160549078840361
20
99.072569112041705
30
0
10
73.13343210329586
20
99.089173226874365
30
0
10
73.079928348291091
20
99.121934346956522
30
0
10
72.994380594531094
20
99.159391126644891
30
0
10
72.907208512925308
20
99.188088667551511
30
0
10
72.817655484391935
20
99.205253817252839
30
0
10
72.727291598616972
20
99.216265993475673
30
0
10
72.636089450188138
20
99.224169696643131
30
0
10
72.543947775496434
20
99.228466941952576
30
0
10
72.482229310989524
20
99.228255545335799
30
0
10
72.451231967495119
20
99.228149373972073
30
0
0
SPLINE
5
238
100
AcDbEntity
8
0
100
AcDbSpline
70
0
71
3
72
23
73
19
74
0
42
0.000000001
43
0.0000000001
44
0.0000000001
40
0
40
0
40
0
40
0
40
0.03283271070174159
40
0.07040241879998832
40
0.11283654397977382
40
0.15974558979429679
40
0.2116627054493446
40
0.26871972628988505
40
0.33085847640590482
40
0.39770205514843421
40
0.4671627038375572
40
0.53739244606515091
40
0.60861312961257275
40
0.68094665805956933
40
0.75596123465029152
40
0.83420339234810659
40
0.91540746548763807
40
1
40
1
40
1
40
1
10
73.506231850170849
20
98.31215907444124
30
0
10
73.506852971684239
20
98.321669235036666
30
0
10
73.508184828115731
20
98.342061651464832
30
0
10
73.506763962316271
20
98.374803613551308
30
0
10
73.504208607309707
20
98.411532504136986
30
0
10
73.498782695692938
20
98.452166895856379
30
0
10
73.492039316468862
20
98.496882106948348
30
-4.4408920985006262e-15
10
73.48256853998366
20
98.545616007139301
30
-4.4408920985006262e-15
10
73.471637575199352
20
98.598463964051149
30
-4.4408920985006262e-15
10
73.458622806415633
20
98.654538566603591
30
0
10
73.442346433367959
20
98.712270176246847
30
0
10
73.419148361080531
20
98.769035268878369
30
0
10
73.38985783207886
20
98.823780701176673
30
0
10
73.35562008076667
20
98.877231424000882
30
0
10
73.31529209327131
20
98.928883896786715
30
0
10
73.269161782189428
20
98.978932648949666
30
0
10
73.21755289659545
20
99.027514932836709
30
0
10
73.179807491481995
20
99.05734781619644
30
0
10
73.160549078840361
20
99.072569112041705
30
0
0
SPLINE
5
239
100
AcDbEntity
8
0
100
AcDbSpline
70
0
71
3
72
23
73
19
74
0
42
0.000000001
43
0.0000000001
44
0.0000000001
40
0
40
0
40
0
40
0
40
0.064926066427729315
40
0.12788908095572121
40
0.18977894738678777
40
0.25025120352324592
40
0.31074757300796285
40
0.37087961004277753
40
0.43204252503097129
40
0.49423486459795374
40
0.55716080570887649
40
0.61931404780574328
40
0.68192863731556697
40
0.74439397397884699
40
0.80692154262435045
40
0.8705955403563439
40
0.93472146153812696
40
1
40
1
40
1
40
1
10
73.01417474956861
20
97.464752973216974
30
0
10
73.034885348579934
20
97.473794798840771
30
0
10
73.075680357723897
20
97.491605068780331
30
0
10
73.133614732461325
20
97.523519147722851
30
0
10
73.186974910838984
20
97.559890071376259
30
0
10
73.236136968224699
20
97.600372313529505
30
0
10
73.281513217766161
20
97.644262336561866
30
0
10
73.32156193377584
20
97.693344665280392
30
0
10
73.358275663664784
20
97.745679714375427
30
0
10
73.389565885617401
20
97.802547065556681
30
0
10
73.417469818643411
20
97.861458905677168
30
0
10
73.441579021015826
20
97.922205095111678
30
0
10
73.461698148818769
20
97.984205440629182
30
0
10
73.47831774722124
20
98.047365244936273
30
0
10
73.491291502825376
20
98.11175331041396
30
0
10
73.500503428165842
20
98.177369668419217
30
0
10
73.505625604396428
20
98.244410952245545
30
0
10
73.506028571823549
20
98.289442666519093
30
0
10
73.506231850170849
20
98.31215907444124
30
0
0
LINE
5
240
100
AcDbEntity
8
0
100
AcDbLine
10
73.447313881155793
20
100.08292022132322
30
0
11
73.447313881155793
21
99.615258392757823
31
0
0
LINE
5
241
100
AcDbEntity
8
0
100
AcDbLine
10
73.447313881155793
20
99.615258392757823
30
0
11
71.212113881155801
21
99.615258392757823
31
7.6729386668769093e-31
0
LINE
5
242
100
AcDbEntity
8
0
100
AcDbLine
10
71.212113881155801
20
99.615258392757823
30
7.6729386668769093e-31
11
71.212573728280319
21
100.20259734588504
31
0
0
SPLINE
5
243
100
AcDbEntity
8
0
100
AcDbSpline
70
0
71
3
72
9
73
5
74
0
42
0.000000001
43
0.0000000001
44
0.0000000001
40
0
40
0
40
0
40
0
40
0.50130878794332301
40
1
40
1
40
1
40
1
10
71.215335508077885
20
100.39362044855102
30
-4.4408920985006262e-15
10
71.214184164064875
20
100.36170987611158
30
-4.4408920985006262e-15
10
71.211887487763363
20
100.2980553517807
30
0
10
71.21234538096472
20
100.23436110634327
30
0
10
71.212573728280304
20
100.20259734588504
30
0
0
SPLINE
5
244
100
AcDbEntity
8
0
100
AcDbSpline
70
0
71
3
72
15
73
11
74
0
42
0.000000001
43
0.0000000001
44
0.0000000001
40
0
40
0
40
0
40
0
40
0.12854479723494183
40
0.25131763580772304
40
0.37180845845096439
40
0.49144347582552173
40
0.6135137187249613
40
0.73791176180988727
40
0.86674197765621797
40
1
40
1
40
1
40
1
10
71.473101622518726
20
100.99200607136011
30
0
10
71.45073286532218
20
100.97359874743894
30
0
10
71.406999759856092
20
100.93761063100854
30
0
10
71.352162592322642
20
100.87387953211577
30
0
10
71.308001404275302
20
100.8048851400949
30
0
10
71.274703252533683
20
100.73016734276908
30
0
10
71.25111014659889
20
100.65110445679639
30
0
10
71.232505523645187
20
100.56868641269185
30
-4.4408920985006262e-15
10
71.219810673538703
20
100.48250872725407
30
-4.4408920985006262e-15
10
71.216843936912298
20
100.42358171899156
30
-4.4408920985006262e-15
10
71.215335508077885
20
100.39362044855102
30
-4.4408920985006262e-15
0
SPLINE
5
245
100
AcDbEntity
8
0
100
AcDbSpline
70
0
71
3
72
15
73
11
74
0
42
0.000000001
43
0.0000000001
44
0.0000000001
40
0
40
0
40
0
40
0
40
0.17857180374989504
40
0.33946715511845621
40
0.4844575440591895
40
0.61522915216269281
40
0.73222210004866084
40
0.83413994068134012
40
0.92328134640350701
40
0.99999999999999989
40
0.99999999999999989
40
0.99999999999999989
40
0.99999999999999989
10
71.894733338282663
20
101.11352438245363
30
0
10
71.868160336710091
20
101.11270591853338
30
0
10
71.817644739861223
20
101.11115000873829
30
0
10
71.746005576118279
20
101.10260156352723
30
0
10
71.681963273320562
20
101.09095340492209
30
0
10
71.626200368192741
20
101.07302939927386
30
0
10
71.578048031162297
20
101.05320452712209
30
0
10
71.536790677816214
20
101.03325064513339
30
0
10
71.501725831354563
20
101.01407728414129
30
0
10
71.482154398567204
20
100.99898637770053
30
0
10
71.473101622518726
20
100.99200607136011
30
0
0
SPLINE
5
246
100
AcDbEntity
8
0
100
AcDbSpline
70
0
71
3
72
15
73
11
74
0
42
0.000000001
43
0.0000000001
44
0.0000000001
40
0
40
0
40
0
40
0
40
0.16376283965347718
40
0.3151696624194017
40
0.45600536977106743
40
0.58996219317280885
40
0.71349919173729381
40
0.82295427269725863
40
0.91767605091083815
40
1
40
1
40
1
40
1
10
72.417170016658304
20
100.91099386396439
30
0
10
72.393903191230976
20
100.93219839804786
30
0
10
72.349125038073538
20
100.97300756979266
30
0
10
72.276055120527175
20
101.02168907966451
30
0
10
72.203394280754779
20
101.05983972199788
30
0
10
72.130349127713174
20
101.08353873868326
30
0
10
72.061296545604407
20
101.09760844297588
30
0
10
71.999388752442272
20
101.1088025197333
30
0
10
71.944550542273817
20
101.11446460405202
30
0
10
71.910545321480484
20
101.113822808839
30
0
10
71.894733338282663
20
101.11352438245363
30
0
0
SPLINE
5
247
100
AcDbEntity
8
0
100
AcDbSpline
70
0
71
3
72
15
73
11
74
0
42
0.000000001
43
0.0000000001
44
0.0000000001
40
0
40
0
40
0
40
0
40
0.1286892977841185
40
0.25665854058053639
40
0.3816959342952852
40
0.50606614773395719
40
0.62806465377589449
40
0.74885191772237758
40
0.87203075720358092
40
0.99999999999999989
40
0.99999999999999989
40
0.99999999999999989
40
0.99999999999999989
10
72.593003779946017
20
100.24804849182786
30
0
10
72.593648581011422
20
100.27831630051412
30
0
10
72.594934575288036
20
100.33868256047325
30
0
10
72.590847263322644
20
100.42841765915324
30
-4.4408920985006262e-15
10
72.583457718517025
20
100.51688295024314
30
-4.4408920985006262e-15
10
72.572820652261299
20
100.60359660136369
30
0
10
72.554215623132549
20
100.68829852364021
30
0
10
72.520283367050126
20
100.76778293509641
30
0
10
72.475786979373083
20
100.84357123467888
30
0
10
72.436955892527124
20
100.88823567739162
30
0
10
72.417170016658304
20
100.91099386396439
30
0
0
LINE
5
248
100
AcDbEntity
8
0
100
AcDbLine
10
72.593003779946017
20
100.24804849182786
30
0
11
72.593003779946017
21
100.08292022132322
31
0
0
LINE
5
249
100
AcDbEntity
8
0
100
AcDbLine
10
72.593003779946017
20
100.08292022132322
30
0
11
73.447313881155793
21
100.08292022132322
31
0
0
LINE
5
250
100
AcDbEntity
8
0
100
AcDbLine
10
81.340319728070227
20
97.84213471001037
30
0
11
81.340319728070227
21
97.314535876817772
31
0
0
LINE
5
251
100
AcDbEntity
8
0
100
AcDbLine
10
81.340319728070227
20
97.314535876817772
30
0
11
79.105119728070235
21
97.314535876817772
31
7.6729386668769093e-31
0
LINE
5
252
100
AcDbEntity
8
0
100
AcDbLine
10
79.105119728070235
20
97.314535876817772
30
7.6729386668769093e-31
11
79.105579575194753
21
97.770690289559909
31
0
0
SPLINE
5
253
100
AcDbEntity
8
0
100
AcDbSpline
70
0
71
3
72
13
73
9
74
0
42
0.000000001
43
0.0000000001
44
0.0000000001
40
0
40
0
40
0
40
0
40
0.12722215996171859
40
0.25266717707614
40
0.37740438794084874
40
0.50114770152885413
40
0.74974726402159131
40
0.99999999999999989
40
0.99999999999999989
40
0.99999999999999989
40
0.99999999999999989
10
79.22249491995899
20
98.574828507288743
30
0
10
79.20989630729521
20
98.54246890157718
30
0
10
79.184875069660251
20
98.478201715507566
30
0
10
79.155940392874427
20
98.379237230596715
30
0
10
79.134683597983653
20
98.279345165863532
30
0
10
79.116999991839819
20
98.144791727053601
30
0
10
79.105577449886795
20
97.975117273414426
30
0
10
79.105578865195355
20
97.838982998412135
30
0
10
79.105579575194753
20
97.770690289559909
30
0
0
SPLINE
5
254
100
AcDbEntity
8
0
100
AcDbSpline
70
0
71
3
72
15
73
11
74
0
42
0.000000001
43
0.0000000001
44
0.0000000001
40
0
40
0
40
0
40
0
40
0.080302024667470578
40
0.17300515572704925
40
0.27793069264390291
40
0.39609508940039484
40
0.52587674227684467
40
0.66934615233731165
40
0.8267676663310376
40
1
40
1
40
1
40
1
10
79.584288073442025
20
98.97206450150739
30
0
10
79.571425485094693
20
98.965065374725214
30
0
10
79.543713928514435
20
98.949986240370663
30
0
10
79.502052614292111
20
98.9210151906737
30
0
10
79.456979607484584
20
98.885213884033121
30
0
10
79.408174667181726
20
98.843310988504399
30
0
10
79.357615024891388
20
98.79274078766727
30
0
10
79.310374456795003
20
98.729833590864928
30
0
10
79.263969183349502
20
98.656821976115125
30
0
10
79.236753464250384
20
98.603017254026895
30
-4.4408920985006262e-15
10
79.22249491995899
20
98.574828507288743
30
0
0
SPLINE
5
255
100
AcDbEntity
8
0
100
AcDbSpline
70
0
71
3
72
15
73
11
74
0
42
0.000000001
43
0.0000000001
44
0.0000000001
40
0
40
0
40
0
40
0
40
0.078700530067297284
40
0.1705016320475464
40
0.27708146459281002
40
0.39729070410500694
40
0.53022402999546769
40
0.67433830273914119
40
0.83009182344414778
40
0.99999999999999989
40
0.99999999999999989
40
0.99999999999999989
40
0.99999999999999989
10
80.198784078403662
20
99.134088916298779
30
0
10
80.181899778518414
20
99.134534677427325
30
0
10
80.145320600665983
20
99.135500401544476
30
0
10
80.086030546131838
20
99.130380602526614
30
0
10
80.018162707645203
20
99.122640417852523
30
0
10
79.941844773237122
20
99.111099653031431
30
0
10
79.858649591257461
20
99.092132557711622
30
0
10
79.770694165184679
20
99.06207018739218
30
0
10
79.678008585952028
20
99.022274878937537
30
0
10
79.616420537959726
20
98.989279336637779
30
0
10
79.584288073442025
20
98.97206450150739
30
0
0
SPLINE
5
256
100
AcDbEntity
8
0
100
AcDbSpline
70
0
71
3
72
23
73
19
74
0
42
0.000000001
43
0.0000000001
44
0.0000000001
40
0
40
0
40
0
40
0
40
0.037478662415578366
40
0.07809182314297497
40
0.12175282995973648
40
0.16833856237490241
40
0.21868737034287555
40
0.27248884832046621
40
0.33031368189854898
40
0.39173596653911852
40
0.45615590459398397
40
0.52331175581323375
40
0.59350578252600183
40
0.66720071637230227
40
0.74439173791112778
40
0.82531661809366597
40
0.91057834943288241
40
1
40
1
40
1
40
1
10
81.135487726416358
20
98.738233811978915
30
0
10
81.127675142833269
20
98.748799925941171
30
0
10
81.111396576413384
20
98.770815842456557
30
0
10
81.082647996977613
20
98.80244565233285
30
0
10
81.049383843937875
20
98.834038335353895
30
0
10
81.011949317994009
20
98.866135590360088
30
0
10
80.96937261902967
20
98.897443324013437
30
0
10
80.922911807672733
20
98.93008484429626
30
0
10
80.871175319159761
20
98.961771821334395
30
0
10
80.815918374300239
20
98.994776242211572
30
0
10
80.755806532149009
20
99.025986690898208
30
0
10
80.69004952083759
20
99.0521804378387
30
0
10
80.619994024985999
20
99.076039983287743
30
0
10
80.544799358886522
20
99.095006935590504
30
0
10
80.465048565089162
20
99.110618855628303
30
0
10
80.380564599156116
20
99.122655579895635
30
0
10
80.291264730835991
20
99.130236565903814
30
0
10
80.230096516900474
20
99.132784573372561
30
0
10
80.198784078403662
20
99.134088916298779
30
0
0
SPLINE
5
257
100
AcDbEntity
8
0
100
AcDbSpline
70
0
71
3
72
19
73
15
74
0
42
0.000000001
43
0.0000000001
44
0.0000000001
40
0
40
0
40
0
40
0
40
0.12717329988415935
40
0.25307243611291008
40
0.37836011851845236
40
0.50221713543732782
40
0.56362088294254908
40
0.62535997429597256
40
0.68660029060682204
40
0.74802763074130929
40
0.80984880899150458
40
0.87249265019427569
40
0.93553230649631547
40
1
40
1
40
1
40
1
10
81.340319728070227
20
97.84213471001037
30
0
10
81.340818196406445
20
97.881842479278802
30
0
10
81.341810138868311
20
97.960860181190483
30
0
10
81.337164800621608
20
98.078967757340365
30
0
10
81.32673427025648
20
98.195626516556416
30
0
10
81.314923389465946
20
98.291892752880841
30
0
10
81.301869073339503
20
98.367940767076632
30
0
10
81.287955220362917
20
98.423851806336472
30
0
10
81.270874590880467
20
98.478866612443113
30
0
10
81.250544297198786
20
98.532793755042164
30
0
10
81.227107763140154
20
98.585932473852893
30
0
10
81.199895584010605
20
98.63781020623577
30
4.4408920985006262e-15
10
81.169351316228841
20
98.688764613098726
30
0
10
81.146859556271593
20
98.721621417491065
30
0
10
81.135487726416358
20
98.738233811978915
30
0
0
SPLINE
5
258
100
AcDbEntity
8
0
100
AcDbSpline
70
0
71
3
72
15
73
11
74
0
42
0.000000001
43
0.0000000001
44
0.0000000001
40
0
40
0
40
0
40
0
40
0.16688449150167217
40
0.32301371027258874
40
0.46946292533925799
40
0.60613347521481598
40
0.72951042456481863
40
0.83658552416495813
40
0.92675412479048891
40
1
40
1
40
1
40
1
10
79.753677234360296
20
99.465502492008426
30
0
10
79.781054183536455
20
99.455878586027708
30
0
10
79.834043708505277
20
99.437251009851067
30
0
10
79.912485755888099
20
99.414499194139978
30
0
10
79.987065713450093
20
99.397790473031932
30
0
10
80.056958174494355
20
99.387053402734665
30
0
10
80.120440229038948
20
99.380166398837275
30
0
10
80.176057567767572
20
99.376515806872376
30
0
10
80.222983544331342
20
99.372885205194251
30
0
10
80.251406445827499
20
99.373270477918709
30
0
10
80.264146200279725
20
99.373443165422401
30
0
0
SPLINE
5
259
100
AcDbEntity
8
0
100
AcDbSpline
70
0
71
3
72
23
73
19
74
0
42
0.000000001
43
0.0000000001
44
0.0000000001
40
0
40
0
40
0
40
0
40
0.066519918981161386
40
0.13117759911115773
40
0.194761122466727
40
0.25719213713543443
40
0.31877141694480832
40
0.38012067371370228
40
0.44168655167015336
40
0.50335956290593697
40
0.56472406183781643
40
0.62580101138169952
40
0.68633058026710914
40
0.74718012828738156
40
0.80854462721925924
40
0.87084862395266194
40
0.93435942895362278
40
1
40
1
40
1
40
1
10
79.044592968382105
20
100.55843189605781
30
-4.4408920985006262e-15
10
79.045365442869723
20
100.52766469109928
30
0
10
79.046888766262356
20
100.46699161543057
30
0
10
79.055686959793206
20
100.37723912321252
30
0
10
79.070457281298857
20
100.29022317830923
30
0
10
79.090667171774683
20
100.20576135851614
30
0
10
79.116603181619936
20
100.12396625545769
30
0
10
79.147872247312193
20
100.04448009897756
30
0
10
79.185257328923541
20
99.967621215948284
30
0
10
79.228022559121001
20
99.893640568743436
30
0
10
79.275707377820552
20
99.822963123274619
30
0
10
79.329212499815014
20
99.757249368140975
30
0
10
79.387514256650448
20
99.696110531081132
30
0
10
79.450688816116354
20
99.639803067198827
30
0
10
79.519054025468009
20
99.588514102898586
30
0
10
79.592587319716145
20
99.542677777479327
30
0
10
79.670656096907138
20
99.500632158050593
30
0
10
79.725700950162448
20
99.477340411255497
30
0
10
79.753677234360296
20
99.465502492008426
30
0
0
LINE
5
260
100
AcDbEntity
8
0
100
AcDbLine
10
79.044592968382105
20
100.55843189605781
30
-4.4408920985006262e-15
11
79.044820419647991
21
100.5582466985844
31
-4.4408920985006262e-15
0
SPLINE
5
261
100
AcDbEntity
8
0
100
AcDbSpline
70
0
71
3
72
13
73
9
74
0
42
0.000000001
43
0.0000000001
44
0.0000000001
40
0
40
0
40
0
40
0
40
0.32066162618977911
40
0.60761438627099873
40
0.73451313268869067
40
0.84135561241252477
40
0.92985361820305867
40
1
40
1
40
1
40
1
10
79.076580887320162
20
100.85789980662187
30
0
10
79.070408960405373
20
100.82621574778042
30
0
10
79.058713917163061
20
100.76617834886775
30
0
10
79.051021099927638
20
100.6926073456507
30
0
10
79.046977957770991
20
100.64036692086481
30
0
10
79.04587750539423
20
100.60796047600662
30
0
10
79.044635378256515
20
100.58127009218575
30
-4.4408920985006262e-15
10
79.044763686659465
20
100.56530558370537
30
-4.4408920985006262e-15
10
79.044820419647991
20
100.55824669858441
30
-4.4408920985006262e-15
0
SPLINE
5
262
100
AcDbEntity
8
0
100
AcDbSpline
70
0
71
3
72
19
73
15
74
0
42
0.000000001
43
0.0000000001
44
0.0000000001
40
0
40
0
40
0
40
0
40
0.085369795371821489
40
0.16732681957318965
40
0.24685714099736111
40
0.32289804697665914
40
0.39638256255308485
40
0.46731164097107586
40
0.5360767160673694
40
0.60314174390608521
40
0.72653513147075899
40
0.83393705206265556
40
0.92463800217686787
40
1
40
1
40
1
40
1
10
79.458627092652122
20
101.51152102538259
30
0
10
79.442538079540299
20
101.49662102085759
30
0
10
79.411003233025241
20
101.46741665931575
30
0
10
79.36672535798229
20
101.42201309751229
30
0
10
79.325706473284853
20
101.37681846874003
30
0
10
79.288953445189122
20
101.33086396311234
30
0
10
79.254916657517242
20
101.2855694122557
30
0
10
79.225730985169378
20
101.23920660251548
30
0
10
79.199044773422258
20
101.19325908331795
30
0
10
79.170462354146466
20
101.13307746444505
30
0
10
79.140802541827767
20
101.06254825597547
30
0
10
79.110891252957074
20
100.98558146319684
30
0
10
79.089417696555472
20
100.91859222276028
30
0
10
79.080587961181564
20
100.87684524624287
30
0
10
79.076580887320162
20
100.85789980662187
30
0
0
SPLINE
5
263
100
AcDbEntity
8
0
100
AcDbSpline
70
0
71
3
72
19
73
15
74
0
42
0.000000001
43
0.0000000001
44
0.0000000001
40
0
40
0
40
0
40
0
40
0.087686063580875634
40
0.17126043641106972
40
0.25188376000695639
40
0.32869557690620044
40
0.40242460637088273
40
0.47328783626636489
40
0.54084048617223524
40
0.60652313742556541
40
0.72744845014853632
40
0.83323173209538648
40
0.92382278122384109
40
1
40
1
40
1
40
1
10
80.248035818127178
20
101.7826357421784
30
0
10
80.223166397109452
20
101.78179211351846
30
0
10
80.174593708099877
20
101.78014441482419
30
0
10
80.10338031134134
20
101.77384316326992
30
0
10
80.035445855273579
20
101.76589027271085
30
0
10
79.970771929160819
20
101.7547907929561
30
0
10
79.909434273605541
20
101.74107878349496
30
0
10
79.85154694497227
20
101.72448199446487
30
0
10
79.796734106270677
20
101.70567241420217
30
0
10
79.730353417952486
20
101.67739258034474
30
0
10
79.655886332967825
20
101.64071535693134
30
0
10
79.576954970237864
20
101.59740442967563
30
0
10
79.511668570147194
20
101.55562761096432
30
0
10
79.475258610654592
20
101.52535094692274
30
0
10
79.458627092652122
20
101.51152102538259
30
0
0
SPLINE
5
264
100
AcDbEntity
8
0
100
AcDbSpline
70
0
71
3
72
15
73
11
74
0
42
0.000000001
43
0.0000000001
44
0.0000000001
40
0
40
0
40
0
40
0
40
0.16845201533739387
40
0.32502659829159314
40
0.46988125547103238
40
0.60410027831929702
40
0.72552811968474573
40
0.83276484168512566
40
0.92328921441632772
40
1
40
1
40
1
40
1
10
80.73963262209648
20
101.68735433916189
30
0
10
80.713212744372186
20
101.69753560026543
30
0
10
80.662235835803841
20
101.71718024895767
30
0
10
80.58653958479043
20
101.73974139765269
30
0
10
80.515614199412283
20
101.75810934599298
30
0
10
80.449048828111501
20
101.76839915201441
30
0
10
80.388535395432285
20
101.77586219700291
30
0
10
80.335089977421063
20
101.78033394344268
30
0
10
80.289030382781291
20
101.78307556309048
30
0
10
80.260926892309513
20
101.78277404744038
30
0
10
80.248035818127178
20
101.7826357421784
30
0
0
SPLINE
5
265
100
AcDbEntity
8
0
100
AcDbSpline
70
0
71
3
72
23
73
19
74
0
42
0.000000001
43
0.0000000001
44
0.0000000001
40
0
40
0
40
0
40
0
40
0.067400542811950778
40
0.13297024348854958
40
0.19731436229566918
40
0.26057288637102821
40
0.32247752657564199
40
0.38387140709558298
40
0.44488807405092673
40
0.50575137291836192
40
0.5660462167909347
40
0.62622838926828217
40
0.68581787575919206
40
0.74620675895671129
40
0.8071577439861799
40
0.86979407851545143
40
0.93375837804427775
40
1
40
1
40
1
40
1
10
81.399237697085283
20
100.57113500430646
30
0
10
81.398784387616715
20
100.60213823655084
30
4.4408920985006262e-15
10
81.397890082201712
20
100.66330254129495
30
0
10
81.391125114356839
20
100.75389219427461
30
0
10
81.378365480582914
20
100.84186917339748
30
0
10
81.361817717868718
20
100.92751189409023
30
0
10
81.338953037079946
20
101.01031090819305
30
0
10
81.31119080504655
20
101.09045680068625
30
0
10
81.279219325950351
20
101.16853557061134
30
0
10
81.241398895131567
20
101.24339578693581
30
0
10
81.198736824183158
20
101.31517712055334
30
0
10
81.149914573706937
20
101.38223146015889
30
0
10
81.095600362096491
20
101.44494314539929
30
0
10
81.035798566015814
20
101.50298620434145
30
0
10
80.969839802385565
20
101.55618474190193
30
0
10
80.89846198399222
20
101.60474879149275
30
0
10
80.821757553948572
20
101.64955158952563
30
0
10
80.767324944401054
20
101.6746073462169
30
0
10
80.73963262209648
20
101.68735433916189
30
0
0
SPLINE
5
266
100
AcDbEntity
8
0
100
AcDbSpline
70
0
71
3
72
23
73
19
74
0
42
0.000000001
43
0.0000000001
44
0.0000000001
40
0
40
0
40
0
40
0
40
0.08408155154011393
40
0.16516156513022082
40
0.24410197249551141
40
0.32059134792706634
40
0.39483291533133974
40
0.46722152288637148
40
0.53779352136977954
40
0.60691725903198501
40
0.67319631178263151
40
0.7342371487978212
40
0.79045580129339499
40
0.84201778267689731
40
0.88887896149856027
40
0.93050801400737559
40
0.967523837696313
40
1
40
1
40
1
40
1
10
81.183358576241091
20
99.804741110477892
30
0
10
81.195298539334217
20
99.823997165622487
30
0
10
81.218752233467342
20
99.861821874463587
30
0
10
81.251265638407716
20
99.919032344669816
30
0
10
81.279725538375786
20
99.976083806696636
30
0
10
81.304727971108775
20
100.0327287747314
30
0
10
81.325820655858436
20
100.0890533553614
30
0
10
81.344010354031411
20
100.14471393936255
30
0
10
81.358180138720201
20
100.20011118176213
30
0
10
81.369250042272938
20
100.25452927486164
30
0
10
81.376774829709646
20
100.30693405770006
30
0
10
81.384698850208991
20
100.35575885070109
30
0
10
81.389868488408979
20
100.40096308934208
30
0
10
81.39471297504312
20
100.4423503017575
30
0
10
81.397931212941558
20
100.47995960882747
30
0
10
81.399830840880895
20
100.51372608636029
30
0
10
81.400490702810714
20
100.54368074487016
30
0
10
81.399636770893977
20
100.56239100924253
30
0
10
81.399237697085283
20
100.57113500430646
30
0
0
SPLINE
5
267
100
AcDbEntity
8
0
100
AcDbSpline
70
0
71
3
72
23
73
19
74
0
42
0.000000001
43
0.0000000001
44
0.0000000001
40
0
40
0
40
0
40
0
40
0.090547376648675668
40
0.17658380767317858
40
0.2584274904676595
40
0.33535007866384448
40
0.40913452810993539
40
0.47864569718187477
40
0.54544699895125814
40
0.60963504157796866
40
0.67067852053395338
40
0.72814980993292466
40
0.78196246188873708
40
0.83217275129507429
40
0.87912494779442285
40
0.92237306702064437
40
0.96268631239434799
40
1
40
1
40
1
40
1
10
80.264146200279725
20
99.373443165422401
30
0
10
80.295923257845558
20
99.375016482004781
30
0
10
80.357894283725116
20
99.378084734703762
30
0
10
80.448310843503506
20
99.387047909148535
30
0
10
80.533227462006238
20
99.400975779525126
30
0
10
80.613156310396221
20
99.418207131615105
30
0
10
80.687369791186242
20
99.44031964284946
30
0
10
80.756678259187836
20
99.465941234378036
30
0
10
80.820285111052669
20
99.496456060835371
30
0
10
80.878560193089697
20
99.530583320024931
30
0
10
80.931716251240061
20
99.566623526552021
30
0
10
80.980436082155492
20
99.602591070277597
30
0
10
81.025102442549311
20
99.637585974791222
30
0
10
81.065982664568438
20
99.671426460788496
30
0
10
81.101720590396269
20
99.705492259147775
30
0
10
81.133246657651213
20
99.738796309784931
30
0
10
81.160775591110266
20
99.771228828392424
30
0
10
81.176027360800575
20
99.793861868497771
30
0
10
81.183358576241091
20
99.804741110477892
30
0
0
LINE
5
268
100
AcDbEntity
8
0
100
AcDbLine
10
81.340319728070227
20
103.066826488362
30
0
11
81.340319728070227
21
102.54822231886563
31
0
0
LINE
5
269
100
AcDbEntity
8
0
100
AcDbLine
10
81.340319728070227
20
102.54822231886563
30
0
11
79.105119728070235
21
101.89599008115545
31
4.4408920985006262e-15
0
LINE
5
270
100
AcDbEntity
8
0
100
AcDbLine
10
79.105119728070235
20
101.89599008115545
30
4.4408920985006262e-15
11
79.105119728070264
21
102.39868614729303
31
0
0
LINE
5
271
100
AcDbEntity
8
0
100
AcDbLine
10
79.105119728070264
20
102.39868614729303
30
0
11
80.289922811723812
21
102.70368930467146
31
-1.2325951644078309e-31
0
SPLINE
5
272
100
AcDbEntity
8
0
100
AcDbSpline
70
0
71
3
72
9
73
5
74
0
42
0.000000001
43
0.0000000001
44
0.0000000001
40
0
40
0
40
0
40
0
40
0.50339357966945508
40
1
40
1
40
1
40
1
10
80.590956809660085
20
102.77089261307927
30
0
10
80.540263477084181
20
102.76042418153136
30
0
10
80.439560300438274
20
102.73962846229558
30
0
10
80.339575770984354
20
102.71561469545888
30
0
10
80.289922811723812
20
102.70368930467146
30
0
0
SPLINE
5
273
100
AcDbEntity
8
0
100
AcDbSpline
70
0
71
3
72
9
73
5
74
0
42
0.000000001
43
0.0000000001
44
0.0000000001
40
0
40
0
40
0
40
0
40
0.50021730955466348
40
1
40
1
40
1
40
1
10
80.843659661138673
20
102.80909723361246
30
0
10
80.801436572127045
20
102.80330671934013
30
0
10
80.717027080082019
20
102.79173072194517
30
0
10
80.632968055247886
20
102.77783663648955
30
0
10
80.590956809660085
20
102.77089261307927
30
0
0
SPLINE
5
274
100
AcDbEntity
8
0
100
AcDbSpline
70
0
71
3
72
9
73
5
74
0
42
0.000000001
43
0.0000000001
44
0.0000000001
40
0
40
0
40
0
40
0
40
0.49628258676240167
40
1
40
1
40
1
40
1
10
80.590956809660085
20
102.85006363394324
30
0
10
80.632655667497929
20
102.8426383536941
30
0
10
80.716678075194906
20
102.82767655481747
30
0
10
80.801123187571704
20
102.81532096124552
30
0
10
80.843659661138673
20
102.80909723361246
30
0
0
SPLINE
5
275
100
AcDbEntity
8
0
100
AcDbSpline
70
0
71
3
72
9
73
5
74
0
42
0.000000001
43
0.0000000001
44
0.0000000001
40
0
40
0
40
0
40
0
40
0.49771980260654713
40
1
40
1
40
1
40
1
10
80.213067208785844
20
102.92365355813291
30
0
10
80.275614012916549
20
102.91068684348708
30
0
10
80.401280710932468
20
102.884634605706
30
0
10
80.527539513422653
20
102.86162227297156
30
0
10
80.590956809660085
20
102.85006363394324
30
0
0
LINE
5
276
100
AcDbEntity
8
0
100
AcDbLine
10
80.213067208785844
20
102.92365355813291
30
0
11
79.10511972807025
21
103.16545672918645
31
1.2325951644078309e-31
0
LINE
5
277
100
AcDbEntity
8
0
100
AcDbLine
10
79.10511972807025
20
103.16545672918645
30
1.2325951644078309e-31
11
79.10511972807025
21
103.68406089868282
31
0
0
LINE
5
278
100
AcDbEntity
8
0
100
AcDbLine
10
79.10511972807025
20
103.68406089868282
30
0
11
80.389346884436719
21
103.9731874182926
31
-4.9303806576313238e-31
0
SPLINE
5
279
100
AcDbEntity
8
0
100
AcDbSpline
70
0
71
3
72
9
73
5
74
0
42
0.000000001
43
0.0000000001
44
0.0000000001
40
0
40
0
40
0
40
0
40
0.50098191405598369
40
1
40
1
40
1
40
1
10
80.613511344673654
20
104.02105826811733
30
0
10
80.576072205597711
20
104.01308765815375
30
0
10
80.501340687302289
20
103.99717768268371
30
0
10
80.426629245248492
20
103.98117369673047
30
0
10
80.389346884436719
20
103.9731874182926
30
0
0
SPLINE
5
280
100
AcDbEntity
8
0
100
AcDbSpline
70
0
71
3
72
9
73
5
74
0
42
0.000000001
43
0.0000000001
44
0.0000000001
40
0
40
0
40
0
40
0
40
0.50486633462863428
40
1
40
1
40
1
40
1
10
80.850103813999695
20
104.05604081222002
30
0
10
80.810172428480541
20
104.05093428760563
30
0
10
80.731079443307493
20
104.04081968050247
30
0
10
80.652445605171934
20
104.02760252618187
30
0
10
80.613511344673654
20
104.02105826811733
30
0
0
SPLINE
5
281
100
AcDbEntity
8
0
100
AcDbSpline
70
0
71
3
72
9
73
5
74
0
42
0.000000001
43
0.0000000001
44
0.0000000001
40
0
40
0
40
0
40
0
40
0.50056968445114458
40
1
40
1
40
1
40
1
10
80.514087271960761
20
104.11357789133626
30
0
10
80.570058052283798
20
104.10341804528032
30
0
10
80.681872215349685
20
104.08312147844548
30
0
10
80.794069225711212
20
104.06506084171923
30
0
10
80.850103813999695
20
104.05604081222002
30
0
0
SPLINE
5
282
100
AcDbEntity
8
0
100
AcDbSpline
70
0
71
3
72
9
73
5
74
0
42
0.000000001
43
0.0000000001
44
0.0000000001
40
0
40
0
40
0
40
0
40
0.5015470073853372
40
1
40
1
40
1
40
1
10
80.20346705723361
20
104.18357534414865
30
0
10
80.255251775007324
20
104.17122728037569
30
0
10
80.358501753595931
20
104.14660732732813
30
0
10
80.462332517144517
20
104.12456497020739
30
0
10
80.514087271960761
20
104.11357789133626
30
0
0
LINE
5
283
100
AcDbEntity
8
0
100
AcDbLine
10
80.20346705723361
20
104.18357534414865
30
0
11
79.10511972807025
21
104.45719472191973
31
1.2325951644078309e-31
0
LINE
5
284
100
AcDbEntity
8
0
100
AcDbLine
10
79.10511972807025
20
104.45719472191973
30
1.2325951644078309e-31
11
79.10511972807025
21
104.95034592604205
31
-4.4408920985006262e-15
0
LINE
5
285
100
AcDbEntity
8
0
100
AcDbLine
10
79.10511972807025
20
104.95034592604205
30
-4.4408920985006262e-15
11
81.340319728070227
21
104.29493206766013
31
-4.9303806576313238e-31
0
LINE
5
286
100
AcDbEntity
8
0
100
AcDbLine
10
81.340319728070227
20
104.29493206766013
30
-4.9303806576313238e-31
11
81.340319728070227
21
103.78905438085079
31
0
0
LINE
5
287
100
AcDbEntity
8
0
100
AcDbLine
10
81.340319728070227
20
103.78905438085079
30
0
11
80.251718191190605
21
103.54050858333834
31
2.4651903288156619e-31
0
SPLINE
5
288
100
AcDbEntity
8
0
100
AcDbSpline
70
0
71
3
72
9
73
5
74
0
42
0.000000001
43
0.0000000001
44
0.0000000001
40
0
40
0
40
0
40
0
40
0.49881243922070312
40
1
40
1
40
1
40
1
10
79.912479572721168
20
103.47054349513297
30
0
10
79.968971276302653
20
103.48175855598802
30
0
10
80.082223671671443
20
103.5042420787979
30
0
10
80.195130628768254
20
103.52840062199925
30
0
10
80.251718191190605
20
103.54050858333834
30
0
0
SPLINE
5
289
100
AcDbEntity
8
0
100
AcDbSpline
70
0
71
3
72
9
73
5
74
0
42
0.000000001
43
0.0000000001
44
0.0000000001
40
0
40
0
40
0
40
0
40
0.50024029202765741
40
1
40
1
40
1
40
1
10
79.614667651215413
20
103.41991086551064
30
0
10
79.664406144069787
20
103.42788716321689
30
0
10
79.763835345689586
20
103.443832095749
30
0
10
79.862947374264181
20
103.46164254847818
30
0
10
79.912479572721168
20
103.47054349513297
30
0
0
SPLINE
5
290
100
AcDbEntity
8
0
100
AcDbSpline
70
0
71
3
72
9
73
5
74
0
42
0.000000001
43
0.0000000001
44
0.0000000001
40
0
40
0
40
0
40
0
40
0.49721850319009492
40
1
40
1
40
1
40
1
10
79.880719105048982
20
103.38170624497747
30
0
10
79.836713822843436
20
103.38866444551583
30
0
10
79.748210917333623
20
103.40265869652163
30
0
10
79.659346856655674
20
103.41413885449911
30
0
10
79.614667651215413
20
103.41991086551064
30
0
0
SPLINE
5
291
100
AcDbEntity
8
0
100
AcDbSpline
70
0
71
3
72
9
73
5
74
0
42
0.000000001
43
0.0000000001
44
0.0000000001
40
0
40
0
40
0
40
0
40
0.4967122538479925
40
1
40
1
40
1
40
1
10
80.18106670361172
20
103.32135614210253
30
0
10
80.13147548751337
20
103.33203275006684
30
0
10
80.031636565251688
20
103.35352730326461
30
0
10
79.931244966511528
20
103.37227217881153
30
0
10
79.880719105048982
20
103.38170624497747
30
0
0
LINE
5
292
100
AcDbEntity
8
0
100
AcDbLine
10
80.18106670361172
20
103.32135614210253
30
0
11
81.340319728070227
21
103.066826488362
31
0
0
LINE
5
293
100
AcDbEntity
8
0
100
AcDbLine
10
81.340319728070227
20
105.57918124993969
30
0
11
81.340319728070227
21
105.11840499151418
31
0
0
LINE
5
294
100
AcDbEntity
8
0
100
AcDbLine
10
81.340319728070227
20
105.11840499151418
30
0
11
79.105119728070235
21
105.11840499151418
31
7.6729386668769093e-31
0
LINE
5
295
100
AcDbEntity
8
0
100
AcDbLine
10
79.105119728070235
20
105.11840499151418
30
7.6729386668769093e-31
11
79.10511972807025
21
105.55983260905313
31
0
0
LINE
5
296
100
AcDbEntity
8
0
100
AcDbLine
10
79.10511972807025
20
105.55983260905313
30
0
11
80.171626577060792
21
106.32392232266646
31
0
0
SPLINE
5
297
100
AcDbEntity
8
0
100
AcDbSpline
70
0
71
3
72
13
73
9
74
0
42
0.000000001
43
0.0000000001
44
0.0000000001
40
0
40
0
40
0
40
0
40
0.19301113105467782
40
0.40342279569339085
40
0.52329145544507183
40
0.66268941923771374
40
0.82131586407759916
40
0.99999999999999989
40
0.99999999999999989
40
0.99999999999999989
40
0.99999999999999989
10
80.735029655767192
20
106.6580976781737
30
0
10
80.696949828589325
20
106.63989076903023
30
0
10
80.617357163359742
20
106.60183554316085
30
0
10
80.517210491174296
20
106.54638023488789
30
0
10
80.428711232635393
20
106.49427312862611
30
0
10
80.351656586889817
20
106.44514768201942
30
0
10
80.264362692768742
20
106.38818500770637
30
0
10
80.203740225065843
20
106.34617588840486
30
0
10
80.171626577060792
20
106.32392232266646
30
0
0
SPLINE
5
298
100
AcDbEntity
8
0
100
AcDbSpline
70
0
71
3
72
9
73
5
74
0
42
0.000000001
43
0.0000000001
44
0.0000000001
40
0
40
0
40
0
40
0
40
0.49887947829194185
40
0.99999999999999989
40
0.99999999999999989
40
0.99999999999999989
40
0.99999999999999989
10
80.322143576028907
20
106.63001958356496
30
0
10
80.390919783170816
20
106.63298094695735
30
0
10
80.528781150764786
20
106.63891697664235
30
0
10
80.666177517025716
20
106.65169456595245
30
0
10
80.735029655767192
20
106.6580976781737
30
0
0
SPLINE
5
299
100
AcDbEntity
8
0
100
AcDbSpline
70
0
71
3
72
9
73
5
74
0
42
0.000000001
43
0.0000000001
44
0.0000000001
40
0
40
0
40
0
40
0
40
0.49986789216380684
40
1
40
1
40
1
40
1
10
80.014664076706339
20
106.6208127518895
30
0
10
80.065917763497367
20
106.62165732779479
30
0
10
80.168452228291983
20
106.6233469260237
30
0
10
80.270904103652896
20
106.62779497263668
30
0
10
80.322143576028907
20
106.63001958356496
30
0
0
LINE
5
300
100
AcDbEntity
8
0
100
AcDbLine
10
80.014664076706339
20
106.6208127518895
30
0
11
79.105119728070235
21
106.6111087638898
31
1.1940765655200862e-31
0
LINE
5
301
100
AcDbEntity
8
0
100
AcDbLine
10
79.105119728070235
20
106.6111087638898
30
1.1940765655200862e-31
11
79.10511972807025
21
107.05901559594736
31
0
0
LINE
5
302
100
AcDbEntity
8
0
100
AcDbLine
10
79.10511972807025
20
107.05901559594736
30
0
11
81.340319728070227
21
107.05901559594736
31
-7.6729386668769093e-31
0
LINE
5
303
100
AcDbEntity
8
0
100
AcDbLine
10
81.340319728070227
20
107.05901559594736
30
-7.6729386668769093e-31
11
81.340319728070227
21
106.63324435704607
31
0
0
LINE
5
304
100
AcDbEntity
8
0
100
AcDbLine
10
81.340319728070227
20
106.63324435704607
30
0
11
80.229163656177036
21
105.84015056145697
31
2.4651903288156619e-31
0
SPLINE
5
305
100
AcDbEntity
8
0
100
AcDbSpline
70
0
71
3
72
9
73
5
74
0
42
0.000000001
43
0.0000000001
44
0.0000000001
40
0
40
0
40
0
40
0
40
0.49855440166824333
40
1
40
1
40
1
40
1
10
79.925367878443211
20
105.6339376699043
30
0
10
79.976532692476724
20
105.66720735224067
30
0
10
80.079159033478447
20
105.73393965311908
30
0
10
80.179065831876784
20
105.80467875179565
30
0
10
80.229163656177036
20
105.84015056145697
30
0
0
SPLINE
5
306
100
AcDbEntity
8
0
100
AcDbSpline
70
0
71
3
72
9
73
5
74
0
42
0.000000001
43
0.0000000001
44
0.0000000001
40
0
40
0
40
0
40
0
40
0.50037990144500155
40
1
40
1
40
1
40
1
10
79.749074268030981
20
105.52760914769746
30
0
10
79.778560489583185
20
105.54520869294201
30
0
10
79.837488159273832
20
105.58038105936549
30
0
10
79.896089480537839
20
105.61609451145273
30
0
10
79.925367878443211
20
105.6339376699043
30
0
0
SPLINE
5
307
100
AcDbEntity
8
0
100
AcDbSpline
70
0
71
3
72
9
73
5
74
0
42
0.000000001
43
0.0000000001
44
0.0000000001
40
0
40
0
40
0
40
0
40
0.49465774765025994
40
1
40
1
40
1
40
1
10
80.024331654523166
20
105.54694160628051
30
0
10
79.97890110174022
20
105.54438825954315
30
0
10
79.887058705661801
20
105.5392264143088
30
0
10
79.795395539085945
20
105.53150905528747
30
0
10
79.749074268030981
20
105.52760914769746
30
0
0
SPLINE
5
308
100
AcDbEntity
8
0
100
AcDbSpline
70
0
71
3
72
9
73
5
74
0
42
0.000000001
43
0.0000000001
44
0.0000000001
40
0
40
0
40
0
40
0
40
0.49926135991793463
40
1
40
1
40
1
40
1
10
80.270668118099238
20
105.55660783557204
30
0
10
80.22967734351225
20
105.55488064989584
30
0
10
80.147574505444169
20
105.55142116791933
30
0
10
80.06545304363236
20
105.54843626334022
30
0
10
80.024331654523166
20
105.54694160628051
30
0
0
LINE
5
309
100
AcDbEntity
8
0
100
AcDbLine
10
80.270668118099238
20
105.55660783557204
30
0
11
81.340319728070227
21
105.57918124993969
31
0
0
LWPOLYLINE
5
310
100
AcDbEntity
8
0
100
AcDbPolyline
90
6
70
1
43
0.0
10
70.258880594318455
20
105.36237792859167
10
70.258880594318455
20
105.13977294590975
10
70.026079963574787
20
105.13977294590975
10
70.026079963574787
20
105.61215185975726
10
71.219260081232889
20
105.61215185975726
10
71.219260081232889
20
105.36237792859167
0
SPLINE
5
311
100
AcDbEntity
8
0
100
AcDbSpline
70
0
71
3
72
23
73
19
74
0
42
0.000000001
43
0.0000000001
44
0.0000000001
40
0
40
0
40
0
40
0
40
0.04128407943082292
40
0.084120145872071103
40
0.12909512418727562
40
0.17634621138628176
40
0.22580035320771255
40
0.27800411384486995
40
0.3329103659693976
40
0.39084211158268717
40
0.45218265604903585
40
0.51725650945097568
40
0.58628092196083226
40
0.65986085167064801
40
0.73815473413980071
40
0.82047833209597965
40
0.90771591712506594
40
0.99999999999999989
40
0.99999999999999989
40
0.99999999999999989
40
0.99999999999999989
10
70.099457755541593
20
106.1930723637328
30
-4.4408920985006262e-15
10
70.10477516277659
20
106.18724670360592
30
0
10
70.115609873842871
20
106.17537638007133
30
0
10
70.133978307665956
20
106.15886818069042
30
0
10
70.154497627565775
20
106.1432163776376
30
0
10
70.176851201339844
20
106.12794959686914
30
0
10
70.201299728615282
20
106.1133834082729
30
0
10
70.227925912158241
20
106.09975668978117
30
0
10
70.256475239036988
20
106.08638357580317
30
0
10
70.287296848487827
20
106.07383900611745
30
0
10
70.320535962927622
20
106.06218045029756
30
0
10
70.356521357684784
20
106.05218732188709
30
0
10
70.395254750774896
20
106.0435956844625
30
0
10
70.436856666855604
20
106.03650036537158
30
0
10
70.48125340537554
20
106.0310278048195
30
0
10
70.528373299278172
20
106.02645387305104
30
0
10
70.578326670011094
20
106.02384787541808
30
0
10
70.612605586804463
20
106.02325545145449
30
0
10
70.630226849101973
20
106.02295091271668
30
0
0
SPLINE
5
312
100
AcDbEntity
8
0
100
AcDbSpline
70
0
71
3
72
15
73
11
74
0
42
0.000000001
43
0.0000000001
44
0.0000000001
40
0
40
0
40
0
40
0
40
0.17362416581077858
40
0.33055859227353962
40
0.47288050823506006
40
0.60310448003323558
40
0.72153446838466584
40
0.82588600188660266
40
0.91884968109687748
40
1
40
1
40
1
40
1
10
69.993992529599865
20
106.47150468956687
30
0
10
69.994994030572002
20
106.45389228670456
30
0
10
69.996900762563868
20
106.42036048501362
30
-4.4408920985006262e-15
10
70.004444093044555
20
106.37283870707428
30
-4.4408920985006262e-15
10
70.0158331174528
20
106.33062895684438
30
-4.4408920985006262e-15
10
70.031184776389892
20
106.2938846967208
30
-4.4408920985006262e-15
10
70.048645449106928
20
106.26253635097056
30
-4.4408920985006262e-15
10
70.065318203973717
20
106.23514798488731
30
-4.4408920985006262e-15
10
70.081787407408569
20
106.21206984066943
30
-4.4408920985006262e-15
10
70.093840227784938
20
106.1991117950555
30
-4.4408920985006262e-15
10
70.099457755541593
20
106.1930723637328
30
-4.4408920985006262e-15
0
LINE
5
313
100
AcDbEntity
8
0
100
AcDbLine
10
69.993992529599865
20
106.47150468956687
30
0
11
69.994238129768618
21
106.47136352348745
31
-6.018531076210112e-35
0
SPLINE
5
314
100
AcDbEntity
8
0
100
AcDbSpline
70
0
71
3
72
15
73
11
74
0
42
0.000000001
43
0.0000000001
44
0.0000000001
40
0
40
0
40
0
40
0
40
0.16667320459622836
40
0.3232610229862351
40
0.47068025609032271
40
0.60899186860521792
40
0.73508901034952567
40
0.84176024724323606
40
0.93040812816828
40
0.99999999999999989
40
0.99999999999999989
40
0.99999999999999989
40
0.99999999999999989
10
70.042668658453834
20
106.67172332490095
30
0
10
70.037457898100214
20
106.66137953918911
30
0
10
70.027351680207943
20
106.64131786965524
30
0
10
70.014773717289984
20
106.61106473900657
30
0
10
70.006276156439867
20
106.58147104789688
30
0
10
70.000686979372219
20
106.55337990035507
30
0
10
69.997469572388241
20
106.52778132014365
30
0
10
69.995308145256118
20
106.50556402032416
30
0
10
69.99368379380644
20
106.48719764360486
30
0
10
69.994068806140703
20
106.47620010427281
30
0
10
69.994238129768618
20
106.47136352348747
30
0
0
SPLINE
5
315
100
AcDbEntity
8
0
100
AcDbSpline
70
0
71
3
72
23
73
19
74
0
42
0.000000001
43
0.0000000001
44
0.0000000001
40
0
40
0
40
0
40
0
40
0.090971912459988757
40
0.17725319019405014
40
0.25907286930200624
40
0.33591227411425084
40
0.40806250563182822
40
0.47661708485741333
40
0.54095161785106138
40
0.60138605938258705
40
0.65895225945226199
40
0.71358203309001211
40
0.7664891422124378
40
0.81688264326348103
40
0.86494653187061354
40
0.91126154607693366
40
0.95635920525595275
40
1
40
1
40
1
40
1
10
70.488868707000435
20
106.90920500363151
30
0
10
70.473117811911109
20
106.90693884372618
30
0
10
70.442428159165601
20
106.90252337018221
30
0
10
70.397857206595987
20
106.8942336859499
30
0
10
70.356163752220596
20
106.88432842845701
30
0
10
70.3172117393338
20
106.87366224423735
30
0
10
70.281125901801701
20
106.86152820277013
30
0
10
70.247738141587135
20
106.84838840196178
30
0
10
70.217115139804264
20
106.83396031563632
30
0
10
70.189476039835498
20
106.81799497307159
30
0
10
70.164134517821452
20
106.80155621368408
30
0
10
70.140817165933655
20
106.78448543989469
30
0
10
70.119565819345027
20
106.76681893016769
30
0
10
70.099998072752129
20
106.7489600099622
30
0
10
70.082699916542452
20
106.73042139498024
30
0
10
70.067457188230719
20
106.71136440992215
30
0
10
70.053701415408042
20
106.69210420218009
30
0
10
70.046305771419412
20
106.67844218522836
30
0
10
70.042668658453834
20
106.67172332490095
30
0
0
SPLINE
5
316
100
AcDbEntity
8
0
100
AcDbSpline
70
0
71
3
72
9
73
5
74
0
42
0.000000001
43
0.0000000001
44
0.0000000001
40
0
40
0
40
0
40
0
40
0.50425717218372601
40
0.99999999999999989
40
0.99999999999999989
40
0.99999999999999989
40
0.99999999999999989
10
70.631947730831897
20
106.91780941228119
30
0
10
70.607833617594451
20
106.9174323567256
30
0
10
70.560012556105065
20
106.91668461216906
30
0
10
70.5124483306369
20
106.91168401420634
30
0
10
70.488868707000435
20
106.90920500363151
30
0
0
SPLINE
5
317
100
AcDbEntity
8
0
100
AcDbSpline
70
0
71
3
72
19
73
15
74
0
42
0.000000001
43
0.0000000001
44
0.0000000001
40
0
40
0
40
0
40
0
40
0.16024947124199868
40
0.31602767992350556
40
0.4671604748165179
40
0.61545190968554975
40
0.68623687429953761
40
0.74995734425500538
40
0.80775774597749261
40
0.85912963637337736
40
0.9039819960272959
40
0.94241220976209883
40
0.97440382770950607
40
1
40
1
40
1
40
1
10
71.00636242721562
20
106.84381149789414
30
0
10
70.987368300204096
20
106.85161319873011
30
0
10
70.949910018157368
20
106.86699891823075
30
0
10
70.892822690686032
20
106.88521337544232
30
0
10
70.835997407237926
20
106.89850836210296
30
0
10
70.789106481140706
20
106.90594810269829
30
0
10
70.753052219230725
20
106.90949263472785
30
0
10
70.728597058936998
20
106.91249924275755
30
0
10
70.706513402186118
20
106.91421465988213
30
0
10
70.686877620154405
20
106.9161918594983
30
0
10
70.669643021362347
20
106.91700219767449
30
0
10
70.654901934233536
20
106.91784406376273
30
0
10
70.642599384079176
20
106.91817136386823
30
0
10
70.635225304337766
20
106.91792078681664
30
0
10
70.631947730831897
20
106.91780941228119
30
0
0
SPLINE
5
318
100
AcDbEntity
8
0
100
AcDbSpline
70
0
71
3
72
13
73
9
74
0
42
0.000000001
43
0.0000000001
44
0.0000000001
40
0
40
0
40
0
40
0
40
0.074140005934266603
40
0.16251978715995882
40
0.26917521546770784
40
0.39023635104821003
40
0.67435100296314809
40
1
40
1
40
1
40
1
10
71.118711420155449
20
106.76809270177712
30
0
10
71.116269585546817
20
106.7704053125015
30
0
10
71.11091692289358
20
106.77547470787006
30
0
10
71.101655945064934
20
106.7834387574604
30
0
10
71.09042866590346
20
106.79235757337969
30
0
10
71.072158357294512
20
106.80667718347422
30
0
10
71.044519753616214
20
106.82516894424707
30
0
10
71.01964629196263
20
106.83732139010758
30
0
10
71.00636242721562
20
106.84381149789414
30
0
0
SPLINE
5
319
100
AcDbEntity
8
0
100
AcDbSpline
70
0
71
3
72
15
73
11
74
0
42
0.000000001
43
0.0000000001
44
0.0000000001
40
0
40
0
40
0
40
0
40
0.16915695038257994
40
0.32617312099826123
40
0.47298707590128242
40
0.60888666907093336
40
0.73248230861138319
40
0.83818018028309405
40
0.92731702253010606
40
1
40
1
40
1
40
1
10
71.209180631100423
20
106.6542686673545
30
0
10
71.205253963009554
20
106.66153165614912
30
0
10
71.197682452743919
20
106.67553635248325
30
0
10
71.185267855224254
20
106.69500887905275
30
0
10
71.172871963594304
20
106.71254371666423
30
0
10
71.160034197535424
20
106.72767843062134
30
0
10
71.147856502566469
20
106.74068637512777
30
0
10
71.137090956316499
20
106.75189594116247
30
0
10
71.12749083970634
20
106.76075337822168
30
0
10
71.121432557647509
20
106.76581791488749
30
0
10
71.118711420155449
20
106.76809270177712
30
0
0
SPLINE
5
320
100
AcDbEntity
8
0
100
AcDbSpline
70
0
71
3
72
9
73
5
74
0
42
0.000000001
43
0.0000000001
44
0.0000000001
40
0
40
0
40
0
40
0
40
0.49923048164595657
40
1
40
1
40
1
40
1
10
71.239173141250674
20
106.56379945640951
30
0
10
71.235398496732955
20
106.57925760812182
30
0
10
71.227837571155533
20
106.61022156621455
30
0
10
71.215405988672728
20
106.63957124356423
30
0
10
71.209180631100423
20
106.6542686673545
30
0
0
SPLINE
5
321
100
AcDbEntity
8
0
100
AcDbSpline
70
0
71
3
72
11
73
7
74
0
42
0.000000001
43
0.0000000001
44
0.0000000001
40
0
40
0
40
0
40
0
40
0.3266674315370347
40
0.60253830923788765
40
0.8259069259940458
40
1
40
1
40
1
40
1
10
71.250727632865932
20
106.4590715111308
30
0
10
71.250134932964272
20
106.4705488322533
30
0
10
71.249041697575151
20
106.4917187592068
30
0
10
71.246663561922134
20
106.52066982640642
30
0
10
71.24379772571325
20
106.54421991531513
30
0
10
71.240581769390474
20
106.55783561408526
30
0
10
71.239173141250674
20
106.56379945640951
30
0
0
SPLINE
5
322
100
AcDbEntity
8
0
100
AcDbSpline
70
0
71
3
72
19
73
15
74
0
42
0.000000001
43
0.0000000001
44
0.0000000001
40
0
40
0
40
0
40
0
40
0.12831012129769542
40
0.25223378224886556
40
0.37419269903746055
40
0.4950655792511735
40
0.55571334115286763
40
0.61686529596898099
40
0.6780507159215714
40
0.7397608179846038
40
0.80267274225020235
40
0.86710903481778712
40
0.93278818112093265
40
1
40
1
40
1
40
1
10
71.04864694972251
20
106.11317428341452
30
0
10
71.063999852204205
20
106.12261739960078
30
0
10
71.094180796796024
20
106.14118080588385
30
0
10
71.134230172805829
20
106.17543592542853
30
0
10
71.169180558815313
20
106.21335230456255
30
0
10
71.193577928807059
20
106.24844316822175
30
-4.4408920985006262e-15
10
71.209953529725325
20
106.2783137235792
30
-4.4408920985006262e-15
10
71.220803543606991
20
106.3016085197811
30
-4.4408920985006262e-15
10
71.229836330837927
20
106.3258182359445
30
-4.4408920985006262e-15
10
71.237581806523693
20
106.35072838815435
30
-4.4408920985006262e-15
10
71.243450244772305
20
106.37662312284989
30
-4.4408920985006262e-15
10
71.24760136615285
20
106.40340216660456
30
-4.4408920985006262e-15
10
71.250059272667542
20
106.43100055601415
30
-4.4408920985006262e-15
10
71.25050313971451
20
106.44964285695235
30
0
10
71.250727632865932
20
106.4590715111308
30
0
0
SPLINE
5
323
100
AcDbEntity
8
0
100
AcDbSpline
70
0
71
3
72
19
73
15
74
0
42
0.000000001
43
0.0000000001
44
0.0000000001
40
0
40
0
40
0
40
0
40
0.028451586302629693
40
0.062570946888581128
40
0.10238758186811879
40
0.14796249913984444
40
0.19928897923174538
40
0.2563764931317245
40
0.3197976882229267
40
0.38842613890965966
40
0.53368394330640534
40
0.68359216860786431
40
0.83845506354184707
40
1
40
1
40
1
40
1
10
70.630226849101973
20
106.02295091271668
30
0
10
70.634323541824727
20
106.02273145073538
30
0
10
70.643333019892097
20
106.02224880826229
30
0
10
70.658090931147896
20
106.02277837957286
30
0
10
70.675313447285887
20
106.02306375920152
30
0
10
70.694974875576079
20
106.02447084460292
30
0
10
70.717102575454859
20
106.02615843993885
30
0
10
70.741767867204416
20
106.02840602943843
30
0
10
70.768890339769158
20
106.03113319165061
30
0
10
70.808653013263935
20
106.03518204551222
30
0
10
70.860466767654088
20
106.04373756252875
30
0
10
70.923249131946733
20
106.06034370062673
30
0
10
70.98657808388397
20
106.08321272614027
30
0
10
71.027668075527444
20
106.10304747132842
30
0
10
71.04864694972251
20
106.11317428341452
30
0
0
SPLINE
5
324
100
AcDbEntity
8
0
100
AcDbSpline
70
0
71
3
72
23
73
19
74
0
42
0.000000001
43
0.0000000001
44
0.0000000001
40
0
40
0
40
0
40
0
40
0.04128407943082292
40
0.084120145872071103
40
0.12909512418727562
40
0.17634621138628173
40
0.22580035320771252
40
0.27800411384486995
40
0.33291036596939755
40
0.39084211158268711
40
0.45218265604903579
40
0.51725650945097557
40
0.58628092196083215
40
0.65986085167064645
40
0.73815473413980071
40
0.82047833209597965
40
0.90771591712506594
40
1
40
1
40
1
40
1
10
70.099457755541593
20
107.18430024017349
30
0
10
70.10477516277659
20
107.17847458004661
30
0
10
70.115609873842871
20
107.166604256512
30
0
10
70.133978307665956
20
107.15009605713109
30
0
10
70.154497627565789
20
107.13444425407829
30
0
10
70.176851201339844
20
107.11917747330983
30
0
10
70.201299728615282
20
107.10461128471358
30
0
10
70.227925912158241
20
107.09098456622186
30
0
10
70.256475239036988
20
107.07761145224384
30
0
10
70.287296848487827
20
107.06506688255814
30
0
10
70.320535962927622
20
107.05340832673825
30
0
10
70.356521357684784
20
107.04341519832778
30
0
10
70.395254750774896
20
107.03482356090318
30
0
10
70.436856666855604
20
107.02772824181226
30
0
10
70.48125340537554
20
107.02225568126019
30
0
10
70.528373299278172
20
107.01768174949173
30
0
10
70.578326670011094
20
107.01507575185877
30
0
10
70.612605586804463
20
107.01448332789518
30
0
10
70.630226849101973
20
107.01417878915736
30
0
0
SPLINE
5
325
100
AcDbEntity
8
0
100
AcDbSpline
70
0
71
3
72
15
73
11
74
0
42
0.000000001
43
0.0000000001
44
0.0000000001
40
0
40
0
40
0
40
0
40
0.17362416581077866
40
0.33055859227353979
40
0.47288050823506023
40
0.60310448003323691
40
0.72153446838466584
40
0.82588600188660266
40
0.91884968109687748
40
1
40
1
40
1
40
1
10
69.993992529599865
20
107.46273256600756
30
0
10
69.994994030572002
20
107.44512016314523
30
0
10
69.996900762563868
20
107.41158836145431
30
0
10
70.004444093044555
20
107.36406658351497
30
0
10
70.0158331174528
20
107.32185683328507
30
0
10
70.031184776389892
20
107.28511257316148
30
0
10
70.048645449106928
20
107.25376422741124
30
0
10
70.065318203973732
20
107.22637586132799
30
0
10
70.081787407408569
20
107.20329771711009
30
0
10
70.093840227784938
20
107.19033967149619
30
0
10
70.099457755541593
20
107.18430024017349
30
0
0
LINE
5
326
100
AcDbEntity
8
0
100
AcDbLine
10
69.993992529599865
20
107.46273256600756
30
0
11
69.994238129768618
21
107.46259139992814
31
-6.018531076210112e-35
0
SPLINE
5
327
100
AcDbEntity
8
0
100
AcDbSpline
70
0
71
3
72
15
73
11
74
0
42
0.000000001
43
0.0000000001
44
0.0000000001
40
0
40
0
40
0
40
0
40
0.16667320459622836
40
0.32326102298623705
40
0.47068025609032271
40
0.60899186860522003
40
0.73508901034952534
40
0.84176024724323606
40
0.93040812816828422
40
1
40
1
40
1
40
1
10
70.042668658453834
20
107.66295120134163
30
0
10
70.037457898100214
20
107.65260741562977
30
0
10
70.027351680207943
20
107.63254574609591
30
0
10
70.014773717289984
20
107.60229261544724
30
0
10
70.006276156439867
20
107.57269892433756
30
0
10
70.000686979372219
20
107.54460777679576
30
0
10
69.997469572388241
20
107.51900919658434
30
0
10
69.995308145256118
20
107.49679189676485
30
0
10
69.99368379380644
20
107.47842552004555
30
0
10
69.994068806140703
20
107.4674279807135
30
0
10
69.994238129768618
20
107.46259139992816
30
0
0
SPLINE
5
328
100
AcDbEntity
8
0
100
AcDbSpline
70
0
71
3
72
23
73
19
74
0
42
0.000000001
43
0.0000000001
44
0.0000000001
40
0
40
0
40
0
40
0
40
0.090971912459988716
40
0.17725319019405009
40
0.25907286930200618
40
0.33591227411425073
40
0.40806250563182783
40
0.47661708485741316
40
0.54095161785106083
40
0.60138605938258582
40
0.65895225945226321
40
0.713582033090012
40
0.76648914221243725
40
0.81688264326348103
40
0.86494653187061354
40
0.91126154607693366
40
0.95635920525595275
40
1
40
1
40
1
40
1
10
70.488868707000435
20
107.9004328800722
30
0
10
70.473117811911109
20
107.89816672016686
30
0
10
70.442428159165601
20
107.89375124662287
30
0
10
70.397857206595987
20
107.88546156239057
30
0
10
70.356163752220596
20
107.8755563048977
30
0
10
70.3172117393338
20
107.86489012067804
30
0
10
70.281125901801701
20
107.85275607921081
30
0
10
70.247738141587135
20
107.83961627840247
30
0
10
70.217115139804264
20
107.82518819207701
30
0
10
70.189476039835498
20
107.80922284951228
30
0
10
70.164134517821452
20
107.79278409012477
30
0
10
70.140817165933655
20
107.77571331633538
30
0
10
70.119565819345041
20
107.75804680660838
30
0
10
70.099998072752129
20
107.74018788640289
30
0
10
70.082699916542452
20
107.72164927142093
30
0
10
70.067457188230719
20
107.70259228636284
30
0
10
70.053701415408042
20
107.68333207862078
30
0
10
70.046305771419412
20
107.66967006166905
30
0
10
70.042668658453834
20
107.66295120134163
30
0
0
SPLINE
5
329
100
AcDbEntity
8
0
100
AcDbSpline
70
0
71
3
72
9
73
5
74
0
42
0.000000001
43
0.0000000001
44
0.0000000001
40
0
40
0
40
0
40
0
40
0.50425717218372601
40
0.99999999999999989
40
0.99999999999999989
40
0.99999999999999989
40
0.99999999999999989
10
70.631947730831897
20
107.90903728872188
30
0
10
70.607833617594451
20
107.90866023316627
30
0
10
70.560012556105065
20
107.90791248860975
30
0
10
70.5124483306369
20
107.90291189064702
30
0
10
70.488868707000435
20
107.9004328800722
30
0
0
SPLINE
5
330
100
AcDbEntity
8
0
100
AcDbSpline
70
0
71
3
72
19
73
15
74
0
42
0.000000001
43
0.0000000001
44
0.0000000001
40
0
40
0
40
0
40
0
40
0.1602494712419987
40
0.31602767992350561
40
0.46716047481651768
40
0.61545190968554975
40
0.68623687429953983
40
0.74995734425500538
40
0.80775774597749261
40
0.85912963637337947
40
0.9039819960272959
40
0.94241220976209883
40
0.97440382770950607
40
1
40
1
40
1
40
1
10
71.00636242721562
20
107.8350393743348
30
0
10
70.987368300204096
20
107.8428410751708
30
0
10
70.949910018157354
20
107.85822679467144
30
0
10
70.892822690686032
20
107.87644125188301
30
0
10
70.835997407237926
20
107.88973623854363
30
0
10
70.789106481140706
20
107.89717597913898
30
0
10
70.753052219230725
20
107.90072051116853
30
0
10
70.728597058936998
20
107.90372711919824
30
0
10
70.706513402186118
20
107.90544253632282
30
0
10
70.686877620154405
20
107.90741973593897
30
0
10
70.669643021362347
20
107.90823007411518
30
0
10
70.654901934233536
20
107.90907194020342
30
0
10
70.642599384079162
20
107.90939924030891
30
0
10
70.635225304337766
20
107.9091486632573
30
0
10
70.631947730831897
20
107.90903728872188
30
0
0
SPLINE
5
331
100
AcDbEntity
8
0
100
AcDbSpline
70
0
71
3
72
13
73
9
74
0
42
0.000000001
43
0.0000000001
44
0.0000000001
40
0
40
0
40
0
40
0
40
0.074140005934266603
40
0.16251978715995882
40
0.26917521546770784
40
0.39023635104820803
40
0.67435100296314954
40
1
40
1
40
1
40
1
10
71.118711420155449
20
107.7593205782178
30
0
10
71.116269585546817
20
107.76163318894218
30
0
10
71.11091692289358
20
107.76670258431075
30
0
10
71.101655945064934
20
107.77466663390109
30
0
10
71.09042866590346
20
107.78358544982035
30
0
10
71.072158357294512
20
107.79790505991491
30
0
10
71.044519753616214
20
107.81639682068774
30
0
10
71.01964629196263
20
107.82854926654826
30
0
10
71.00636242721562
20
107.8350393743348
30
0
0
SPLINE
5
332
100
AcDbEntity
8
0
100
AcDbSpline
70
0
71
3
72
15
73
11
74
0
42
0.000000001
43
0.0000000001
44
0.0000000001
40
0
40
0
40
0
40
0
40
0.16915695038258205
40
0.32617312099826296
40
0.47298707590128369
40
0.60888666907093425
40
0.73248230861138364
40
0.83818018028309427
40
0.92731702253010806
40
1
40
1
40
1
40
1
10
71.209180631100423
20
107.64549654379519
30
0
10
71.205253963009554
20
107.6527595325898
30
0
10
71.197682452743919
20
107.66676422892394
30
0
10
71.185267855224254
20
107.68623675549344
30
0
10
71.172871963594304
20
107.70377159310492
30
0
10
71.160034197535424
20
107.71890630706201
30
0
10
71.147856502566469
20
107.73191425156845
30
0
10
71.137090956316499
20
107.74312381760316
30
0
10
71.12749083970634
20
107.75198125466234
30
0
10
71.121432557647509
20
107.75704579132815
30
0
10
71.118711420155449
20
107.7593205782178
30
0
0
SPLINE
5
333
100
AcDbEntity
8
0
100
AcDbSpline
70
0
71
3
72
9
73
5
74
0
42
0.000000001
43
0.0000000001
44
0.0000000001
40
0
40
0
40
0
40
0
40
0.49923048164595862
40
0.99999999999999989
40
0.99999999999999989
40
0.99999999999999989
40
0.99999999999999989
10
71.239173141250674
20
107.5550273328502
30
0
10
71.235398496732955
20
107.57048548456251
30
0
10
71.227837571155533
20
107.60144944265522
30
0
10
71.215405988672728
20
107.63079912000492
30
0
10
71.209180631100423
20
107.64549654379519
30
0
0
SPLINE
5
334
100
AcDbEntity
8
0
100
AcDbSpline
70
0
71
3
72
11
73
7
74
0
42
0.000000001
43
0.0000000001
44
0.0000000001
40
0
40
0
40
0
40
0
40
0.3266674315370347
40
0.60253830923788765
40
0.8259069259940458
40
1
40
1
40
1
40
1
10
71.250727632865932
20
107.45029938757149
30
0
10
71.250134932964272
20
107.46177670869399
30
0
10
71.249041697575151
20
107.48294663564748
30
0
10
71.246663561922134
20
107.51189770284711
30
0
10
71.24379772571325
20
107.53544779175581
30
0
10
71.240581769390474
20
107.54906349052595
30
0
10
71.239173141250674
20
107.5550273328502
30
0
0
SPLINE
5
335
100
AcDbEntity
8
0
100
AcDbSpline
70
0
71
3
72
19
73
15
74
0
42
0.000000001
43
0.0000000001
44
0.0000000001
40
0
40
0
40
0
40
0
40
0.12831012129769542
40
0.25223378224886556
40
0.37419269903746055
40
0.4950655792511735
40
0.55571334115286763
40
0.61686529596898099
40
0.67805071592157329
40
0.7397608179846038
40
0.80267274225020235
40
0.86710903481778712
40
0.93278818112093465
40
1
40
1
40
1
40
1
10
71.04864694972251
20
107.10440215985521
30
0
10
71.063999852204205
20
107.11384527604147
30
0
10
71.094180796796024
20
107.13240868232454
30
0
10
71.134230172805829
20
107.16666380186922
30
0
10
71.169180558815313
20
107.20458018100324
30
0
10
71.193577928807059
20
107.23967104466243
30
0
10
71.209953529725325
20
107.26954160001988
30
0
10
71.220803543606991
20
107.29283639622179
30
0
10
71.229836330837927
20
107.31704611238516
30
0
10
71.237581806523707
20
107.34195626459504
30
0
10
71.243450244772305
20
107.36785099929058
30
0
10
71.24760136615285
20
107.39463004304525
30
0
10
71.250059272667542
20
107.42222843245484
30
0
10
71.25050313971451
20
107.44087073339303
30
0
10
71.250727632865932
20
107.45029938757149
30
0
0
SPLINE
5
336
100
AcDbEntity
8
0
100
AcDbSpline
70
0
71
3
72
19
73
15
74
0
42
0.000000001
43
0.0000000001
44
0.0000000001
40
0
40
0
40
0
40
0
40
0.028451586302629693
40
0.062570946888581128
40
0.10238758186811879
40
0.14796249913984444
40
0.19928897923174538
40
0.2563764931317245
40
0.3197976882229267
40
0.38842613890965966
40
0.53368394330640534
40
0.68359216860786431
40
0.83845506354184707
40
1
40
1
40
1
40
1
10
70.630226849101973
20
107.01417878915736
30
0
10
70.634323541824727
20
107.01395932717605
30
0
10
70.643333019892097
20
107.01347668470298
30
0
10
70.658090931147896
20
107.01400625601353
30
0
10
70.675313447285887
20
107.01429163564221
30
0
10
70.694974875576079
20
107.01569872104359
30
0
10
70.717102575454859
20
107.01738631637951
30
0
10
70.741767867204416
20
107.01963390587912
30
0
10
70.768890339769158
20
107.0223610680913
30
0
10
70.808653013263935
20
107.0264099219529
30
0
10
70.860466767654088
20
107.03496543896944
30
0
10
70.923249131946733
20
107.05157157706739
30
0
10
70.98657808388397
20
107.07444060258096
30
0
10
71.027668075527444
20
107.0942753477691
30
0
10
71.04864694972251
20
107.10440215985521
30
0
0
SPLINE
5
337
100
AcDbEntity
8
0
100
AcDbSpline
70
0
71
3
72
23
73
19
74
0
42
0.000000001
43
0.0000000001
44
0.0000000001
40
0
40
0
40
0
40
0
40
0.041284079430823455
40
0.084120145872071103
40
0.12909512418727651
40
0.1763462113862822
40
0.22580035320771333
40
0.27800411384487039
40
0.33291036596939771
40
0.39084211158268783
40
0.45218265604903646
40
0.51725650945097601
40
0.58628092196083237
40
0.65986085167064656
40
0.73815473413980082
40
0.82047833209597976
40
0.90771591712506605
40
1
40
1
40
1
40
1
10
70.099457755541593
20
108.17552811661415
30
-4.4408920985006262e-15
10
70.10477516277659
20
108.1697024564873
30
-4.4408920985006262e-15
10
70.115609873842857
20
108.15783213295268
30
-4.4408920985006262e-15
10
70.133978307665956
20
108.14132393357178
30
0
10
70.154497627565789
20
108.12567213051895
30
0
10
70.176851201339844
20
108.11040534975049
30
0
10
70.201299728615282
20
108.09583916115427
30
0
10
70.227925912158241
20
108.08221244266255
30
0
10
70.256475239036988
20
108.06883932868453
30
0
10
70.287296848487827
20
108.0562947589988
30
0
10
70.320535962927622
20
108.04463620317891
30
0
10
70.356521357684784
20
108.03464307476845
30
0
10
70.395254750774896
20
108.02605143734385
30
0
10
70.436856666855604
20
108.01895611825293
30
0
10
70.48125340537554
20
108.01348355770088
30
0
10
70.528373299278172
20
108.0089096259324
30
0
10
70.578326670011094
20
108.00630362829946
30
0
10
70.612605586804463
20
108.00571120433587
30
0
10
70.630226849101973
20
108.00540666559804
30
0
0
SPLINE
5
338
100
AcDbEntity
8
0
100
AcDbSpline
70
0
71
3
72
15
73
11
74
0
42
0.000000001
43
0.0000000001
44
0.0000000001
40
0
40
0
40
0
40
0
40
0.17362416581077883
40
0.33055859227354012
40
0.47288050823505934
40
0.60310448003323758
40
0.72153446838466651
40
0.82588600188660455
40
0.91884968109687837
40
1
40
1
40
1
40
1
10
69.993992529599865
20
108.45396044244823
30
0
10
69.994994030572002
20
108.43634803958592
30
0
10
69.996900762563868
20
108.40281623789497
30
0
10
70.004444093044555
20
108.35529445995564
30
-4.4408920985006262e-15
10
70.0158331174528
20
108.31308470972574
30
-4.4408920985006262e-15
10
70.031184776389892
20
108.27634044960217
30
-4.4408920985006262e-15
10
70.048645449106928
20
108.24499210385193
30
-4.4408920985006262e-15
10
70.065318203973717
20
108.21760373776868
30
-4.4408920985006262e-15
10
70.081787407408555
20
108.19452559355078
30
-4.4408920985006262e-15
10
70.093840227784938
20
108.18156754793688
30
-4.4408920985006262e-15
10
70.099457755541593
20
108.17552811661416
30
-4.4408920985006262e-15
0
LINE
5
339
100
AcDbEntity
8
0
100
AcDbLine
10
69.993992529599865
20
108.45396044244823
30
0
11
69.994238129768618
21
108.45381927636882
31
-6.018531076210112e-35
0
SPLINE
5
340
100
AcDbEntity
8
0
100
AcDbSpline
70
0
71
3
72
15
73
11
74
0
42
0.000000001
43
0.0000000001
44
0.0000000001
40
0
40
0
40
0
40
0
40
0.16667320459622836
40
0.32326102298623705
40
0.47068025609032271
40
0.60899186860522003
40
0.73508901034952534
40
0.84176024724323606
40
0.93040812816828211
40
1
40
1
40
1
40
1
10
70.042668658453834
20
108.6541790777823
30
0
10
70.037457898100214
20
108.64383529207046
30
0
10
70.027351680207943
20
108.62377362253659
30
0
10
70.014773717289984
20
108.59352049188793
30
0
10
70.006276156439867
20
108.56392680077823
30
0
10
70.000686979372219
20
108.53583565323645
30
0
10
69.997469572388241
20
108.51023707302502
30
0
10
69.995308145256118
20
108.48801977320554
30
0
10
69.99368379380644
20
108.46965339648622
30
0
10
69.994068806140703
20
108.45865585715417
30
0
10
69.994238129768618
20
108.45381927636882
30
0
0
SPLINE
5
341
100
AcDbEntity
8
0
100
AcDbSpline
70
0
71
3
72
23
73
19
74
0
42
0.000000001
43
0.0000000001
44
0.0000000001
40
0
40
0
40
0
40
0
40
0.090971912459988716
40
0.17725319019405009
40
0.25907286930200618
40
0.33591227411425073
40
0.40806250563182783
40
0.47661708485741316
40
0.54095161785106083
40
0.60138605938258582
40
0.65895225945226321
40
0.713582033090012
40
0.76648914221243725
40
0.81688264326348103
40
0.86494653187061354
40
0.91126154607693366
40
0.95635920525595275
40
1
40
1
40
1
40
1
10
70.488868707000435
20
108.89166075651289
30
0
10
70.473117811911109
20
108.88939459660754
30
0
10
70.442428159165601
20
108.88497912306356
30
0
10
70.397857206595987
20
108.87668943883126
30
0
10
70.356163752220596
20
108.86678418133839
30
0
10
70.3172117393338
20
108.8561179971187
30
0
10
70.281125901801701
20
108.8439839556515
30
0
10
70.247738141587135
20
108.83084415484316
30
0
10
70.217115139804264
20
108.8164160685177
30
0
10
70.189476039835498
20
108.80045072595294
30
0
10
70.164134517821452
20
108.78401196656546
30
0
10
70.140817165933655
20
108.76694119277604
30
0
10
70.119565819345041
20
108.74927468304905
30
0
10
70.099998072752129
20
108.73141576284357
30
0
10
70.082699916542452
20
108.7128771478616
30
0
10
70.067457188230719
20
108.69382016280353
30
0
10
70.053701415408042
20
108.67455995506147
30
0
10
70.046305771419412
20
108.66089793810973
30
0
10
70.042668658453834
20
108.6541790777823
30
0
0
SPLINE
5
342
100
AcDbEntity
8
0
100
AcDbSpline
70
0
71
3
72
9
73
5
74
0
42
0.000000001
43
0.0000000001
44
0.0000000001
40
0
40
0
40
0
40
0
40
0.50425717218372601
40
0.99999999999999989
40
0.99999999999999989
40
0.99999999999999989
40
0.99999999999999989
10
70.631947730831897
20
108.90026516516255
30
0
10
70.607833617594451
20
108.89988810960696
30
0
10
70.560012556105065
20
108.89914036505044
30
0
10
70.5124483306369
20
108.89413976708769
30
0
10
70.488868707000435
20
108.89166075651289
30
0
0
SPLINE
5
343
100
AcDbEntity
8
0
100
AcDbSpline
70
0
71
3
72
19
73
15
74
0
42
0.000000001
43
0.0000000001
44
0.0000000001
40
0
40
0
40
0
40
0
40
0.1602494712419987
40
0.31602767992350561
40
0.46716047481651768
40
0.61545190968554975
40
0.68623687429953983
40
0.74995734425500538
40
0.80775774597749261
40
0.85912963637337947
40
0.9039819960272959
40
0.94241220976209883
40
0.97440382770950607
40
1
40
1
40
1
40
1
10
71.00636242721562
20
108.82626725077549
30
0
10
70.987368300204096
20
108.83406895161147
30
0
10
70.949910018157354
20
108.8494546711121
30
0
10
70.892822690686032
20
108.86766912832368
30
0
10
70.835997407237926
20
108.88096411498432
30
0
10
70.789106481140706
20
108.88840385557967
30
0
10
70.753052219230725
20
108.89194838760922
30
0
10
70.728597058936998
20
108.89495499563893
30
0
10
70.706513402186118
20
108.89667041276348
30
0
10
70.686877620154405
20
108.89864761237966
30
0
10
70.669643021362347
20
108.89945795055584
30
0
10
70.654901934233536
20
108.90029981664411
30
0
10
70.642599384079162
20
108.90062711674958
30
0
10
70.635225304337766
20
108.90037653969799
30
0
10
70.631947730831897
20
108.90026516516255
30
0
0
SPLINE
5
344
100
AcDbEntity
8
0
100
AcDbSpline
70
0
71
3
72
13
73
9
74
0
42
0.000000001
43
0.0000000001
44
0.0000000001
40
0
40
0
40
0
40
0
40
0.074140005934266603
40
0.16251978715995882
40
0.26917521546770784
40
0.39023635104820803
40
0.67435100296314954
40
1
40
1
40
1
40
1
10
71.118711420155449
20
108.75054845465849
30
0
10
71.116269585546817
20
108.75286106538286
30
0
10
71.11091692289358
20
108.75793046075142
30
0
10
71.101655945064934
20
108.76589451034178
30
0
10
71.09042866590346
20
108.77481332626104
30
0
10
71.072158357294512
20
108.7891329363556
30
0
10
71.044519753616214
20
108.80762469712843
30
0
10
71.01964629196263
20
108.81977714298893
30
0
10
71.00636242721562
20
108.82626725077549
30
0
0
SPLINE
5
345
100
AcDbEntity
8
0
100
AcDbSpline
70
0
71
3
72
15
73
11
74
0
42
0.000000001
43
0.0000000001
44
0.0000000001
40
0
40
0
40
0
40
0
40
0.16915695038258205
40
0.32617312099826296
40
0.47298707590128369
40
0.60888666907093425
40
0.73248230861138364
40
0.83818018028309427
40
0.92731702253010806
40
1
40
1
40
1
40
1
10
71.209180631100423
20
108.63672442023586
30
0
10
71.205253963009554
20
108.64398740903049
30
0
10
71.197682452743919
20
108.65799210536463
30
0
10
71.185267855224254
20
108.67746463193413
30
0
10
71.172871963594304
20
108.69499946954561
30
0
10
71.160034197535424
20
108.7101341835027
30
0
10
71.147856502566469
20
108.72314212800914
30
0
10
71.137090956316499
20
108.73435169404385
30
0
10
71.12749083970634
20
108.74320913110303
30
0
10
71.121432557647509
20
108.74827366776884
30
0
10
71.118711420155449
20
108.75054845465849
30
0
0
SPLINE
5
346
100
AcDbEntity
8
0
100
AcDbSpline
70
0
71
3
72
9
73
5
74
0
42
0.000000001
43
0.0000000001
44
0.0000000001
40
0
40
0
40
0
40
0
40
0.49923048164595862
40
0.99999999999999989
40
0.99999999999999989
40
0.99999999999999989
40
0.99999999999999989
10
71.239173141250674
20
108.54625520929089
30
0
10
71.235398496732955
20
108.56171336100317
30
0
10
71.227837571155533
20
108.59267731909591
30
0
10
71.215405988672728
20
108.62202699644561
30
0
10
71.209180631100423
20
108.63672442023586
30
0
0
SPLINE
5
347
100
AcDbEntity
8
0
100
AcDbSpline
70
0
71
3
72
11
73
7
74
0
42
0.000000001
43
0.0000000001
44
0.0000000001
40
0
40
0
40
0
40
0
40
0.3266674315370347
40
0.60253830923788765
40
0.8259069259940458
40
1
40
1
40
1
40
1
10
71.250727632865932
20
108.44152726401218
30
0
10
71.250134932964272
20
108.45300458513466
30
0
10
71.249041697575151
20
108.47417451208815
30
0
10
71.246663561922134
20
108.50312557928777
30
0
10
71.24379772571325
20
108.52667566819649
30
0
10
71.240581769390474
20
108.54029136696664
30
0
10
71.239173141250674
20
108.54625520929089
30
0
0
SPLINE
5
348
100
AcDbEntity
8
0
100
AcDbSpline
70
0
71
3
72
19
73
15
74
0
42
0.000000001
43
0.0000000001
44
0.0000000001
40
0
40
0
40
0
40
0
40
0.12831012129769545
40
0.25223378224886561
40
0.37419269903746072
40
0.49506557925117445
40
0.55571334115286763
40
0.61686529596897999
40
0.6780507159215724
40
0.7397608179846038
40
0.80267274225020335
40
0.86710903481778701
40
0.93278818112093365
40
1
40
1
40
1
40
1
10
71.04864694972251
20
108.0956300362959
30
0
10
71.063999852204205
20
108.10507315248216
30
0
10
71.094180796796024
20
108.12363655876521
30
0
10
71.134230172805829
20
108.15789167830991
30
0
10
71.169180558815313
20
108.19580805744391
30
-4.4408920985006262e-15
10
71.193577928807059
20
108.23089892110312
30
-4.4408920985006262e-15
10
71.209953529725325
20
108.26076947646057
30
-4.4408920985006262e-15
10
71.220803543606991
20
108.28406427266246
30
-4.4408920985006262e-15
10
71.229836330837927
20
108.30827398882585
30
-4.4408920985006262e-15
10
71.237581806523693
20
108.33318414103573
30
-4.4408920985006262e-15
10
71.243450244772305
20
108.35907887573127
30
-4.4408920985006262e-15
10
71.24760136615285
20
108.38585791948594
30
-4.4408920985006262e-15
10
71.250059272667542
20
108.4134563088955
30
0
10
71.25050313971451
20
108.4320986098337
30
0
10
71.250727632865932
20
108.44152726401218
30
0
0
SPLINE
5
349
100
AcDbEntity
8
0
100
AcDbSpline
70
0
71
3
72
19
73
15
74
0
42
0.000000001
43
0.0000000001
44
0.0000000001
40
0
40
0
40
0
40
0
40
0.028451586302629693
40
0.062570946888581142
40
0.10238758186811872
40
0.14796249913984438
40
0.19928897923174538
40
0.25637649313172445
40
0.31979768822292681
40
0.38842613890965955
40
0.53368394330640512
40
0.68359216860786443
40
0.83845506354184707
40
1
40
1
40
1
40
1
10
70.630226849101973
20
108.00540666559804
30
0
10
70.634323541824727
20
108.00518720361674
30
0
10
70.643333019892097
20
108.00470456114367
30
0
10
70.658090931147896
20
108.00523413245422
30
0
10
70.675313447285887
20
108.0055195120829
30
0
10
70.694974875576079
20
108.00692659748428
30
0
10
70.717102575454859
20
108.0086141928202
30
0
10
70.741767867204416
20
108.01086178231978
30
0
10
70.768890339769143
20
108.01358894453199
30
0
10
70.808653013263935
20
108.01763779839359
30
0
10
70.860466767654088
20
108.0261933154101
30
0
10
70.923249131946733
20
108.04279945350808
30
0
10
70.98657808388397
20
108.06566847902162
30
0
10
71.027668075527444
20
108.08550322420979
30
0
10
71.04864694972251
20
108.0956300362959
30
0
0
LWPOLYLINE
5
350
100
AcDbEntity
8
0
100
AcDbPolyline
90
10
70
1
43
0.0
10
71.219260081232889
20
109.76310945465386
10
71.219260081232889
20
109.50142115440185
10
70.028649522329729
20
109.50142115440185
10
70.028649522329729
20
110.19812377195589
10
70.258025195099179
20
110.19812377195589
10
70.258025195099179
20
109.76310945465386
10
70.485089633435848
20
109.76310945465386
10
70.485089633435848
20
110.19812377195589
10
70.715779495182645
20
110.19812377195589
10
70.715779495182659
20
109.76310945465386
0
LWPOLYLINE
5
351
100
AcDbEntity
8
0
100
AcDbPolyline
90
8
70
1
43
0.0
10
70.262225846275044
20
110.50732262059329
10
70.262225846275044
20
110.25073214437217
10
70.027779238251753
20
110.25073214437217
10
70.027779238251753
20
111.01368702798001
10
70.258880594318441
20
111.01368702798001
10
70.258880594318441
20
110.75709655175891
10
71.219260081232875
20
110.75709655175891
10
71.219260081232889
20
110.5073226205933
0
LINE
5
352
100
AcDbEntity
8
0
100
AcDbLine
10
71.219260081232889
20
111.85846085891521
30
0
11
71.219260081232889
21
111.60868692774962
31
0
0
LINE
5
353
100
AcDbEntity
8
0
100
AcDbLine
10
71.219260081232889
20
111.60868692774962
30
0
11
70.025460081232893
21
111.60868692774962
31
1.6135971597315229e-31
0
LINE
5
354
100
AcDbEntity
8
0
100
AcDbLine
10
70.025460081232893
20
111.60868692774962
30
1.6135971597315229e-31
11
70.025705681401661
21
111.92237932316984
31
0
0
SPLINE
5
355
100
AcDbEntity
8
0
100
AcDbSpline
70
0
71
3
72
9
73
5
74
0
42
0.000000001
43
0.0000000001
44
0.0000000001
40
0
40
0
40
0
40
0
40
0.50130878794332612
40
1
40
1
40
1
40
1
10
70.027180722884466
20
112.02440302573007
30
0
10
70.026565800513879
20
112.00735987908628
30
0
10
70.02533916658011
20
111.97336257631864
30
0
10
70.025583723176283
20
111.9393440588691
30
0
10
70.025705681401661
20
111.92237932316982
30
0
0
SPLINE
5
356
100
AcDbEntity
8
0
100
AcDbSpline
70
0
71
3
72
15
73
11
74
0
42
0.000000001
43
0.0000000001
44
0.0000000001
40
0
40
0
40
0
40
0
40
0.12854479723494011
40
0.25131763580772093
40
0.37180845845096439
40
0.491443475825521
40
0.61351371872496063
40
0.73791176180988738
40
0.86674197765621952
40
1
40
1
40
1
40
1
10
70.164851261278997
20
112.3439953470031
30
0
10
70.152904311412655
20
112.33416416263611
30
0
10
70.1295468573569
20
112.31494323681532
30
0
10
70.100258824696994
20
112.28090503627033
30
-4.4408920985006262e-15
10
70.076672735626261
20
112.24405575871373
30
-4.4408920985006262e-15
10
70.05888849549153
20
112.20414966241471
30
-4.4408920985006262e-15
10
70.046287632094547
20
112.16192289377021
30
-4.4408920985006262e-15
10
70.036351072107891
20
112.11790416566892
30
-4.4408920985006262e-15
10
70.029570868073748
20
112.0718774473101
30
-4.4408920985006262e-15
10
70.027986361011926
20
112.04040506789717
30
0
10
70.027180722884466
20
112.02440302573007
30
0
0
SPLINE
5
357
100
AcDbEntity
8
0
100
AcDbSpline
70
0
71
3
72
15
73
11
74
0
42
0.000000001
43
0.0000000001
44
0.0000000001
40
0
40
0
40
0
40
0
40
0.17857180374989254
40
0.33946715511845438
40
0.48445754405918956
40
0.61522915216269203
40
0.73222210004865829
40
0.83413994068133723
40
0.92328134640350601
40
0.99999999999999989
40
0.99999999999999989
40
0.99999999999999989
40
0.99999999999999989
10
70.390040927652919
20
112.40889717224624
30
0
10
70.375848529085744
20
112.40846003810701
30
0
10
70.348868608041471
20
112.4076290408301
30
0
10
70.310606781951492
20
112.403063393956
30
0
10
70.276402370229974
20
112.39684221833734
30
0
10
70.246619909536719
20
112.38726916986613
30
0
10
70.220902184077275
20
112.37668088587598
30
0
10
70.198867006721969
20
112.36602369890474
30
0
10
70.180139190998133
20
112.35578338110214
30
0
10
70.169686266668535
20
112.3477234651622
30
0
10
70.164851261278997
20
112.3439953470031
30
0
0
SPLINE
5
358
100
AcDbEntity
8
0
100
AcDbSpline
70
0
71
3
72
15
73
11
74
0
42
0.000000001
43
0.0000000001
44
0.0000000001
40
0
40
0
40
0
40
0
40
0.16376283965347596
40
0.31516966241940292
40
0.4560053697710662
40
0.5899621931728074
40
0.71349919173729326
40
0.82295427269725641
40
0.91767605091083793
40
1
40
1
40
1
40
1
10
70.669069608148988
20
112.30072746350768
30
-4.4408920985006262e-15
10
70.656643008204853
20
112.31205261239313
30
0
10
70.632727403677592
20
112.33384842002957
30
0
10
70.593701424988055
20
112.35984877189296
30
0
10
70.554893931018711
20
112.38022468313918
30
0
10
70.515881178826035
20
112.39288211250525
30
0
10
70.479000822472486
20
112.40039661366153
30
0
10
70.445936432942716
20
112.40637526829333
30
0
10
70.416647843420918
20
112.40939933605446
30
0
10
70.39848596413357
20
112.4090565590657
30
0
10
70.390040927652919
20
112.40889717224624
30
0
0
SPLINE
5
359
100
AcDbEntity
8
0
100
AcDbSpline
70
0
71
3
72
15
73
11
74
0
42
0.000000001
43
0.0000000001
44
0.0000000001
40
0
40
0
40
0
40
0
40
0.12868929778411961
40
0.25665854058053755
40
0.38169593429528648
40
0.50606614773395786
40
0.62806465377589449
40
0.74885191772237736
40
0.87203075720358181
40
0.99999999999999989
40
0.99999999999999989
40
0.99999999999999989
40
0.99999999999999989
10
70.762980822632201
20
111.94665436702564
30
0
10
70.763325205019413
20
111.96282012848309
30
0
10
70.764012042871698
20
111.99506119914307
30
0
10
70.761829046708357
20
112.04298789957443
30
0
10
70.757882358005361
20
112.09023640731564
30
-4.4408920985006262e-15
10
70.752201197618774
20
112.13654938007321
30
-4.4408920985006262e-15
10
70.742264420697751
20
112.18178790674361
30
-4.4408920985006262e-15
10
70.724141511199178
20
112.2242398083168
30
-4.4408920985006262e-15
10
70.700376395053482
20
112.26471765013926
30
-4.4408920985006262e-15
10
70.679637064578941
20
112.28857252295174
30
-4.4408920985006262e-15
10
70.669069608148988
20
112.30072746350768
30
-4.4408920985006262e-15
0
LINE
5
360
100
AcDbEntity
8
0
100
AcDbLine
10
70.762980822632201
20
111.94665436702564
30
0
11
70.762980822632201
21
111.85846085891521
31
0
0
LINE
5
361
100
AcDbEntity
8
0
100
AcDbLine
10
70.762980822632201
20
111.85846085891521
30
0
11
71.219260081232889
21
111.85846085891521
31
0
0
LWPOLYLINE
5
362
100
AcDbEntity
8
0
100
AcDbPolyline
90
12
70
1
43
0.0
10
71.219260081232875
20
113.15927314984964
10
71.219260081232875
20
112.48977837347466
10
70.026079963574773
20
112.48977837347466
10
70.026079963574787
20
113.16097242452659
10
70.258880594318455
20
113.16097242452659
10
70.258880594318441
20
112.73955230464026
10
70.4931092111851
20
112.73955230464026
10
70.4931092111851
20
113.15077677646484
10
70.715779495182645
20
113.15077677646484
10
70.715779495182659
20
112.73955230464026
10
70.985220165962176
20
112.73955230464026
10
70.985220165962176
20
113.15927314984962
0
LINE
5
363
100
AcDbEntity
8
0
100
AcDbLine
10
71.219260081232875
20
113.57344242291576
30
0
11
71.219260081232875
21
113.32366849175017
31
0
0
LINE
5
364
100
AcDbEntity
8
0
100
AcDbLine
10
71.219260081232875
20
113.32366849175017
30
0
11
70.025460081232879
21
113.32366849175015
31
9.9729957752762494e-32
0
LINE
5
365
100
AcDbEntity
8
0
100
AcDbLine
10
70.025460081232879
20
113.32366849175015
30
9.9729957752762494e-32
11
70.025705681401661
21
113.64252353236014
31
0
0
SPLINE
5
366
100
AcDbEntity
8
0
100
AcDbSpline
70
0
71
3
72
9
73
5
74
0
42
0.000000001
43
0.0000000001
44
0.0000000001
40
0
40
0
40
0
40
0
40
0.50011589873649009
40
0.99999999999999989
40
0.99999999999999989
40
0.99999999999999989
40
0.99999999999999989
10
70.027180722884452
20
113.73938458973059
30
0
10
70.026566093774051
20
113.72324295204882
30
0
10
70.025337120426158
20
113.69096715813271
30
0
10
70.025582846729407
20
113.65866891206707
30
0
10
70.025705681401661
20
113.64252353236014
30
0
0
SPLINE
5
367
100
AcDbEntity
8
0
100
AcDbSpline
70
0
71
3
72
19
73
15
74
0
42
0.000000001
43
0.0000000001
44
0.0000000001
40
0
40
0
40
0
40
0
40
0.06623396756682981
40
0.13100179755215216
40
0.19415187850312551
40
0.25559672862218918
40
0.31622355387894124
40
0.37626936232370989
40
0.43632578488194718
40
0.49685089603319699
40
0.61911139742664612
40
0.74313006551891359
40
0.86943022742085863
40
1
40
1
40
1
40
1
10
70.175422391905727
20
114.06905636113609
30
-4.4408920985006262e-15
10
70.168633358402005
20
114.06423168595877
30
-4.4408920985006262e-15
10
70.155205571643947
20
114.05468913333733
30
-4.4408920985006262e-15
10
70.13651193910593
20
114.03894411680865
30
-4.4408920985006262e-15
10
70.11956974743066
20
114.02219727676062
30
-4.4408920985006262e-15
10
70.104152384722866
20
114.00470884053664
30
-4.4408920985006262e-15
10
70.090702608582248
20
113.98615195246792
30
0
10
70.078504369230913
20
113.96696286391349
30
0
10
70.0681306201257
20
113.94671855433262
30
0
10
70.056817039402276
20
113.91833904222771
30
0
10
70.045344829157543
20
113.88144312378148
30
0
10
70.03570926695356
20
113.83556716778743
30
0
10
70.029011230679458
20
113.78808462185586
30
0
10
70.02779761625429
20
113.75579682627558
30
0
10
70.027180722884452
20
113.73938458973059
30
0
0
SPLINE
5
368
100
AcDbEntity
8
0
100
AcDbSpline
70
0
71
3
72
15
73
11
74
0
42
0.000000001
43
0.0000000001
44
0.0000000001
40
0
40
0
40
0
40
0
40
0.07254149358927249
40
0.16165555483242475
40
0.27006445875450708
40
0.39567187168020879
40
0.53476209938319008
40
0.68054165457402682
40
0.83498926631961634
40
0.99999999999999989
40
0.99999999999999989
40
0.99999999999999989
40
0.99999999999999989
10
70.375290512824932
20
114.12387873624678
30
-4.4408920985006262e-15
10
70.370208338606631
20
114.12394541399466
30
-4.4408920985006262e-15
10
70.35888293500156
20
114.12409400244795
30
-4.4408920985006262e-15
10
70.339999257894178
20
114.12268269857664
30
-4.4408920985006262e-15
10
70.317534863835661
20
114.11991714562348
30
-4.4408920985006262e-15
10
70.291720377570655
20
114.11583941213813
30
-4.4408920985006262e-15
10
70.263561073770632
20
114.10983295348485
30
-4.4408920985006262e-15
10
70.234398483037637
20
114.09980339029538
30
-4.4408920985006262e-15
10
70.204748840287039
20
114.08615391376026
30
-4.4408920985006262e-15
10
70.185411014446018
20
114.07487980751137
30
-4.4408920985006262e-15
10
70.175422391905727
20
114.06905636113609
30
-4.4408920985006262e-15
0
SPLINE
5
369
100
AcDbEntity
8
0
100
AcDbSpline
70
0
71
3
72
15
73
11
74
0
42
0.000000001
43
0.0000000001
44
0.0000000001
40
0
40
0
40
0
40
0
40
0.12546376161612147
40
0.2486680034456773
40
0.37119052249586093
40
0.49713490623674766
40
0.62421240200155681
40
0.74949435896698446
40
0.87390525306585221
40
1
40
1
40
1
40
1
10
70.664398643453467
20
113.98915828081783
30
0
10
70.656014699031033
20
114.00023625278138
30
0
10
70.639397799508259
20
114.02219268972311
30
-4.4408920985006262e-15
10
70.609273655029639
20
114.05037601267583
30
-4.4408920985006262e-15
10
70.575347514003013
20
114.07382581758613
30
-4.4408920985006262e-15
10
70.537952282057546
20
114.09213736708944
30
-4.4408920985006262e-15
10
70.498627636414042
20
114.10663513699345
30
-4.4408920985006262e-15
10
70.458106100332088
20
114.1165313482436
30
-4.4408920985006262e-15
10
70.416975372192695
20
114.12315928779385
30
-4.4408920985006262e-15
10
70.389247592957901
20
114.12363784783162
30
-4.4408920985006262e-15
10
70.375290512824932
20
114.12387873624678
30
-4.4408920985006262e-15
0
SPLINE
5
370
100
AcDbEntity
8
0
100
AcDbSpline
70
0
71
3
72
13
73
9
74
0
42
0.000000001
43
0.0000000001
44
0.0000000001
40
0
40
0
40
0
40
0
40
0.18308526202232481
40
0.34469437153909865
40
0.48162124311799082
40
0.59504095003946245
40
0.79889431566763258
40
1
40
1
40
1
40
1
10
70.712312523494319
20
113.85877436092011
30
0
10
70.71040005222136
20
113.86709212752945
30
0
10
70.706799445180508
20
113.88275197530932
30
0
10
70.701086139451817
20
113.90445998482758
30
0
10
70.696150550226918
20
113.92302851462506
30
0
10
70.689201394984863
20
113.9430313711219
30
0
10
70.679642782992701
20
113.96532592275044
30
0
10
70.669456986136396
20
113.9812501772652
30
0
10
70.664398643453467
20
113.98915828081783
30
0
0
LINE
5
371
100
AcDbEntity
8
0
100
AcDbLine
10
70.712312523494319
20
113.85877436092011
30
0
11
71.219260081232875
21
114.2005916968788
31
-1.2325951644078309e-31
0
LINE
5
372
100
AcDbEntity
8
0
100
AcDbLine
10
71.219260081232875
20
114.2005916968788
30
-1.2325951644078309e-31
11
71.219260081232875
21
113.89599803146454
31
-4.4408920985006262e-15
0
LINE
5
373
100
AcDbEntity
8
0
100
AcDbLine
10
71.219260081232875
20
113.89599803146454
30
-4.4408920985006262e-15
11
70.71573508068488
21
113.57344242291576
31
0
0
LINE
5
374
100
AcDbEntity
8
0
100
AcDbLine
10
70.71573508068488
20
113.57344242291576
30
0
11
71.219260081232875
21
113.57344242291576
31
0
0
LINE
5
375
100
AcDbEntity
8
0
100
AcDbLine
10
71.219260081232875
20
114.7082407636038
30
0
11
70.025460081232879
21
114.87644518886468
31
3.0814879110195774e-31
0
LINE
5
376
100
AcDbEntity
8
0
100
AcDbLine
10
70.025460081232879
20
114.87644518886468
30
3.0814879110195774e-31
11
70.025460081232879
21
115.14543667302077
31
0
0
LINE
5
377
100
AcDbEntity
8
0
100
AcDbLine
10
70.025460081232879
20
115.14543667302077
30
0
11
70.533611631978644
21
115.32431666299773
31
-6.1629758220391547e-32
0
SPLINE
5
378
100
AcDbEntity
8
0
100
AcDbSpline
70
0
71
3
72
9
73
5
74
0
42
0.000000001
43
0.0000000001
44
0.0000000001
40
0
40
0
40
0
40
0
40
0.50223036928747744
40
1
40
1
40
1
40
1
10
70.748967688467246
20
115.39585617491348
30
0
10
70.712785921794094
20
115.38426797275795
30
0
10
70.640743749743677
20
115.36119449320719
30
0
10
70.569215982343252
20
115.33657266255096
30
0
10
70.533611631978644
20
115.32431666299773
30
0
0
SPLINE
5
379
100
AcDbEntity
8
0
100
AcDbSpline
70
0
71
3
72
9
73
5
74
0
42
0.000000001
43
0.0000000001
44
0.0000000001
40
0
40
0
40
0
40
0
40
0.49962950214842533
40
1
40
1
40
1
40
1
10
70.851483071521756
20
115.42314444234523
30
0
10
70.834329423709121
20
115.41890186384376
30
0
10
70.799996687673982
20
115.41041041471345
30
0
10
70.765985755521029
20
115.40070998417258
30
0
10
70.748967688467246
20
115.39585617491348
30
0
0
SPLINE
5
380
100
AcDbEntity
8
0
100
AcDbSpline
70
0
71
3
72
9
73
5
74
0
42
0.000000001
43
0.0000000001
44
0.0000000001
40
0
40
0
40
0
40
0
40
0.49980677822725572
40
1
40
1
40
1
40
1
10
70.678903218034307
20
115.47403337350178
30
0
10
70.707672080352609
20
115.46561169166758
30
0
10
70.765232048667443
20
115.44876181647365
30
0
10
70.822725324601862
20
115.43168576669778
30
0
10
70.851483071521756
20
115.42314444234523
30
0
0
SPLINE
5
381
100
AcDbEntity
8
0
100
AcDbSpline
70
0
71
3
72
9
73
5
74
0
42
0.000000001
43
0.0000000001
44
0.0000000001
40
0
40
0
40
0
40
0
40
0.49959969301512486
40
1
40
1
40
1
40
1
10
70.494148270354628
20
115.53731899118273
30
0
10
70.524923854409721
20
115.52680244541052
30
0
10
70.586524340729795
20
115.50575250098657
30
0
10
70.648093827802313
20
115.48461205777477
30
0
10
70.678903218034307
20
115.47403337350178
30
0
0
LINE
5
382
100
AcDbEntity
8
0
100
AcDbLine
10
70.494148270354628
20
115.53731899118273
30
0
11
70.025460081232893
21
115.70429493544303
31
1.2325951644078309e-31
0
LINE
5
383
100
AcDbEntity
8
0
100
AcDbLine
10
70.025460081232893
20
115.70429493544303
30
1.2325951644078309e-31
11
70.025460081232879
21
115.97040884030017
31
0
0
LINE
5
384
100
AcDbEntity
8
0
100
AcDbLine
10
70.025460081232879
20
115.97040884030017
30
0
11
71.219260081232875
21
116.13804740085158
31
-4.4408920985006262e-15
0
LINE
5
385
100
AcDbEntity
8
0
100
AcDbLine
10
71.219260081232875
20
116.13804740085158
30
-4.4408920985006262e-15
11
71.219260081232875
21
115.88827370976433
31
-4.4408920985006262e-15
0
LINE
5
386
100
AcDbEntity
8
0
100
AcDbLine
10
71.219260081232875
20
115.88827370976433
30
-4.4408920985006262e-15
11
70.644731423682813
21
115.81673467800535
31
9.2444637330587321e-32
0
SPLINE
5
387
100
AcDbEntity
8
0
100
AcDbSpline
70
0
71
3
72
9
73
5
74
0
42
0.000000001
43
0.0000000001
44
0.0000000001
40
0
40
0
40
0
40
0
40
0.49967004498157025
40
0.99999999999999989
40
0.99999999999999989
40
0.99999999999999989
40
0.99999999999999989
10
70.47559333365524
20
115.80124674243595
30
0
10
70.503792304385456
20
115.80352175042347
30
0
10
70.560227487989977
20
115.80807477098242
30
0
10
70.616551055622679
20
115.81384677266377
30
0
10
70.644731423682813
20
115.81673467800535
30
0
0
SPLINE
5
388
100
AcDbEntity
8
0
100
AcDbSpline
70
0
71
3
72
9
73
5
74
0
42
0.000000001
43
0.0000000001
44
0.0000000001
40
0
40
0
40
0
40
0
40
0.4989325892502689
40
1
40
1
40
1
40
1
10
70.35242736984155
20
115.79952586070603
30
0
10
70.372915475790762
20
115.79950611528487
30
0
10
70.413979351734397
20
115.79946653995631
30
0
10
70.455026130499689
20
115.80065249767341
30
0
10
70.47559333365524
20
115.80124674243595
30
0
0
SPLINE
5
389
100
AcDbEntity
8
0
100
AcDbSpline
70
0
71
3
72
9
73
5
74
0
42
0.000000001
43
0.0000000001
44
0.0000000001
40
0
40
0
40
0
40
0
40
0.50024477084609487
40
1
40
1
40
1
40
1
10
70.658223587792804
20
115.70429493544303
30
0
10
70.607523223948505
20
115.72110776431587
30
0
10
70.506172111854823
20
115.75471696895468
30
0
10
70.403658889013784
20
115.78459443887796
30
0
10
70.35242736984155
20
115.79952586070603
30
0
0
LINE
5
390
100
AcDbEntity
8
0
100
AcDbLine
10
70.658223587792804
20
115.70429493544303
30
0
11
71.219260081232875
21
115.50494610403021
31
-1.2325951644078309e-31
0
LINE
5
391
100
AcDbEntity
8
0
100
AcDbLine
10
71.219260081232875
20
115.50494610403021
30
-1.2325951644078309e-31
11
71.219260081232875
21
115.34137783210176
31
0
0
LINE
5
392
100
AcDbEntity
8
0
100
AcDbLine
10
71.219260081232875
20
115.34137783210176
30
0
11
70.620639079463771
21
115.12321934084285
31
1.2325951644078309e-31
0
SPLINE
5
393
100
AcDbEntity
8
0
100
AcDbSpline
70
0
71
3
72
9
73
5
74
0
42
0.000000001
43
0.0000000001
44
0.0000000001
40
0
40
0
40
0
40
0
40
0.50004831244670078
40
1
40
1
40
1
40
1
10
70.470430688465441
20
115.07380545116909
30
0
10
70.495771530681665
20
115.08111874116864
30
0
10
70.546448318474887
20
115.09574390801251
30
0
10
70.595910418890867
20
115.11406145320969
30
0
10
70.620639079463771
20
115.12321934084285
30
0
0
SPLINE
5
394
100
AcDbEntity
8
0
100
AcDbSpline
70
0
71
3
72
9
73
5
74
0
42
0.000000001
43
0.0000000001
44
0.0000000001
40
0
40
0
40
0
40
0
40
0.50374377562348993
40
1
40
1
40
1
40
1
10
70.36103177849121
20
115.04307542027746
30
0
10
70.379504485232644
20
115.04786878256569
30
0
10
70.416175323931469
20
115.05738425952082
30
0
10
70.452436068348149
20
115.06835911221032
30
0
10
70.470430688465441
20
115.07380545116909
30
0
0
SPLINE
5
395
100
AcDbEntity
8
0
100
AcDbSpline
70
0
71
3
72
9
73
5
74
0
42
0.000000001
43
0.0000000001
44
0.0000000001
40
0
40
0
40
0
40
0
40
0.50013576065751919
40
1
40
1
40
1
40
1
10
70.497718955897227
20
115.03963365681759
30
0
10
70.474940854133038
20
115.04057603328229
30
0
10
70.429397016727307
20
115.04246027459999
30
0
10
70.383816065836669
20
115.04287040883837
30
0
10
70.36103177849121
20
115.04307542027746
30
0
0
SPLINE
5
396
100
AcDbEntity
8
0
100
AcDbSpline
70
0
71
3
72
9
73
5
74
0
42
0.000000001
43
0.0000000001
44
0.0000000001
40
0
40
0
40
0
40
0
40
0.50076235460541263
40
1
40
1
40
1
40
1
10
70.671896530912647
20
115.0210566329085
30
0
10
70.642858432277961
20
115.02449283584086
30
0
10
70.58487064951504
20
115.03135477923728
30
0
10
70.5267399763122
20
115.0368768374685
30
0
10
70.497718955897213
20
115.03963365681759
30
0
0
LINE
5
397
100
AcDbEntity
8
0
100
AcDbLine
10
70.671896530912647
20
115.0210566329085
30
0
11
71.219260081232875
21
114.95801469476942
31
-1.5407439555097887e-31
0
LINE
5
398
100
AcDbEntity
8
0
100
AcDbLine
10
71.219260081232875
20
114.95801469476942
30
-1.5407439555097887e-31
11
71.219260081232875
21
114.7082407636038
31
0
0
LWPOLYLINE
5
399
100
AcDbEntity
8
0
100
AcDbPolyline
90
4
70
1
43
0.0
10
71.219260081232875
20
116.298827162555
10
70.025460081232879
20
116.298827162555
10
70.025460081232879
20
116.56138478657152
10
71.219260081232875
20
116.56138478657152
0
LINE
5
400
100
AcDbEntity
8
0
100
AcDbLine
10
71.219260081232875
20
116.99972803050123
30
0
11
71.219260081232875
21
116.75363161975125
31
0
0
LINE
5
401
100
AcDbEntity
8
0
100
AcDbLine
10
71.219260081232875
20
116.75363161975125
30
0
11
70.025460081232879
21
116.75363161975125
31
1.9217459508334719e-31
0
LINE
5
402
100
AcDbEntity
8
0
100
AcDbLine
10
70.025460081232879
20
116.75363161975125
30
1.9217459508334719e-31
11
70.025460081232879
21
116.98939409730045
31
0
0
LINE
5
403
100
AcDbEntity
8
0
100
AcDbLine
10
70.025460081232879
20
116.98939409730045
30
0
11
70.595071693761923
21
117.39748746707122
31
0
0
SPLINE
5
404
100
AcDbEntity
8
0
100
AcDbSpline
70
0
71
3
72
13
73
9
74
0
42
0.000000001
43
0.0000000001
44
0.0000000001
40
0
40
0
40
0
40
0
40
0.19301113105468048
40
0.40342279569339295
40
0.5232914554450725
40
0.66268941923771607
40
0.82131586407760226
40
0.99999999999999989
40
0.99999999999999989
40
0.99999999999999989
40
0.99999999999999989
10
70.895980156252847
20
117.57596748648986
30
0
10
70.875642066737385
20
117.56624334183368
30
0
10
70.833132347807961
20
117.54591839165343
30
0
10
70.779644920617997
20
117.51630021564402
30
0
10
70.732378271171086
20
117.48847028389056
30
0
10
70.691224085375154
20
117.46223282945292
30
0
10
70.644601210105947
20
117.43180958294479
30
0
10
70.612223301219174
20
117.40937289422695
30
0
10
70.595071693761923
20
117.39748746707122
30
0
0
SPLINE
5
405
100
AcDbEntity
8
0
100
AcDbSpline
70
0
71
3
72
9
73
5
74
0
42
0.000000001
43
0.0000000001
44
0.0000000001
40
0
40
0
40
0
40
0
40
0.49887947829193968
40
0.99999999999999989
40
0.99999999999999989
40
0.99999999999999989
40
0.99999999999999989
10
70.675461454574446
20
117.56097123141473
30
0
10
70.712194201570696
20
117.56255286868111
30
0
10
70.78582470471747
20
117.56572324817198
30
0
10
70.85920685487956
20
117.57254764246258
30
0
10
70.895980156252847
20
117.57596748648986
30
0
0
SPLINE
5
406
100
AcDbEntity
8
0
100
AcDbSpline
70
0
71
3
72
9
73
5
74
0
42
0.000000001
43
0.0000000001
44
0.0000000001
40
0
40
0
40
0
40
0
40
0.49986789216380911
40
1
40
1
40
1
40
1
10
70.511239449254433
20
117.55605394631533
30
0
10
70.538613577426915
20
117.55650502662839
30
0
10
70.593376302942232
20
117.55740742568247
30
0
10
70.648094918191802
20
117.55978308694166
30
0
10
70.675461454574446
20
117.56097123141473
30
0
0
LINE
5
407
100
AcDbEntity
8
0
100
AcDbLine
10
70.511239449254433
20
117.55605394631533
30
0
11
70.025460081232879
21
117.55087113454277
31
1.2325951644078309e-31
0
LINE
5
408
100
AcDbEntity
8
0
100
AcDbLine
10
70.025460081232879
20
117.55087113454277
30
1.2325951644078309e-31
11
70.025460081232879
21
117.79009410166441
31
0
0
LINE
5
409
100
AcDbEntity
8
0
100
AcDbLine
10
70.025460081232879
20
117.79009410166441
30
0
11
71.219260081232875
21
117.79009410166441
31
-1.9217459508334719e-31
0
LINE
5
410
100
AcDbEntity
8
0
100
AcDbLine
10
71.219260081232875
20
117.79009410166441
30
-1.9217459508334719e-31
11
71.219260081232875
21
117.56269355361485
31
0
0
LINE
5
411
100
AcDbEntity
8
0
100
AcDbLine
10
71.219260081232875
20
117.56269355361485
30
0
11
70.62580172465357
21
117.13910936733433
31
1.2325951644078309e-31
0
SPLINE
5
412
100
AcDbEntity
8
0
100
AcDbSpline
70
0
71
3
72
9
73
5
74
0
42
0.000000001
43
0.0000000001
44
0.0000000001
40
0
40
0
40
0
40
0
40
0.49855440166824438
40
1
40
1
40
1
40
1
10
70.463547161545705
20
117.02897293661869
30
0
10
70.490873823586341
20
117.0467419715029
30
0
10
70.545685619348632
20
117.08238308674476
30
0
10
70.599044932129559
20
117.12016419626521
30
0
10
70.62580172465357
20
117.13910936733433
30
0
0
SPLINE
5
413
100
AcDbEntity
8
0
100
AcDbSpline
70
0
71
3
72
9
73
5
74
0
42
0.000000001
43
0.0000000001
44
0.0000000001
40
0
40
0
40
0
40
0
40
0.50037990144500444
40
1
40
1
40
1
40
1
10
70.369390346893738
20
116.97218383953094
30
0
10
70.385138669768196
20
116.98158359665018
30
0
10
70.416611402443891
20
117.0003688378082
30
0
10
70.447909835391712
20
117.01944306790024
30
0
10
70.463547161545705
20
117.02897293661869
30
0
0
SPLINE
5
414
100
AcDbEntity
8
0
100
AcDbSpline
70
0
71
3
72
9
73
5
74
0
42
0.000000001
43
0.0000000001
44
0.0000000001
40
0
40
0
40
0
40
0
40
0.49465774765025761
40
1
40
1
40
1
40
1
10
70.516402814679338
20
116.98250912991054
30
0
10
70.492138769442988
20
116.98114541063036
30
0
10
70.443086580628375
20
116.97838851601657
30
0
10
70.394130116661728
20
116.97426674472106
30
0
10
70.369390346893738
20
116.97218383953094
30
0
0
SPLINE
5
415
100
AcDbEntity
8
0
100
AcDbSpline
70
0
71
3
72
9
73
5
74
0
42
0.000000001
43
0.0000000001
44
0.0000000001
40
0
40
0
40
0
40
0
40
0.49926135991793175
40
1
40
1
40
1
40
1
10
70.647968880452922
20
116.98767177510034
30
0
10
70.626076080389424
20
116.98674930093235
30
0
10
70.582225700966688
20
116.98490162305853
30
0
10
70.538365374771743
20
116.98330741265833
30
0
10
70.516402814679338
20
116.98250912991054
30
0
0
LINE
5
416
100
AcDbEntity
8
0
100
AcDbLine
10
70.647968880452922
20
116.98767177510034
30
0
11
71.219260081232875
21
116.99972803050123
31
0
0
CIRCLE
5
417
100
AcDbEntity
8
0
100
AcDbCircle
10
76.200003623962033
20
111.442499160766
30
0
40
0.7937499999999964
210
2.2504056563021575e-31
220
1.561532608983338e-46
230
1
0
LWPOLYLINE
5
418
100
AcDbEntity
8
0
100
AcDbPolyline
90
12
70
1
43
0.0
10
79.196536316026098
20
130.63077209323669
42
0.077612057477341498
10
73.20347093189794
20
130.63077209323669
10
72.715884629212141
20
133.39601142715333
10
71.965461121416837
20
133.26369151577111
10
72.794665899411967
20
128.56103753358727
10
73.545089407207257
20
128.69335744496942
10
73.3411112561095
20
129.85017502488941
42
-0.077192180565466881
10
79.058895991814524
20
129.85017502488941
10
78.854917840716766
20
128.69335744496942
10
79.605341348512056
20
128.56103753358727
10
80.4345461265072
20
133.26369151577114
10
79.684122618711896
20
133.39601142715333
0
LWPOLYLINE
5
419
100
AcDbEntity
8
0
100
AcDbPolyline
90
4
70
1
43
0.0
10
91.78074799401692
20
95.592347107079007
10
89.517723451507507
20
97.85537164958842
10
89.787131135139589
20
98.124779333220502
10
92.050155677649002
20
95.861754790711089
0
LWPOLYLINE
5
420
100
AcDbEntity
8
0
100
AcDbPolyline
90
4
70
1
43
0.0
10
77.947264916542267
20
89.28546882668364
10
77.668331677452656
20
92.473690338456436
10
78.047881857425608
20
92.506896676443304
10
78.326815096515219
20
89.318675164670495
0
LWPOLYLINE
5
421
100
AcDbEntity
8
0
100
AcDbPolyline
90
4
70
1
43
0.0
10
79.871728495660719
20
89.522066872224229
10
79.315984867855477
20
92.673845604964498
10
79.691196621753136
20
92.74000556065559
10
80.246940249558364
20
89.588226827915335
0
LWPOLYLINE
5
422
100
AcDbEntity
8
0
100
AcDbPolyline
90
4
70
1
43
0.0
10
81.76824803145746
20
89.925492643399537
10
80.939923559511357
20
93.016841657855039
10
81.307941299327496
20
93.115451714039125
10
82.136265771273585
20
90.024102699583594
0
LWPOLYLINE
5
423
100
AcDbEntity
8
0
100
AcDbPolyline
90
4
70
1
43
0.0
10
83.622389865115267
20
90.492675826495741
10
82.52778859841581
20
93.500068090058932
10
82.885811486935225
20
93.630377764666036
10
83.980412753634681
20
90.622985501102832
0
LWPOLYLINE
5
424
100
AcDbEntity
8
0
100
AcDbPolyline
90
4
70
1
43
0.0
10
87.147525784541031
20
92.099834561656948
10
85.547325784541044
20
94.871462263928649
10
85.877281463382914
20
95.061962263928649
10
87.477481463382901
20
92.290334561656934
0
LWPOLYLINE
5
425
100
AcDbEntity
8
0
100
AcDbPolyline
90
4
70
1
43
0.0
10
88.791691457426907
20
93.127578665318381
10
86.95601743052903
20
95.749192867860856
10
87.268114359403128
20
95.967725490110581
10
89.103788386301005
20
93.346111287568121
0
LWPOLYLINE
5
426
100
AcDbEntity
8
0
100
AcDbPolyline
90
4
70
1
43
0.0
10
90.340026782831103
20
94.294710372801504
10
88.282849316790333
20
96.746359008559466
10
88.574712249618671
20
96.991261087850035
10
90.631889715659469
20
94.539612452092072
0
LWPOLYLINE
5
427
100
AcDbEntity
8
0
100
AcDbPolyline
90
4
70
1
43
0.0
10
60.61925925390716
20
95.592347107078993
10
60.349851570275078
20
95.861754790711075
10
62.612876112784477
20
98.124779333220488
10
62.882283796416559
20
97.855371649588406
0
LWPOLYLINE
5
428
100
AcDbEntity
8
0
100
AcDbPolyline
90
4
70
1
43
0.0
10
62.059980465092963
20
94.294710372801489
10
61.768117532264633
20
94.539612452092058
10
63.825294998305409
20
96.99126108785002
10
64.117157931133747
20
96.746359008559452
0
LWPOLYLINE
5
429
100
AcDbEntity
8
0
100
AcDbPolyline
90
4
70
1
43
0.0
10
63.608315790497173
20
93.127578665318367
10
63.296218861623075
20
93.346111287568107
10
65.131892888520952
20
95.967725490110581
10
65.44398981739505
20
95.749192867860828
0
LWPOLYLINE
5
430
100
AcDbEntity
8
0
100
AcDbPolyline
90
4
70
1
43
0.0
10
65.252481463383049
20
92.099834561656934
10
64.922525784541179
20
92.290334561656934
10
66.522725784541166
20
95.061962263928649
10
66.852681463383036
20
94.871462263928635
0
LWPOLYLINE
5
431
100
AcDbEntity
8
0
100
AcDbPolyline
90
4
70
1
43
0.0
10
68.777617382808828
20
90.492675826495741
10
68.419594494289399
20
90.622985501102818
10
69.514195760988841
20
93.630377764666008
10
69.87221864950827
20
93.500068090058932
0
LWPOLYLINE
5
432
100
AcDbEntity
8
0
100
AcDbPolyline
90
4
70
1
43
0.0
10
70.631759216466619
20
89.925492643399537
10
70.263741476650495
20
90.024102699583594
10
71.092065948596584
20
93.115451714039096
10
71.460083688412723
20
93.016841657855039
0
LWPOLYLINE
5
433
100
AcDbEntity
8
0
100
AcDbPolyline
90
4
70
1
43
0.0
10
72.528278752263361
20
89.522066872224215
10
72.153066998365716
20
89.588226827915321
10
72.708810626170958
20
92.740005560655575
10
73.084022380068603
20
92.673845604964498
0
LWPOLYLINE
5
434
100
AcDbEntity
8
0
100
AcDbPolyline
90
4
70
1
43
0.0
10
74.452742331381828
20
89.28546882668364
10
74.073192151408875
20
89.318675164670495
10
74.352125390498472
20
92.506896676443304
10
74.731675570471424
20
92.473690338456436
0
LWPOLYLINE
5
435
100
AcDbEntity
8
0
100
AcDbPolyline
90
4
70
1
43
0.0
10
56.662114078218494
20
100.84218510417688
10
56.310261634933418
20
101.51808735905868
10
59.14905110543701
20
102.99586762085605
10
59.500903548722093
20
102.31996536597423
0
LWPOLYLINE
5
436
100
AcDbEntity
8
0
100
AcDbPolyline
90
4
70
1
43
0.0
10
54.0127758858915
20
110.09242090414941
10
53.979537912719138
20
110.85369564899477
10
57.176891841069704
20
110.99329513631869
10
57.210129814242066
20
110.23202039147334
0
LWPOLYLINE
5
437
100
AcDbEntity
8
0
100
AcDbPolyline
90
4
70
1
43
0.0
10
55.520978626168016
20
119.59564034319415
10
55.812583401630249
20
120.29963654696773
10
58.769367457479305
20
119.07489649002639
10
58.477762682017072
20
118.37090028625281
0
LWPOLYLINE
5
438
100
AcDbEntity
8
0
100
AcDbPolyline
90
4
70
1
43
0.0
10
60.904108594380247
20
127.57108810227017
10
61.465913925029589
20
128.08588784047328
10
63.628072825482612
20
125.72630545174606
10
63.066267494833276
20
125.21150571354296
0
LWPOLYLINE
5
439
100
AcDbEntity
8
0
100
AcDbPolyline
90
4
70
1
43
0.0
10
69.153451071745877
20
132.52428948153459
10
69.880183388216039
20
132.75342730075678
10
70.842562228949319
20
129.7011515715821
10
70.115829912479143
20
129.47201375235991
0
LWPOLYLINE
5
440
100
AcDbEntity
8
0
100
AcDbPolyline
90
4
70
1
43
0.0
10
82.519823859707984
20
132.75342730075681
10
83.246556176178146
20
132.52428948153459
10
82.28417733544488
20
129.47201375235989
10
81.557445018974718
20
129.7011515715821
0
LWPOLYLINE
5
441
100
AcDbEntity
8
0
100
AcDbPolyline
90
4
70
1
43
0.0
10
90.934093322894427
20
128.0858878404733
10
91.495898653543776
20
127.57108810227021
10
89.333739753090754
20
125.21150571354298
10
88.771934422441419
20
125.72630545174607
0
LWPOLYLINE
5
442
100
AcDbEntity
8
0
100
AcDbPolyline
90
4
70
1
43
0.0
10
96.587423846293788
20
120.29963654696775
10
96.879028621756021
20
119.59564034319416
10
93.922244565906965
20
118.37090028625282
10
93.630639790444746
20
119.0748964900264
0
LWPOLYLINE
5
443
100
AcDbEntity
8
0
100
AcDbPolyline
90
4
70
1
43
0.0
10
98.420469335204913
20
110.8536956489948
10
98.387231362032551
20
110.09242090414944
10
95.189877433681986
20
110.23202039147336
10
95.223115406854347
20
110.99329513631872
0
LWPOLYLINE
5
444
100
AcDbEntity
8
0
100
AcDbPolyline
90
4
70
1
43
0.0
10
96.08974561299064
20
101.51808735905873
10
95.737893169705558
20
100.84218510417692
10
92.899103699201959
20
102.31996536597427
10
93.250956142487041
20
102.99586762085605
0
LWPOLYLINE
5
445
100
AcDbEntity
8
0
100
AcDbPolyline
90
4
70
1
43
0.0
10
83.229304500823901
20
95.466591980810747
10
83.919911034545834
20
95.788627096257173
10
85.937997758010013
20
91.460826151599761
10
85.247391224288094
20
91.13879103615335
0
LWPOLYLINE
5
446
100
AcDbEntity
8
0
100
AcDbPolyline
90
4
70
1
43
0.0
10
89.322423868208958
20
99.934120996429584
10
89.812228026790109
20
100.51784686208623
10
93.470243451571818
20
97.448407468311103
10
92.980439292990681
20
96.864681602654457
0
LWPOLYLINE
5
447
100
AcDbEntity
8
0
100
AcDbPolyline
90
4
70
1
43
0.0
10
92.956606051356871
20
106.55814084771998
10
93.153826163725
20
107.29417632735226
10
97.766315169420537
20
106.0582636231787
10
97.569095057052408
20
105.32222814354643
0
LWPOLYLINE
5
448
100
AcDbEntity
8
0
100
AcDbPolyline
90
4
70
1
43
0.0
10
93.45086190816545
20
114.09741337752081
10
93.318541996783253
20
114.8478368853161
10
98.021195978967128
20
115.67704166331126
10
98.153515890349311
20
114.92661815551597
0
LWPOLYLINE
5
449
100
AcDbEntity
8
0
100
AcDbPolyline
90
4
70
1
43
0.0
10
90.712575588645706
20
121.1391963309304
10
90.275510344146198
20
121.76339018867861
10
94.187125186034962
20
124.50233238754215
10
94.624190430534455
20
123.87813852979394
0
LWPOLYLINE
5
450
100
AcDbEntity
8
0
100
AcDbPolyline
90
4
70
1
43
0.0
10
85.254859302803709
20
126.3639692517237
10
84.594947945119969
20
126.7449692517237
10
86.982547945119961
20
130.88041375987513
10
87.642459302803701
20
130.49941375987513
0
LWPOLYLINE
5
451
100
AcDbEntity
8
0
100
AcDbPolyline
90
4
70
1
43
0.0
10
67.805059302808232
20
126.74496925172598
10
67.145147945124393
20
126.36396925172618
10
64.757547945125594
20
130.49941375987817
10
65.417459302809334
20
130.88041375987817
0
LWPOLYLINE
5
452
100
AcDbEntity
8
0
100
AcDbPolyline
90
4
70
1
43
0.0
10
62.124496903780091
20
121.76339018868168
10
61.687431659280456
20
121.13919633093357
10
57.775816817392297
20
123.87813852979792
10
58.212882061891932
20
124.50233238754606
0
LWPOLYLINE
5
453
100
AcDbEntity
8
0
100
AcDbPolyline
90
4
70
1
43
0.0
10
59.081465251141346
20
114.84783688531886
10
58.949145339759028
20
114.09741337752358
10
54.246491357575295
20
114.92661815551948
10
54.378811268957612
20
115.67704166331475
0
LWPOLYLINE
5
454
100
AcDbEntity
8
0
100
AcDbPolyline
90
4
70
1
43
0.0
10
59.246181084198625
20
107.29417632735402
10
59.443401196566661
20
106.55814084772173
10
54.830912190870997
20
105.32222814354867
10
54.633692078502953
20
106.05826362318096
0
LWPOLYLINE
5
455
100
AcDbEntity
8
0
100
AcDbPolyline
90
4
70
1
43
0.0
10
62.587779221133431
20
100.5178468620869
10
63.07758337971454
20
99.934120996430224
10
59.41956795493266
20
96.864681602655253
10
58.929763796351551
20
97.448407468311927
0
LWPOLYLINE
5
456
100
AcDbEntity
8
0
100
AcDbPolyline
90
4
70
1
43
0.0
10
68.48009621337836
20
95.788627096257088
10
69.170702747100279
20
95.466591980810676
10
67.152616023636142
20
91.138791036153265
10
66.462009489914209
20
91.460826151599676
0
LWPOLYLINE
5
457
100
AcDbEntity
8
0
100
AcDbPolyline
90
4
70
1
43
0.0
10
75.018903623962046
20
93.99269916076608
10
77.381103623962034
20
93.99269916076608
10
77.381103623962034
20
89.217499160766096
10
75.018903623962046
20
89.217499160766096
0
LWPOLYLINE
5
458
100
AcDbEntity
8
0
100
AcDbPolyline
90
4
70
1
43
0.0
10
101.13731951801915
20
110.48999916076603
10
99.548583189965484
20
110.48999916076603
10
99.548583189965484
20
112.39499916076603
10
101.13731951801913
20
112.39499916076602
42
52.380909075125864
0
ENDSEC
0
SECTION
2
OBJECTS
0
DICTIONARY
5
C
100
AcDbDictionary
3
ACAD_GROUP
350
D
3
ACAD_MLINESTYLE
350
17
0
DICTIONARY
5
D
100
AcDbDictionary
0
DICTIONARY
5
1A
330
C
100
AcDbDictionary
0
DICTIONARY
5
17
100
AcDbDictionary
0
ENDSEC
0
EOF
