0
SECTION
2
HEADER
9
$INSUNITS
70
1
9
$ACADVER
1
AC1014
9
$HANDSEED
5
FFFF
0
ENDSEC
0
SECTION
2
TABLES
0
TABLE
2
VPORT
5
8
100
AcDbSymbolTable
0
ENDTAB
0
TABLE
2
LTYPE
5
5
100
AcDbSymbolTable
0
LTYPE
5
14
100
AcDbSymbolTableRecord
100
AcDbLinetypeTableRecord
2
BYBLOCK
70
0
0
LTYPE
5
15
100
AcDbSymbolTableRecord
100
AcDbLinetypeTableRecord
2
BYLAYER
70
0
0
ENDTAB
0
TABLE
2
LAYER
5
2
100
AcDbSymbolTable
70
2
0
LAYER
5
50
100
AcDbSymbolTableRecord
100
AcDbLayerTableRecord
2
0
70
0
6
CONTINUOUS
0
ENDTAB
0
TABLE
2
STYLE
5
3
100
AcDbSymbolTable
70
1
0
STYLE
5
11
100
AcDbSymbolTableRecord
100
AcDbTextStyleTableRecord
2
STANDARD
70
0
0
ENDTAB
0
TABLE
2
VIEW
5
6
100
AcDbSymbolTable
70
0
0
ENDTAB
0
TABLE
2
UCS
5
7
100
AcDbSymbolTable
70
0
0
ENDTAB
0
TABLE
2
APPID
5
9
100
AcDbSymbolTable
70
2
0
APPID
5
12
100
AcDbSymbolTableRecord
100
AcDbRegAppTableRecord
2
ACAD
70
0
0
ENDTAB
0
TABLE
2
DIMSTYLE
5
A
100
AcDbSymbolTable
70
1
0
ENDTAB
0
TABLE
2
BLOCK_RECORD
5
1
100
AcDbSymbolTable
70
1
0
BLOCK_RECORD
5
1F
100
AcDbSymbolTableRecord
100
AcDbBlockTableRecord
2
*MODEL_SPACE
0
BLOCK_RECORD
5
1B
100
AcDbSymbolTableRecord
100
AcDbBlockTableRecord
2
*PAPER_SPACE
0
ENDTAB
0
ENDSEC
0
SECTION
2
BLOCKS
0
BLOCK
5
20
100
AcDbEntity
100
AcDbBlockBegin
2
*MODEL_SPACE
0
ENDBLK
5
21
100
AcDbEntity
100
AcDbBlockEnd
0
BLOCK
5
1C
100
AcDbEntity
100
AcDbBlockBegin
2
*PAPER_SPACE
0
ENDBLK
5
1D
100
AcDbEntity
100
AcDbBlockEnd
0
ENDSEC
0
SECTION
2
ENTITIES
0
LWPOLYLINE
5
100
100
AcDbEntity
8
0
100
AcDbPolyline
90
8
70
1
43
0.0
10
-4.0249999339186298
20
-6.3124968843810363
10
-1.02499993391863
20
-6.3124968843810656
42
0.41421356237309503
10
-0.89999993391862987
20
-6.1874968843810656
10
-0.89999993393308653
20
-3.1874968843810656
42
0.41421356237309503
10
-1.0249999339185898
20
-3.0624968843810669
10
-4.0249999339185898
20
-3.0624968843810358
42
0.41421356237309503
10
-4.149999933918588
20
-3.1874968843810354
10
-4.1499999339331204
20
-6.1874968843810354
42
0.41421356237309503
0
SPLINE
5
101
100
AcDbEntity
8
0
100
AcDbSpline
70
0
71
3
72
9
73
5
74
0
42
0.000000001
43
0.0000000001
44
0.0000000001
40
0
40
0
40
0
40
0
40
0.043033301597204102
40
0.078676564242838407
40
0.078676564242838407
40
0.078676564242838407
40
0.078676564242838407
10
-1.39247926107538
20
-3.4713195395796257
30
-5.2451481478353848e-16
10
-1.3867117262561399
20
-3.4715266479370355
30
-5.2451481478353848e-16
10
-1.3761671059995697
20
-3.4719052982701952
30
-5.2451481478353848e-16
10
-1.3673047633388
20
-3.4775475679665555
30
-5.2451481478353848e-16
10
-1.3632898090744197
20
-3.4801037154374153
30
-5.2451481478353848e-16
0
SPLINE
5
102
100
AcDbEntity
8
0
100
AcDbSpline
70
0
71
3
72
9
73
5
74
0
42
0.000000001
43
0.0000000001
44
0.0000000001
40
0
40
0
40
0
40
0
40
0.034327317737551002
40
0.073310650285245804
40
0.073310650285245804
40
0.073310650285245804
40
0.073310650285245804
10
-1.3632898090744197
20
-3.4801037154374153
30
-5.2451481478353848e-16
10
-1.3602205385416499
20
-3.4835257361326555
30
-5.2451481478353848e-16
10
-1.3536656943682999
20
-3.4908339261979457
30
-5.2451481478353848e-16
10
-1.3520049502104501
20
-3.5005419927166654
30
-6.1193395058079484e-16
10
-1.3511218405731698
20
-3.5057043092971654
30
-6.1193395058079484e-16
0
LINE
5
103
100
AcDbEntity
8
0
100
AcDbLine
10
-1.3511218405731698
20
-3.5057043092971654
30
-6.1193395058079484e-16
11
-1.3708093412748099
21
-3.5076183693191156
31
-6.1193395058079484e-16
0
SPLINE
5
104
100
AcDbEntity
8
0
100
AcDbSpline
70
0
71
3
72
9
73
5
74
0
42
0.000000001
43
0.0000000001
44
0.0000000001
40
0
40
0
40
0
40
0
40
0.022879692307983899
40
0.041888370548338598
40
0.041888370548338598
40
0.041888370548338598
40
0.041888370548338598
10
-1.3708093412748099
20
-3.5076183693191156
30
-6.1193395058079484e-16
10
-1.37145629208187
20
-3.5046239520399856
30
-6.1193395058079484e-16
10
-1.37264073611931
20
-3.4991417428006359
30
-5.2451481478353848e-16
10
-1.3763417569815399
20
-3.4949568849454655
30
-5.2451481478353848e-16
10
-1.3780212568954799
20
-3.4930578228571254
30
-5.2451481478353848e-16
0
SPLINE
5
105
100
AcDbEntity
8
0
100
AcDbSpline
70
0
71
3
72
9
73
5
74
0
42
0.000000001
43
0.0000000001
44
0.0000000001
40
0
40
0
40
0
40
0
40
0.018473641423363302
40
0.0397110493809315
40
0.0397110493809315
40
0.0397110493809315
40
0.0397110493809315
10
-1.3780212568954799
20
-3.4930578228571254
30
-5.2451481478353848e-16
10
-1.3800854071212698
20
-3.4917037863950457
30
-5.2451481478353848e-16
10
-1.3845225167125699
20
-3.4887931415699658
30
-5.2451481478353848e-16
10
-1.38984036350875
20
-3.488543106430066
30
-5.2451481478353848e-16
10
-1.39268433977296
20
-3.4884093880229052
30
-5.2451481478353848e-16
0
SPLINE
5
106
100
AcDbEntity
8
0
100
AcDbSpline
70
0
71
3
72
9
73
5
74
0
42
0.000000001
43
0.0000000001
44
0.0000000001
40
0
40
0
40
0
40
0
40
0.021927046293027899
40
0.039447120992189298
40
0.039447120992189298
40
0.039447120992189298
40
0.039447120992189298
10
-1.39268433977296
20
-3.4884093880229052
30
-5.2451481478353848e-16
10
-1.3956208613694501
20
-3.4884901733933056
30
-5.2451481478353848e-16
10
-1.4009037125644799
20
-3.4886355076183451
30
-5.2451481478353848e-16
10
-1.40541301920364
20
-3.4913427377643553
30
-5.2451481478353848e-16
10
-1.4074157861273699
20
-3.4925451290464755
30
-5.2451481478353848e-16
0
SPLINE
5
107
100
AcDbEntity
8
0
100
AcDbSpline
70
0
71
3
72
9
73
5
74
0
42
0.000000001
43
0.0000000001
44
0.0000000001
40
0
40
0
40
0
40
0
40
0.014797835323736601
40
0.028342894401925101
40
0.028342894401925101
40
0.028342894401925101
40
0.028342894401925101
10
-1.4074157861273699
20
-3.4925451290464755
30
-5.2451481478353848e-16
10
-1.4088604582034698
20
-3.4939377749556653
30
-5.2451481478353848e-16
10
-1.4116274972468597
20
-3.4966051661706654
30
-5.2451481478353848e-16
10
-1.4121311476121601
20
-3.5004029958581757
30
-5.2451481478353848e-16
10
-1.4123718419412601
20
-3.5022179773049058
30
-5.2451481478353848e-16
0
SPLINE
5
108
100
AcDbEntity
8
0
100
AcDbSpline
70
0
71
3
72
9
73
5
74
0
42
0.000000001
43
0.0000000001
44
0.0000000001
40
0
40
0
40
0
40
0
40
0.0084603289074750704
40
0.016517709540892999
40
0.016517709540892999
40
0.016517709540892999
40
0.016517709540892999
10
-1.4123718419412601
20
-3.5022179773049058
30
-5.2451481478353848e-16
10
-1.4122937634177897
20
-3.5033480218606754
30
-5.2451481478353848e-16
10
-1.4121413250922699
20
-3.5055542892463256
30
-5.2451481478353848e-16
10
-1.4108948902430201
20
-3.5073781126604358
30
-5.2451481478353848e-16
10
-1.4102868761603
20
-3.5082677783504255
30
-6.1193395058079484e-16
0
SPLINE
5
109
100
AcDbEntity
8
0
100
AcDbSpline
70
0
71
3
72
9
73
5
74
0
42
0.000000001
43
0.0000000001
44
0.0000000001
40
0
40
0
40
0
40
0
40
0.0093794474884781997
40
0.021705274120215098
40
0.021705274120215098
40
0.021705274120215098
40
0.021705274120215098
10
-1.4102868761603
20
-3.5082677783504255
30
-6.1193395058079484e-16
10
-1.40936864345743
20
-3.5091033258838258
30
-6.1193395058079484e-16
10
-1.40724373231033
20
-3.5110368926824251
30
-6.1193395058079484e-16
10
-1.4045412615507598
20
-3.5120393411160657
30
-6.1193395058079484e-16
10
-1.4030066029292998
20
-3.5126086039381654
30
-6.1193395058079484e-16
0
SPLINE
5
110
100
AcDbEntity
8
0
100
AcDbSpline
70
0
71
3
72
9
73
5
74
0
42
0.000000001
43
0.0000000001
44
0.0000000001
40
0
40
0
40
0
40
0
40
0.0154255441999397
40
0.042630583221023297
40
0.042630583221023297
40
0.042630583221023297
40
0.042630583221023297
10
-1.4030066029292998
20
-3.5126086039381654
30
-6.1193395058079484e-16
10
-1.4010673316052997
20
-3.5131901642503154
30
-6.1193395058079484e-16
10
-1.39570789232107
20
-3.5147973850370855
30
-6.1193395058079484e-16
10
-1.3902734588429597
20
-3.5161319435472751
30
-6.1193395058079484e-16
10
-1.38680543275327
20
-3.5169836024644758
30
-6.1193395058079484e-16
0
SPLINE
5
111
100
AcDbEntity
8
0
100
AcDbSpline
70
0
71
3
72
9
73
5
74
0
42
0.000000001
43
0.0000000001
44
0.0000000001
40
0
40
0
40
0
40
0
40
0.036967611614999299
40
0.063626218942434407
40
0.063626218942434407
40
0.063626218942434407
40
0.063626218942434407
10
-1.38680543275327
20
-3.5169836024644758
30
-6.1193395058079484e-16
10
-1.38205780032295
20
-3.5181895812156858
30
-6.1193395058079484e-16
10
-1.3738864879964801
20
-3.5202652324333954
30
-6.1193395058079484e-16
10
-1.36690046214256
20
-3.5249379165947254
30
-6.1193395058079484e-16
10
-1.3639734027774897
20
-3.5268957140922552
30
-6.1193395058079484e-16
0
SPLINE
5
112
100
AcDbEntity
8
0
100
AcDbSpline
70
0
71
3
72
9
73
5
74
0
42
0.000000001
43
0.0000000001
44
0.0000000001
40
0
40
0
40
0
40
0
40
0.029196457818509599
40
0.0577164675167159
40
0.0577164675167159
40
0.0577164675167159
40
0.0577164675167159
10
-1.3639734027774897
20
-3.5268957140922552
30
-6.1193395058079484e-16
10
-1.3612818590928599
20
-3.5297800915960358
30
-6.1193395058079484e-16
10
-1.3559611316741598
20
-3.5354820189167455
30
-6.1193395058079484e-16
10
-1.3551471222998699
20
-3.543232100722566
30
-6.1193395058079484e-16
10
-1.3547448877860799
20
-3.547061725399435
30
-6.1193395058079484e-16
0
SPLINE
5
113
100
AcDbEntity
8
0
100
AcDbSpline
70
0
71
3
72
9
73
5
74
0
42
0.000000001
43
0.0000000001
44
0.0000000001
40
0
40
0
40
0
40
0
40
0.019018266241631301
40
0.038426661369116599
40
0.038426661369116599
40
0.038426661369116599
40
0.038426661369116599
10
-1.3547448877860799
20
-3.547061725399435
30
-6.1193395058079484e-16
10
-1.3549329896120599
20
-3.5495835507363753
30
-6.1193395058079484e-16
10
-1.35531305186787
20
-3.5546789325668455
30
-6.1193395058079484e-16
10
-1.3578196727566101
20
-3.5591332462030953
30
-6.1193395058079484e-16
10
-1.35908570750723
20
-3.5613830143586855
30
-6.1193395058079484e-16
0
SPLINE
5
114
100
AcDbEntity
8
0
100
AcDbSpline
70
0
71
3
72
9
73
5
74
0
42
0.000000001
43
0.0000000001
44
0.0000000001
40
0
40
0
40
0
40
0
40
0.020085021865435301
40
0.0413875301273222
40
0.0413875301273222
40
0.0413875301273222
40
0.0413875301273222
10
-1.35908570750723
20
-3.5613830143586855
30
-6.1193395058079484e-16
10
-1.36073018258502
20
-3.5634881417176856
30
-6.1193395058079484e-16
10
-1.36411881528263
20
-3.5678260021679358
30
-6.1193395058079484e-16
10
-1.3690548519797801
20
-3.5702742460165156
30
-6.1193395058079484e-16
10
-1.3715954713933698
20
-3.5715343776226058
30
-6.1193395058079484e-16
0
SPLINE
5
115
100
AcDbEntity
8
0
100
AcDbSpline
70
0
71
3
72
9
73
5
74
0
42
0.000000001
43
0.0000000001
44
0.0000000001
40
0
40
0
40
0
40
0
40
0.023841547703261599
40
0.051126751655392197
40
0.051126751655392197
40
0.051126751655392197
40
0.051126751655392197
10
-1.3715954713933698
20
-3.5715343776226058
30
-6.1193395058079484e-16
10
-1.3745739638804797
20
-3.5725499895824258
30
-6.1193395058079484e-16
10
-1.38096116019808
20
-3.5747279077735752
30
-6.1193395058079484e-16
10
-1.38771355191762
20
-3.574918822627156
30
-6.1193395058079484e-16
10
-1.39131715236683
20
-3.5750207096148658
30
-6.1193395058079484e-16
0
SPLINE
5
116
100
AcDbEntity
8
0
100
AcDbSpline
70
0
71
3
72
9
73
5
74
0
42
0.000000001
43
0.0000000001
44
0.0000000001
40
0
40
0
40
0
40
0
40
0.042324617163218801
40
0.076341220317012501
40
0.076341220317012501
40
0.076341220317012501
40
0.076341220317012501
10
-1.39131715236683
20
-3.5750207096148658
30
-6.1193395058079484e-16
10
-1.3969918799677801
20
-3.5748535731282161
30
-6.1193395058079484e-16
10
-1.4072274274826599
20
-3.5745521078296556
30
-6.1193395058079484e-16
10
-1.4158696269541298
20
-3.5691543808498354
30
-6.1193395058079484e-16
10
-1.4197204727825801
20
-3.5667492275677257
30
-6.1193395058079484e-16
0
SPLINE
5
117
100
AcDbEntity
8
0
100
AcDbSpline
70
0
71
3
72
9
73
5
74
0
42
0.000000001
43
0.0000000001
44
0.0000000001
40
0
40
0
40
0
40
0
40
0.0307026928126139
40
0.063020350826786406
40
0.063020350826786406
40
0.063020350826786406
40
0.063020350826786406
10
-1.4197204727825801
20
-3.5667492275677257
30
-6.1193395058079484e-16
10
-1.42252324281098
20
-3.5637050266737953
30
-6.1193395058079484e-16
10
-1.42827620889621
20
-3.557456499565975
30
-6.1193395058079484e-16
10
-1.4292405791694001
20
-3.549003803289366
30
-6.1193395058079484e-16
10
-1.42973512082585
20
-3.5446691503719956
30
-6.1193395058079484e-16
0
LINE
5
118
100
AcDbEntity
8
0
100
AcDbLine
10
-1.42973512082585
20
-3.5446691503719956
30
-6.1193395058079484e-16
11
-1.4095007460417399
21
-3.5437804779713553
31
-6.1193395058079484e-16
0
SPLINE
5
119
100
AcDbEntity
8
0
100
AcDbSpline
70
0
71
3
72
9
73
5
74
0
42
0.000000001
43
0.0000000001
44
0.0000000001
40
0
40
0
40
0
40
0
40
0.017643852374598399
40
0.0321076106745719
40
0.0321076106745719
40
0.0321076106745719
40
0.0321076106745719
10
-1.4095007460417399
20
-3.5437804779713553
30
-6.1193395058079484e-16
10
-1.4090272367050301
20
-3.5461024033011457
30
-6.1193395058079484e-16
10
-1.4081655624453098
20
-3.5503277545975256
30
-6.1193395058079484e-16
10
-1.4052450703190498
20
-3.5534723206514256
30
-6.1193395058079484e-16
10
-1.4039294541351097
20
-3.5548888771128451
30
-6.1193395058079484e-16
0
SPLINE
5
120
100
AcDbEntity
8
0
100
AcDbSpline
70
0
71
3
72
9
73
5
74
0
42
0.000000001
43
0.0000000001
44
0.0000000001
40
0
40
0
40
0
40
0
40
0.015018769937722
40
0.034131021334085201
40
0.034131021334085201
40
0.034131021334085201
40
0.034131021334085201
10
-1.4039294541351097
20
-3.5548888771128451
30
-6.1193395058079484e-16
10
-1.4021884864993197
20
-3.5558721947244858
30
-6.1193395058079484e-16
10
-1.3982320370853101
20
-3.5581068407387955
30
-6.1193395058079484e-16
10
-1.3936678619174601
20
-3.5582131417478853
30
-6.1193395058079484e-16
10
-1.3911120736692499
20
-3.5582726668230156
30
-6.1193395058079484e-16
0
SPLINE
5
121
100
AcDbEntity
8
0
100
AcDbSpline
70
0
71
3
72
9
73
5
74
0
42
0.000000001
43
0.0000000001
44
0.0000000001
40
0
40
0
40
0
40
0
40
0.020099879108059101
40
0.036707982662581497
40
0.036707982662581497
40
0.036707982662581497
40
0.036707982662581497
10
-1.3911120736692499
20
-3.5582726668230156
30
-6.1193395058079484e-16
10
-1.3884310624193599
20
-3.5581882029883554
30
-6.1193395058079484e-16
10
-1.38353478846916
20
-3.5580339484795753
30
-6.1193395058079484e-16
10
-1.3792445482474101
20
-3.5557038471109355
30
-6.1193395058079484e-16
10
-1.3773034785206499
20
-3.5546496196100956
30
-6.1193395058079484e-16
0
SPLINE
5
122
100
AcDbEntity
8
0
100
AcDbSpline
70
0
71
3
72
9
73
5
74
0
42
0.000000001
43
0.0000000001
44
0.0000000001
40
0
40
0
40
0
40
0
40
0.0092248410430146293
40
0.018354396321972201
40
0.018354396321972201
40
0.018354396321972201
40
0.018354396321972201
10
-1.3773034785206499
20
-3.5546496196100956
30
-6.1193395058079484e-16
10
-1.3763663929107
20
-3.5538127692324157
30
-6.1193395058079484e-16
10
-1.37450190108991
20
-3.5521477125206058
30
-6.1193395058079484e-16
10
-1.37422721749735
20
-3.5496642150671458
30
-6.1193395058079484e-16
10
-1.3740905887028998
20
-3.5484289128055653
30
-6.1193395058079484e-16
0
SPLINE
5
123
100
AcDbEntity
8
0
100
AcDbSpline
70
0
71
3
72
9
73
5
74
0
42
0.000000001
43
0.0000000001
44
0.0000000001
40
0
40
0
40
0
40
0
40
0.0085927344210351697
40
0.017697394000716599
40
0.017697394000716599
40
0.017697394000716599
40
0.017697394000716599
10
-1.3740905887028998
20
-3.5484289128055653
30
-6.1193395058079484e-16
10
-1.3742298038823999
20
-3.5472753038450553
30
-6.1193395058079484e-16
10
-1.3745165281964298
20
-3.5448993579241557
30
-6.1193395058079484e-16
10
-1.3762213417146301
20
-3.5432126713055054
30
-6.1193395058079484e-16
10
-1.37709840568967
20
-3.5423449329548857
30
-6.1193395058079484e-16
0
SPLINE
5
124
100
AcDbEntity
8
0
100
AcDbSpline
70
0
71
3
72
9
73
5
74
0
42
0.000000001
43
0.0000000001
44
0.0000000001
40
0
40
0
40
0
40
0
40
0.018636227770489101
40
0.050404858092375097
40
0.050404858092375097
40
0.050404858092375097
40
0.050404858092375097
10
-1.37709840568967
20
-3.5423449329548857
30
-6.1193395058079484e-16
10
-1.3792553827099199
20
-3.5411725405897054
30
-6.1193395058079484e-16
10
-1.3850892951278597
20
-3.5380016053809458
30
-6.1193395058079484e-16
10
-1.39159304044203
20
-3.5365565101690755
30
-6.1193395058079484e-16
10
-1.3956921508931397
20
-3.5356457111448751
30
-6.1193395058079484e-16
0
SPLINE
5
125
100
AcDbEntity
8
0
100
AcDbSpline
70
0
71
3
72
9
73
5
74
0
42
0.000000001
43
0.0000000001
44
0.0000000001
40
0
40
0
40
0
40
0
40
0.033841934895110497
40
0.058520272258131799
40
0.058520272258131799
40
0.058520272258131799
40
0.058520272258131799
10
-1.3956921508931397
20
-3.5356457111448751
30
-6.1193395058079484e-16
10
-1.40002174672334
20
-3.5346063880197658
30
-6.1193395058079484e-16
10
-1.4075085859816698
20
-3.5328091659509258
30
-6.1193395058079484e-16
10
-1.41455954174817
20
-3.5297316161004155
30
-6.1193395058079484e-16
10
-1.4175329705861299
20
-3.5284337955242053
30
-6.1193395058079484e-16
0
SPLINE
5
126
100
AcDbEntity
8
0
100
AcDbSpline
70
0
71
3
72
9
73
5
74
0
42
0.000000001
43
0.0000000001
44
0.0000000001
40
0
40
0
40
0
40
0
40
0.019544527870675999
40
0.038569275663240199
40
0.038569275663240199
40
0.038569275663240199
40
0.038569275663240199
10
-1.4175329705861299
20
-3.5284337955242053
30
-6.1193395058079484e-16
10
-1.41975391808315
20
-3.5270928666515853
30
-6.1193395058079484e-16
10
-1.4241367477331199
20
-3.5244466704541257
30
-6.1193395058079484e-16
10
-1.42713049162112
20
-3.520295741836255
30
-6.1193395058079484e-16
10
-1.42860719092246
20
-3.5182482475885255
30
-6.1193395058079484e-16
0
SPLINE
5
127
100
AcDbEntity
8
0
100
AcDbSpline
70
0
71
3
72
9
73
5
74
0
42
0.000000001
43
0.0000000001
44
0.0000000001
40
0
40
0
40
0
40
0
40
0.019859262775383101
40
0.042207301388726297
40
0.042207301388726297
40
0.042207301388726297
40
0.042207301388726297
10
-1.42860719092246
20
-3.5182482475885255
30
-6.1193395058079484e-16
10
-1.4297724792714399
20
-3.5158843640194757
30
-6.1193395058079484e-16
10
-1.4322490906696799
20
-3.5108603534419056
30
-5.2451481478353848e-16
10
-1.43248258532815
20
-3.5052545246436053
30
-5.2451481478353848e-16
10
-1.4326062167253699
20
-3.5022863349152353
30
-5.2451481478353848e-16
0
SPLINE
5
128
100
AcDbEntity
8
0
100
AcDbSpline
70
0
71
3
72
9
73
5
74
0
42
0.000000001
43
0.0000000001
44
0.0000000001
40
0
40
0
40
0
40
0
40
0.021400013168457101
40
0.043192318209987299
40
0.043192318209987299
40
0.043192318209987299
40
0.043192318209987299
10
-1.4326062167253699
20
-3.5022863349152353
30
-5.2451481478353848e-16
10
-1.4323996907416701
20
-3.4994496453775454
30
-5.2451481478353848e-16
10
-1.43198285286703
20
-3.493724265855096
30
-5.2451481478353848e-16
10
-1.4292166954052701
20
-3.4886923414886053
30
-5.2451481478353848e-16
10
-1.4278210549373
20
-3.4861535282161258
30
-5.2451481478353848e-16
0
SPLINE
5
129
100
AcDbEntity
8
0
100
AcDbSpline
70
0
71
3
72
9
73
5
74
0
42
0.000000001
43
0.0000000001
44
0.0000000001
40
0
40
0
40
0
40
0
40
0.022189875346361899
40
0.045130049954517901
40
0.045130049954517901
40
0.045130049954517901
40
0.045130049954517901
10
-1.4278210549373
20
-3.4861535282161258
30
-5.2451481478353848e-16
10
-1.42603725994965
20
-3.4837982337452056
30
-5.2451481478353848e-16
10
-1.4224093550765999
20
-3.4790080059737059
30
-5.2451481478353848e-16
10
-1.4170235663978397
20
-3.4763353237441956
30
-5.2451481478353848e-16
10
-1.4142859019632099
20
-3.474976765597706
30
-5.2451481478353848e-16
0
SPLINE
5
130
100
AcDbEntity
8
0
100
AcDbSpline
70
0
71
3
72
9
73
5
74
0
42
0.000000001
43
0.0000000001
44
0.0000000001
40
0
40
0
40
0
40
0
40
0.025913828086815301
40
0.056431474499715202
40
0.056431474499715202
40
0.056431474499715202
40
0.056431474499715202
10
-1.4142859019632099
20
-3.474976765597706
30
-5.2451481478353848e-16
10
-1.4110368340860799
20
-3.4739119515142955
30
-5.2451481478353848e-16
10
-1.4039614729915599
20
-3.4715931498075956
30
-5.2451481478353848e-16
10
-1.3965093200296099
20
-3.4714155720651152
30
-5.2451481478353848e-16
10
-1.39247926107538
20
-3.4713195395796257
30
-5.2451481478353848e-16
0
LWPOLYLINE
5
131
100
AcDbEntity
8
0
100
AcDbPolyline
90
12
70
1
43
0.0
10
-1.3390704897914001
20
-3.489981648260025
10
-1.3390704897914001
20
-3.4730968843809258
10
-1.26284978823278
20
-3.4730968843809258
10
-1.26284978823278
20
-3.5733117224238953
10
-1.33715642976945
20
-3.5733117224238953
10
-1.33715642976945
20
-3.556358595067866
10
-1.2830841637502199
20
-3.556358595067866
10
-1.2830841637502199
20
-3.5341418026514853
10
-1.33339666146928
20
-3.5341418026514853
10
-1.33339666146928
20
-3.5172570387723856
10
-1.2830841637502199
20
-3.5172570387723856
10
-1.2830841637502199
20
-3.489981648260025
0
LWPOLYLINE
5
132
100
AcDbEntity
8
0
100
AcDbPolyline
90
8
70
1
43
0.0
10
-1.4924407676448599
20
-3.556358595067866
10
-1.4924407676448599
20
-3.4730968843809258
10
-1.4722063928607501
20
-3.4730968843809258
10
-1.4722063928607501
20
-3.556358595067866
10
-1.4424700653106799
20
-3.556358595067866
10
-1.4424700653106799
20
-3.5733117224238953
10
-1.5221087331846599
20
-3.5733117224238953
10
-1.5221087331846599
20
-3.556358595067866
0
LWPOLYLINE
5
133
100
AcDbEntity
8
0
100
AcDbPolyline
90
8
70
1
43
0.0
10
-1.2201050747566899
20
-3.556358595067866
10
-1.2201050747566899
20
-3.4730968843809258
10
-1.1998706999725799
20
-3.4730968843809258
10
-1.1998706999725799
20
-3.556358595067866
10
-1.1701343724225099
20
-3.556358595067866
10
-1.1701343724225099
20
-3.5733117224238953
10
-1.2497730402964899
20
-3.5733117224238953
10
-1.2497730402964899
20
-3.556358595067866
0
CIRCLE
5
134
100
AcDbEntity
8
0
100
AcDbCircle
10
-4.0249999339185898
20
-3.1874968843810354
30
-1.7483827159451283e-16
40
0.084749999999999687
210
-1.2325951644078309e-32
220
1.1467670979197849e-25
230
1
0
CIRCLE
5
135
100
AcDbEntity
8
0
100
AcDbCircle
10
-4.0249999339186298
20
-6.1874968843810354
30
-4.3709567898628207e-16
40
0.084749999999999687
210
-1.2325951644078309e-32
220
1.1467670979197849e-25
230
1
0
CIRCLE
5
136
100
AcDbEntity
8
0
100
AcDbCircle
10
-1.0249999339185898
20
-3.1874968843810656
30
-4.3709567898628207e-16
40
0.084749999999999687
210
-1.2325951644078309e-32
220
1.1467670979197849e-25
230
1
0
CIRCLE
5
137
100
AcDbEntity
8
0
100
AcDbCircle
10
-1.02499993391863
20
-6.1874968843810656
30
-6.9935308637805131e-16
40
0.084749999999999784
210
-1.2325951644078309e-32
220
1.1467670979197849e-25
230
1
0
CIRCLE
5
138
100
AcDbEntity
8
0
100
AcDbCircle
10
-2.5249999339186298
20
-4.6874969963013653
30
8.7419135797256413e-17
40
1.3999999999999997
210
-1.2325951644078309e-32
220
1.1467675909578506e-25
230
1
0
CIRCLE
5
139
100
AcDbEntity
8
0
100
AcDbCircle
10
-3.7499999339186099
20
-3.4624968843810056
30
6.9935308637805131e-16
40
0.1615
210
2.3682695758836803e-17
220
1.1467670979197849e-25
230
1
0
CIRCLE
5
140
100
AcDbEntity
8
0
100
AcDbCircle
10
-1.5249999339186
20
-3.3324968843809457
30
5.2451481478353848e-16
40
0.082677165354310397
210
1.2325951644078309e-32
220
1.1467670979197849e-25
230
1
0
ENDSEC
0
SECTION
2
OBJECTS
0
DICTIONARY
5
C
100
AcDbDictionary
3
ACAD_GROUP
350
D
3
ACAD_MLINESTYLE
350
17
0
DICTIONARY
5
D
100
AcDbDictionary
0
DICTIONARY
5
1A
330
C
100
AcDbDictionary
0
DICTIONARY
5
17
100
AcDbDictionary
0
ENDSEC
0
EOF
