0
SECTION
2
HEADER
9
$INSUNITS
70
4
9
$ACADVER
1
AC1014
9
$HANDSEED
5
FFFF
0
ENDSEC
0
SECTION
2
TABLES
0
TABLE
2
VPORT
5
8
100
AcDbSymbolTable
0
ENDTAB
0
TABLE
2
LTYPE
5
5
100
AcDbSymbolTable
0
LTYPE
5
14
100
AcDbSymbolTableRecord
100
AcDbLinetypeTableRecord
2
BYBLOCK
70
0
0
LTYPE
5
15
100
AcDbSymbolTableRecord
100
AcDbLinetypeTableRecord
2
BYLAYER
70
0
0
ENDTAB
0
TABLE
2
LAYER
5
2
100
AcDbSymbolTable
70
2
0
LAYER
5
50
100
AcDbSymbolTableRecord
100
AcDbLayerTableRecord
2
0
70
0
6
CONTINUOUS
0
ENDTAB
0
TABLE
2
STYLE
5
3
100
AcDbSymbolTable
70
1
0
STYLE
5
11
100
AcDbSymbolTableRecord
100
AcDbTextStyleTableRecord
2
STANDARD
70
0
0
ENDTAB
0
TABLE
2
VIEW
5
6
100
AcDbSymbolTable
70
0
0
ENDTAB
0
TABLE
2
UCS
5
7
100
AcDbSymbolTable
70
0
0
ENDTAB
0
TABLE
2
APPID
5
9
100
AcDbSymbolTable
70
2
0
APPID
5
12
100
AcDbSymbolTableRecord
100
AcDbRegAppTableRecord
2
ACAD
70
0
0
ENDTAB
0
TABLE
2
DIMSTYLE
5
A
100
AcDbSymbolTable
70
1
0
ENDTAB
0
TABLE
2
BLOCK_RECORD
5
1
100
AcDbSymbolTable
70
1
0
BLOCK_RECORD
5
1F
100
AcDbSymbolTableRecord
100
AcDbBlockTableRecord
2
*MODEL_SPACE
0
BLOCK_RECORD
5
1B
100
AcDbSymbolTableRecord
100
AcDbBlockTableRecord
2
*PAPER_SPACE
0
ENDTAB
0
ENDSEC
0
SECTION
2
BLOCKS
0
BLOCK
5
20
100
AcDbEntity
100
AcDbBlockBegin
2
*MODEL_SPACE
0
ENDBLK
5
21
100
AcDbEntity
100
AcDbBlockEnd
0
BLOCK
5
1C
100
AcDbEntity
100
AcDbBlockBegin
2
*PAPER_SPACE
0
ENDBLK
5
1D
100
AcDbEntity
100
AcDbBlockEnd
0
ENDSEC
0
SECTION
2
ENTITIES
0
LWPOLYLINE
5
100
100
AcDbEntity
8
0
100
AcDbPolyline
90
44
70
1
43
0.0
10
36.192706561878694
20
15.912922508590086
10
36.192706561878694
20
25.740563586592256
10
36.192641056070755
20
25.740885483672876
42
0.4142135623730947
10
32.657107150138017
20
29.276419389605618
10
19.673625105286167
20
29.276419389605614
42
-0.14269941532060929
10
14.143431337613135
20
30.119336298145395
42
0.25853437793961509
10
-17.959925059105345
20
27.828163069685786
42
-0.053707281241946091
10
-19.869836428965218
20
26.85817129907695
42
-0.48898278794808786
10
-23.607349769863312
20
29.766104254287118
10
-23.607349769863319
20
36.038600019731483
10
-28.796043509467815
20
36.038600019731483
10
-25.438464695275936
20
33.540944381240031
42
-0.99999999999999989
10
-26.333748373953437
20
32.337421579339846
10
-31.309213417047882
20
36.038600019731476
10
-35.874293408318991
20
31.473520028460371
10
-35.874293408318984
20
20.91283942102762
10
-33.74082478221915
20
20.912839498676668
42
-0.41421356237309531
10
-31.240824771931909
20
18.412839508963909
10
-31.240824750613442
20
13.232034926418423
42
-0.092776865379855813
10
-31.634909576859798
20
9.573796176720256
42
0.14721769988439173
10
-31.634909576859734
20
-9.5635961052457592
42
-0.092776863304700266
10
-31.240824744224213
20
-13.22183477289447
10
-31.240824744224209
20
-18.402639349553201
42
-0.41421356237309531
10
-33.740824744224213
20
-20.902639349553205
10
-35.87429340831897
20
-20.902639349553201
10
-35.874293408318962
20
-31.46331998026853
10
-31.309213438121276
20
-36.028399950466195
10
-29.0065087029785
20
-36.028399950466195
10
-24.599765396294924
20
-26.197697554671016
10
-23.417034986830068
20
-26.197697554671009
42
-0.14531950871434324
10
-17.95992505910522
20
-27.817962998211193
42
0.19719086262716212
10
6.8055170906620921
20
-32.525690369395562
42
-0.05370728124194632
10
8.9381276525163784
20
-32.324152116856581
42
0.030032749357271283
10
12.748147527745155
20
-31.039522135149554
10
17.999276575621916
20
-35.211737423046266
42
0.16944449825400656
10
20.339910175649582
20
-36.028399950466167
10
30.047564942335143
20
-36.028399950466167
42
0.56834519016166296
10
32.90517800095482
20
-31.230321267967689
42
0.13108495412091248
10
31.223370209950339
20
-29.450750610125382
10
25.952475797108391
20
-26.197697554671549
42
-0.19736729667975425
10
27.545380565609541
20
-18.767839054431668
42
0.096075702037409463
10
32.57763693785045
20
-7.1692390107581243
10
32.577636937850436
20
7.9799198634209159
42
-0.22941485497798589
10
36.192641056070755
20
15.91283995280194
42
4.7902945777138097e-06
0
CIRCLE
5
101
100
AcDbEntity
8
0
100
AcDbCircle
10
-33.339448752707753
20
-29.857862848064009
30
4.4408920985006262e-15
40
1.7500000000000027
210
-6.1629758220391525e-32
220
-2.7369110631344064e-47
230
1
0
CIRCLE
5
102
100
AcDbEntity
8
0
100
AcDbCircle
10
-31.848437076191566
20
31.473520028460364
30
0
40
1.7500000000000027
210
-6.1629758220391525e-32
220
-2.7369110631344064e-47
230
1
0
CIRCLE
5
103
100
AcDbEntity
8
0
100
AcDbCircle
10
30.002263194978806
20
-33.452313651772457
30
4.4408920985006262e-15
40
1.749999999999998
210
-1.6023737137301802e-31
220
1.2325951644078241e-32
230
1
0
CIRCLE
5
104
100
AcDbEntity
8
0
100
AcDbCircle
10
32.747896876715771
20
18.481851988652473
30
0
40
1.749999999999998
210
-1.6023737137301802e-31
220
1.2325951644078241e-32
230
1
0
CIRCLE
5
105
100
AcDbEntity
8
0
100
AcDbCircle
10
-31.848437076191559
20
24.970906510453187
30
4.4408920985006262e-15
40
3.2500000000000018
210
3.6977854932234956e-32
220
-1.2325951644078293e-32
230
1
0
CIRCLE
5
106
100
AcDbEntity
8
0
100
AcDbCircle
10
-31.733991620503232
20
-24.900518214062831
30
0
40
3.2500000000000018
210
3.6977854932234956e-32
220
-1.2325951644078293e-32
230
1
0
LWPOLYLINE
5
107
100
AcDbEntity
8
0
100
AcDbPolyline
90
47
70
1
43
0.0
10
-25.571555536752836
20
15.438112737629542
10
-22.278950051137471
20
13.537126074174267
42
-0.12195745921361333
10
-13.372819461656606
20
22.443256663655113
10
-15.273806125111893
20
25.735862149270496
10
-14.407780721327455
20
26.235862149270496
10
-12.506794057872185
20
22.943256663655106
42
-0.11711674445531674
10
-0.84079342321967698
20
26.188808741035473
10
-0.84079342321967787
20
30.005100035737314
10
1.1592065767803186
20
30.005100035737314
10
1.1592065767803281
20
26.188808741035384
42
-0.96253735000147678
10
1.1592065767803388
20
-26.178608669560802
10
1.1592065767803452
20
-29.994899964262686
10
-0.84079342321965478
20
-29.994899964262686
10
-0.84079342321965012
20
-26.178608669560816
42
-0.11711674445531708
10
-12.506794057872153
20
-22.933056592180442
10
-14.407780721327427
20
-26.225662077795825
10
-15.273806125111866
20
-25.725662077795825
10
-13.372819461656608
20
-22.433056592180471
42
-0.12195745921361367
10
-22.278950051137446
20
-13.526926002699604
10
-25.571555536752818
20
-15.427912666154896
10
-26.071555536752822
20
-14.561887262370456
10
-22.778950051137429
20
-12.660900598915203
42
-0.034104899982021111
10
-24.287875695411373
20
-9.4249991122353691
10
-25.981176733562265
20
-10.041310287774358
10
-26.323196876887934
20
-9.1016176669884512
10
-24.629895838737042
20
-8.4853064914494887
42
-0.034104899982021111
10
-25.553989115665303
20
-5.0365434310203874
10
-27.32858641872803
20
-5.34945281544283
10
-27.502234596394967
20
-4.3646450624306219
10
-25.727637293332236
20
-4.0517356780081943
42
-0.03888203512824507
10
-26.043591013627939
20
0.0051000357373269523
10
-26.043591013627942
20
0.52510003573733322
10
-26.262674474214617
20
0.5251000357373331
10
-31.043591013627942
20
2.005100035737331
10
-31.043591013627942
20
-1.994899964262669
10
-26.043591013627942
20
-0.4948999642626668
10
-26.043591013627953
20
0.0051000357373176541
42
-0.03888203512824507
10
-25.727637293332233
20
4.0619357494828376
10
-27.50223459639496
20
4.3748451339052679
10
-27.32858641872803
20
5.3596528869174751
10
-25.553989115665313
20
5.0467435024950653
42
-0.034104899982020667
10
-24.629895838737049
20
8.4955065629241204
10
-26.323196876887941
20
9.1118177384630972
10
-25.981176733562275
20
10.051510359249008
10
-24.287875695411387
20
9.4351991837100098
42
-0.034104899982020889
10
-22.778950051137443
20
12.671100670389821
10
-26.071555536752832
20
14.572087333845102
0
CIRCLE
5
108
100
AcDbEntity
8
0
100
AcDbCircle
10
0.15920657678033523
20
0.0051000357372910088
30
-1.0126570933597311e-45
40
26.202797590408316
210
0
220
0
230
1
0
ENDSEC
0
SECTION
2
OBJECTS
0
DICTIONARY
5
C
100
AcDbDictionary
3
ACAD_GROUP
350
D
3
ACAD_MLINESTYLE
350
17
0
DICTIONARY
5
D
100
AcDbDictionary
0
DICTIONARY
5
1A
330
C
100
AcDbDictionary
0
DICTIONARY
5
17
100
AcDbDictionary
0
ENDSEC
0
EOF
