0
SECTION
2
HEADER
9
$INSUNITS
70
4
9
$ACADVER
1
AC1014
9
$HANDSEED
5
FFFF
0
ENDSEC
0
SECTION
2
TABLES
0
TABLE
2
VPORT
5
8
100
AcDbSymbolTable
0
ENDTAB
0
TABLE
2
LTYPE
5
5
100
AcDbSymbolTable
0
LTYPE
5
14
100
AcDbSymbolTableRecord
100
AcDbLinetypeTableRecord
2
BYBLOCK
70
0
0
LTYPE
5
15
100
AcDbSymbolTableRecord
100
AcDbLinetypeTableRecord
2
BYLAYER
70
0
0
ENDTAB
0
TABLE
2
LAYER
5
2
100
AcDbSymbolTable
70
2
0
LAYER
5
50
100
AcDbSymbolTableRecord
100
AcDbLayerTableRecord
2
0
70
0
6
CONTINUOUS
0
ENDTAB
0
TABLE
2
STYLE
5
3
100
AcDbSymbolTable
70
1
0
STYLE
5
11
100
AcDbSymbolTableRecord
100
AcDbTextStyleTableRecord
2
STANDARD
70
0
0
ENDTAB
0
TABLE
2
VIEW
5
6
100
AcDbSymbolTable
70
0
0
ENDTAB
0
TABLE
2
UCS
5
7
100
AcDbSymbolTable
70
0
0
ENDTAB
0
TABLE
2
APPID
5
9
100
AcDbSymbolTable
70
2
0
APPID
5
12
100
AcDbSymbolTableRecord
100
AcDbRegAppTableRecord
2
ACAD
70
0
0
ENDTAB
0
TABLE
2
DIMSTYLE
5
A
100
AcDbSymbolTable
70
1
0
ENDTAB
0
TABLE
2
BLOCK_RECORD
5
1
100
AcDbSymbolTable
70
1
0
BLOCK_RECORD
5
1F
100
AcDbSymbolTableRecord
100
AcDbBlockTableRecord
2
*MODEL_SPACE
0
BLOCK_RECORD
5
1B
100
AcDbSymbolTableRecord
100
AcDbBlockTableRecord
2
*PAPER_SPACE
0
ENDTAB
0
ENDSEC
0
SECTION
2
BLOCKS
0
BLOCK
5
20
100
AcDbEntity
100
AcDbBlockBegin
2
*MODEL_SPACE
0
ENDBLK
5
21
100
AcDbEntity
100
AcDbBlockEnd
0
BLOCK
5
1C
100
AcDbEntity
100
AcDbBlockBegin
2
*PAPER_SPACE
0
ENDBLK
5
1D
100
AcDbEntity
100
AcDbBlockEnd
0
ENDSEC
0
SECTION
2
ENTITIES
0
LWPOLYLINE
5
100
100
AcDbEntity
8
0
100
AcDbPolyline
90
2
70
1
43
0.0
10
1.1339024880714568
20
-6.6540788353892131
42
0.46981074381909327
10
6.3295525542652555
20
2.3450510576070158
42
-2.2501461940809198
0
LWPOLYLINE
5
101
100
AcDbEntity
8
0
100
AcDbPolyline
90
2
70
1
43
0.0
10
-6.3295525542652475
20
2.3450510576070283
42
0.46981074381909249
10
-1.1339024880714776
20
-6.6540788353892086
42
-2.2501461940809224
0
LWPOLYLINE
5
102
100
AcDbEntity
8
0
100
AcDbPolyline
90
2
70
1
43
0.0
10
5.1956500661937843
20
4.3090277777755706
42
0.46981074381909271
10
-5.1956500661937808
20
4.3090277777755679
42
-2.2501461940809211
0
CIRCLE
5
103
100
AcDbEntity
8
0
100
AcDbCircle
10
32.58869029993545
20
18.476751952915123
30
0
40
1.749999999999998
210
0
220
-0
230
1
0
CIRCLE
5
104
100
AcDbEntity
8
0
100
AcDbCircle
10
-32.007643652971886
20
31.468419992723042
30
0
40
1.7500000000000027
210
0
220
-0
230
1
0
CIRCLE
5
105
100
AcDbEntity
8
0
100
AcDbCircle
10
29.84305661819846
20
-33.457413687509799
30
0
40
1.749999999999998
210
0
220
-0
230
1
0
CIRCLE
5
106
100
AcDbEntity
8
0
100
AcDbCircle
10
-33.498655329488102
20
-29.86296288380133
30
0
40
1.7500000000000027
210
0
220
-0
230
1
0
LWPOLYLINE
5
107
100
AcDbEntity
8
0
100
AcDbPolyline
90
11
70
1
43
0.0
10
36.033434479290435
20
31.468419992723042
10
31.468419993827261
20
36.033499983994155
10
-31.468419993828203
20
36.033499983994155
10
-36.033499985099311
20
31.468419992723042
10
-36.033499985099311
20
-31.468420016005858
10
-31.468420014901625
20
-36.033499986203523
10
31.468419993827258
20
-36.033499986203516
10
36.033499985098366
20
-31.468419994932411
10
36.033499985098366
20
-15.907739385290549
10
36.033479350395041
20
-15.907739385290549
10
36.033437160533168
20
15.907739385294093
0
CIRCLE
5
108
100
AcDbEntity
8
0
100
AcDbCircle
10
3.3306690738754696e-15
20
-2.2084417627965536e-12
30
0
40
6.0000000000000009
210
0
220
-0
230
1
0
LINE
5
109
100
AcDbEntity
8
0
100
AcDbLine
10
-36.033499985099311
20
-31.468420016005858
30
0
11
-36.033499985099311
21
31.468419992723042
31
0
0
LINE
5
110
100
AcDbEntity
8
0
100
AcDbLine
10
-36.033499985099311
20
-31.468420016005858
30
0
11
-31.468420014901625
21
-36.033499986203523
31
0
0
LINE
5
111
100
AcDbEntity
8
0
100
AcDbLine
10
-31.468420014901625
20
-36.033499986203523
30
0
11
31.468419993827258
21
-36.033499986203516
31
0
0
LINE
5
112
100
AcDbEntity
8
0
100
AcDbLine
10
36.033499985098366
20
-31.468419994932411
30
0
11
36.033434479290435
21
31.468419992723042
31
0
0
LINE
5
113
100
AcDbEntity
8
0
100
AcDbLine
10
36.033434479290435
20
31.468419992723042
30
0
11
31.468419993827261
21
36.033499983994155
31
0
0
LINE
5
114
100
AcDbEntity
8
0
100
AcDbLine
10
31.468419993827258
20
-36.033499986203516
30
0
11
36.033499985098366
21
-31.468419994932411
31
0
0
LINE
5
115
100
AcDbEntity
8
0
100
AcDbLine
10
31.468419993827261
20
36.033499983994155
30
0
11
-31.468419993828203
21
36.033499983994155
31
0
0
LINE
5
116
100
AcDbEntity
8
0
100
AcDbLine
10
-36.033499985099311
20
31.468419992723042
30
0
11
-31.468419993828203
21
36.033499983994155
31
0
0
CIRCLE
5
117
100
AcDbEntity
8
0
100
AcDbCircle
10
-33.498655329488102
20
-29.86296288380133
30
0
40
2.5348446556112059
210
0
220
0
230
1
0
CIRCLE
5
118
100
AcDbEntity
8
0
100
AcDbCircle
10
-32.007643652971886
20
31.468419992723042
30
0
40
2.8721317310937171
210
0
220
0
230
1
0
CIRCLE
5
119
100
AcDbEntity
8
0
100
AcDbCircle
10
32.58869029993545
20
18.476751952915123
30
0
40
3.444757701317545
210
0
220
0
230
1
0
CIRCLE
5
120
100
AcDbEntity
8
0
100
AcDbCircle
10
29.84305661819846
20
-33.457413687509799
30
0
40
2.5760862986937116
210
0
220
0
230
1
0
CIRCLE
5
121
100
AcDbEntity
8
0
100
AcDbCircle
10
0
20
0
30
0
40
16.000000000001105
210
0
220
0
230
1
0
ENDSEC
0
SECTION
2
OBJECTS
0
DICTIONARY
5
C
100
AcDbDictionary
3
ACAD_GROUP
350
D
3
ACAD_MLINESTYLE
350
17
0
DICTIONARY
5
D
100
AcDbDictionary
0
DICTIONARY
5
1A
330
C
100
AcDbDictionary
0
DICTIONARY
5
17
100
AcDbDictionary
0
ENDSEC
0
EOF
