0
SECTION
2
HEADER
9
$INSUNITS
70
4
9
$ACADVER
1
AC1014
9
$HANDSEED
5
FFFF
0
ENDSEC
0
SECTION
2
TABLES
0
TABLE
2
VPORT
5
8
100
AcDbSymbolTable
0
ENDTAB
0
TABLE
2
LTYPE
5
5
100
AcDbSymbolTable
0
LTYPE
5
14
100
AcDbSymbolTableRecord
100
AcDbLinetypeTableRecord
2
BYBLOCK
70
0
0
LTYPE
5
15
100
AcDbSymbolTableRecord
100
AcDbLinetypeTableRecord
2
BYLAYER
70
0
0
ENDTAB
0
TABLE
2
LAYER
5
2
100
AcDbSymbolTable
70
2
0
LAYER
5
50
100
AcDbSymbolTableRecord
100
AcDbLayerTableRecord
2
0
70
0
6
CONTINUOUS
0
ENDTAB
0
TABLE
2
STYLE
5
3
100
AcDbSymbolTable
70
1
0
STYLE
5
11
100
AcDbSymbolTableRecord
100
AcDbTextStyleTableRecord
2
STANDARD
70
0
0
ENDTAB
0
TABLE
2
VIEW
5
6
100
AcDbSymbolTable
70
0
0
ENDTAB
0
TABLE
2
UCS
5
7
100
AcDbSymbolTable
70
0
0
ENDTAB
0
TABLE
2
APPID
5
9
100
AcDbSymbolTable
70
2
0
APPID
5
12
100
AcDbSymbolTableRecord
100
AcDbRegAppTableRecord
2
ACAD
70
0
0
ENDTAB
0
TABLE
2
DIMSTYLE
5
A
100
AcDbSymbolTable
70
1
0
ENDTAB
0
TABLE
2
BLOCK_RECORD
5
1
100
AcDbSymbolTable
70
1
0
BLOCK_RECORD
5
1F
100
AcDbSymbolTableRecord
100
AcDbBlockTableRecord
2
*MODEL_SPACE
0
BLOCK_RECORD
5
1B
100
AcDbSymbolTableRecord
100
AcDbBlockTableRecord
2
*PAPER_SPACE
0
ENDTAB
0
ENDSEC
0
SECTION
2
BLOCKS
0
BLOCK
5
20
100
AcDbEntity
100
AcDbBlockBegin
2
*MODEL_SPACE
0
ENDBLK
5
21
100
AcDbEntity
100
AcDbBlockEnd
0
BLOCK
5
1C
100
AcDbEntity
100
AcDbBlockBegin
2
*PAPER_SPACE
0
ENDBLK
5
1D
100
AcDbEntity
100
AcDbBlockEnd
0
ENDSEC
0
SECTION
2
ENTITIES
0
LWPOLYLINE
5
100
100
AcDbEntity
8
0
100
AcDbPolyline
90
38
70
1
43
0.0
10
-26.492954950733754
20
32.332321543602525
10
-31.468419993828199
20
36.033499983994155
10
-36.033499985099311
20
31.468419992723046
10
-36.033499985099311
20
20.907739385290295
10
-33.90003135899947
20
20.907739462939354
42
-0.41421356237309531
10
-31.400031348712233
20
18.407739473226592
10
-31.400031327393766
20
13.226934890681106
42
-0.092776865379855925
10
-31.794116153640132
20
9.5686961409829348
42
0.14721769988439151
10
-31.794116153640076
20
-9.5686961409830946
42
-0.092776863304699933
10
-31.400031321004562
20
-13.226934808631793
10
-31.400031321004551
20
-18.407739385290522
42
-0.41421356237309503
10
-33.900031321004548
20
-20.907739385290522
10
-36.033499985099311
20
-20.907739385290522
10
-36.033499985099311
20
-31.468420016005854
10
-31.468420014901625
20
-36.033499986203516
10
-29.165715279758849
20
-36.033499986203516
10
-24.758971973075269
20
-26.202797590408341
10
-23.576241563610409
20
-26.202797590408341
42
-0.14531950871434313
10
-18.119131635885569
20
-27.823063033948515
42
0.19719086262716182
10
6.6463105138817404
20
-32.530790405132898
42
-0.053707281241946431
10
8.7789210757360294
20
-32.329252152593909
42
0.03003274935727198
10
12.588940950964805
20
-31.044622170886889
10
17.840069998841567
20
-35.216837458783615
42
0.16944449825400659
10
20.180703598869233
20
-36.033499986203516
10
29.915119134928155
20
-36.033499986203516
42
0.13444745170255545
10
31.825681234244975
20
-35.510302190345286
10
38.033434218009944
20
-31.834744526017744
10
38.033434218009944
20
15.907739700456576
10
36.033434479290435
20
25.735785447935523
42
0.41421356237309503
10
32.497900573357697
20
29.271319353868265
10
19.51441852850585
20
29.271319353868268
42
-0.14269941532060929
10
13.98422476083282
20
30.11423626240806
42
0.25853437793961531
10
-18.119131635885665
20
27.823063033948458
42
-0.053707281241946091
10
-20.029043005745535
20
26.853071263339622
42
-0.48898278794808736
10
-23.766556346643632
20
29.761004218549786
10
-23.766556346643632
20
36.033499983994155
10
-28.955250086248128
20
36.033499983994155
10
-25.597671272056253
20
33.535844345502703
42
-0.99999999999999989
0
LWPOLYLINE
5
101
100
AcDbEntity
8
0
100
AcDbPolyline
90
10
70
1
43
0.0
10
32.418430361070108
20
-7.1743390464954748
10
32.418430361070108
20
7.974819827683568
42
-0.15942875117183594
10
34.213184714831769
20
13.929294562672251
42
-0.73396728773911746
10
36.033434479290435
20
13.357289034809533
10
36.033434479290406
20
-28.497522369653808
42
-0.4142135623730957
10
34.033434479290406
20
-30.497522369653815
10
33.319460030807242
20
-30.497522369653808
42
-0.13912509560201544
10
32.269058514022923
20
-30.199479082833442
10
25.793269220328042
20
-26.202797590408892
42
-0.19736729667975411
10
27.386173988829213
20
-18.772939090169022
42
0.096075702037409394
0
LWPOLYLINE
5
102
100
AcDbEntity
8
0
100
AcDbPolyline
90
47
70
1
43
0.0
10
-25.73076211353316
20
15.433012701892217
10
-22.438156627917767
20
13.532026038436928
42
-0.12195745921361321
10
-13.532026038436937
20
22.438156627917785
10
-15.433012701892215
20
25.730762113533167
10
-14.566987298107776
20
26.230762113533164
10
-12.66600063465248
20
22.938156627917749
42
-0.11711674445531674
10
-0.99999999999999856
20
26.183708705298137
10
-0.99999999999999756
20
29.999999999999979
10
0.99999999999999889
20
29.999999999999972
10
0.99999999999997802
20
26.183708705298127
42
-0.96253735000147955
10
0.99999999999999434
20
-26.183708705298137
10
0.99999999999999889
20
-30.000000000000028
10
-1.0000000000000011
20
-30.000000000000021
10
-1.0000000000000053
20
-26.183708705298166
42
-0.11711674445531674
10
-12.666000634652496
20
-22.938156627917774
10
-14.566987298107772
20
-26.230762113533153
10
-15.43301270189221
20
-25.730762113533157
10
-13.532026038436936
20
-22.438156627917802
42
-0.12195745921361344
10
-22.438156627917781
20
-13.532026038436928
10
-25.73076211353316
20
-15.433012701892219
10
-26.23076211353316
20
-14.566987298107781
10
-22.93815662791777
20
-12.666000634652516
42
-0.034104899982020889
10
-24.447082272191707
20
-9.4300991479726939
10
-26.140383310342603
20
-10.046410323511683
10
-26.482403453668269
20
-9.1067177027257742
10
-24.789102415517384
20
-8.4904065271867761
42
-0.034104899982020667
10
-25.713195692445634
20
-5.0416434667577104
10
-27.487792995508368
20
-5.354552851180153
10
-27.661441173175302
20
-4.3697450981679449
10
-25.886843870112571
20
-4.0568357137454916
42
-0.03888203512824473
10
-26.20279759040827
20
3.1918911957973251e-15
10
-26.202797590408274
20
0.52000000000000945
10
-26.421881050994948
20
0.52000000000000934
10
-31.202797590408274
20
2.0000000000000098
10
-31.202797590408274
20
-1.9999999999999907
10
-26.202797590408274
20
-0.49999999999999056
10
-26.202797590408281
20
-1.5543122344752192e-14
42
-0.03888203512824507
10
-25.886843870112564
20
4.0568357137455138
10
-27.661441173175291
20
4.369745098167944
10
-27.487792995508361
20
5.3545528511801521
10
-25.713195692445645
20
5.0416434667576882
42
-0.034104899982021111
10
-24.789102415517377
20
8.4904065271867974
10
-26.482403453668269
20
9.1067177027257742
10
-26.140383310342603
20
10.046410323511683
10
-24.4470822721917
20
9.4300991479727223
42
-0.034104899982020445
10
-22.938156627917774
20
12.666000634652498
10
-26.23076211353316
20
14.566987298107779
0
CIRCLE
5
103
100
AcDbEntity
8
0
100
AcDbCircle
10
-31.893198197283574
20
-24.905618249800156
30
0
40
3.2500000000000018
210
0
220
-0
230
1
0
CIRCLE
5
104
100
AcDbEntity
8
0
100
AcDbCircle
10
-32.007643652971886
20
24.965806474715862
30
0
40
3.2500000000000018
210
0
220
-0
230
1
0
CIRCLE
5
105
100
AcDbEntity
8
0
100
AcDbCircle
10
32.58869029993545
20
18.476751952915123
30
0
40
1.749999999999998
210
0
220
-0
230
1
0
CIRCLE
5
106
100
AcDbEntity
8
0
100
AcDbCircle
10
29.84305661819846
20
-33.457413687509799
30
0
40
1.749999999999998
210
0
220
-0
230
1
0
CIRCLE
5
107
100
AcDbEntity
8
0
100
AcDbCircle
10
-32.007643652971886
20
31.468419992723042
30
0
40
1.7500000000000027
210
0
220
-0
230
1
0
CIRCLE
5
108
100
AcDbEntity
8
0
100
AcDbCircle
10
-33.498655329488102
20
-29.86296288380133
30
0
40
1.7500000000000027
210
0
220
-0
230
1
0
ENDSEC
0
SECTION
2
OBJECTS
0
DICTIONARY
5
C
100
AcDbDictionary
3
ACAD_GROUP
350
D
3
ACAD_MLINESTYLE
350
17
0
DICTIONARY
5
D
100
AcDbDictionary
0
DICTIONARY
5
1A
330
C
100
AcDbDictionary
0
DICTIONARY
5
17
100
AcDbDictionary
0
ENDSEC
0
EOF
