<?xml version="1.0" encoding="UTF-8" standalone="no"?>
<!DOCTYPE svg PUBLIC "-//W3C//DTD SVG 1.1//EN" "http://www.w3.org/Graphics/SVG/1.1/DTD/svg11.dtd">
<!-- Generated by Microsoft Visio, SVG Export SARI_TAPE.svg Page-1 -->
<svg xmlns="http://www.w3.org/2000/svg" xmlns:xlink="http://www.w3.org/1999/xlink" xmlns:ev="http://www.w3.org/2001/xml-events"
		xmlns:v="http://schemas.microsoft.com/visio/2003/SVGExtensions/" width="2.18619in" height="5.57735in"
		viewBox="0 0 157.406 401.569" xml:space="preserve" color-interpolation-filters="sRGB" class="st7">
	<v:documentProperties v:langID="1033" v:metric="true" v:viewMarkup="false"/>

	<style type="text/css">
	<![CDATA[
		.st1 {fill:none;stroke:#000000;stroke-linecap:round;stroke-linejoin:round;stroke-width:0.75}
		.st2 {stroke:#000000;stroke-linecap:round;stroke-linejoin:round;stroke-width:0.75}
		.st3 {stroke:#000000;stroke-dasharray:10.5,7.5;stroke-linecap:round;stroke-linejoin:round;stroke-width:1.5}
		.st4 {stroke:#000000;stroke-linecap:round;stroke-linejoin:round;stroke-width:1.5}
		.st5 {fill:none;stroke:none;stroke-linecap:round;stroke-linejoin:round;stroke-width:1.5}
		.st6 {fill:#000000;font-family:MS 33558;font-size:1.00001em;font-weight:bold}
		.st7 {fill:none;fill-rule:evenodd;font-size:12px;overflow:visible;stroke-linecap:square;stroke-miterlimit:3}
	]]>
	</style>

	<g v:mID="0" v:index="1" v:groupContext="foregroundPage">
		<title>Page-1</title>
		<v:pageProperties v:drawingScale="0.0393701" v:pageScale="0.0393701" v:drawingUnits="24" v:shadowOffsetX="8.50394"
				v:shadowOffsetY="-8.50394"/>
		<g id="shape1-1" v:mID="1" v:groupContext="shape" transform="translate(0.75001,-0.375)">
			<title>Sheet.1</title>
			<rect x="0" y="0.750015" width="155.906" height="400.819" class="st1"/>
		</g>
		<g id="shape2-3" v:mID="2" v:groupContext="shape" transform="translate(0.75001,-401.194)">
			<title>Sheet.2</title>
			<path d="M0 401.57 L77.95 401.57" class="st2"/>
		</g>
		<g id="shape3-6" v:mID="3" v:groupContext="shape" transform="translate(156.656,602.352) rotate(180)">
			<title>Sheet.3</title>
			<path d="M0 401.57 L155.91 401.57" class="st3"/>
		</g>
		<g id="shape4-9" v:mID="4" v:groupContext="shape" transform="translate(0.75001,-219.211)">
			<title>Sheet.4</title>
			<path d="M0 401.57 L155.91 401.57" class="st4"/>
		</g>
		<g id="shape5-12" v:mID="5" v:groupContext="shape" transform="translate(0.750016,-237.635)">
			<title>Sheet.5</title>
			<path d="M0 401.57 L155.91 401.57" class="st4"/>
		</g>
		<g id="shape6-15" v:mID="6" v:groupContext="shape" transform="translate(0.750019,-274.485)">
			<title>Sheet.6</title>
			<path d="M0 401.57 L155.91 401.57" class="st4"/>
		</g>
		<g id="shape7-18" v:mID="7" v:groupContext="shape" transform="translate(0.750003,-292.91)">
			<title>Sheet.7</title>
			<path d="M0 401.57 L155.91 401.57" class="st4"/>
		</g>
		<g id="shape8-21" v:mID="8" v:groupContext="shape" transform="translate(0.750009,-311.334)">
			<title>Sheet.8</title>
			<path d="M0 401.57 L155.91 401.57" class="st4"/>
		</g>
		<g id="shape9-24" v:mID="9" v:groupContext="shape" transform="translate(0.750006,-329.761)">
			<title>Sheet.9</title>
			<path d="M0 401.57 L155.91 401.57" class="st4"/>
		</g>
		<g id="shape10-27" v:mID="10" v:groupContext="shape" transform="translate(0.750012,-348.185)">
			<title>Sheet.10</title>
			<path d="M0 401.57 L155.91 401.57" class="st4"/>
		</g>
		<g id="shape11-30" v:mID="11" v:groupContext="shape" transform="translate(0.750016,-366.611)">
			<title>Sheet.11</title>
			<path d="M0 401.57 L155.91 401.57" class="st4"/>
		</g>
		<g id="shape12-33" v:mID="12" v:groupContext="shape" transform="translate(156.656,620.779) rotate(180)">
			<title>Sheet.12</title>
			<path d="M0 401.57 L155.91 401.57" class="st4"/>
		</g>
		<g id="shape13-36" v:mID="13" v:groupContext="shape" transform="translate(27.1122,-241.887)">
			<title>Sheet.13</title>
			<desc>3 0</desc>
			<v:textBlock v:margins="rect(4,4,4,4)" v:tabSpace="42.5197"/>
			<v:textRect cx="51.3071" cy="390.23" width="102.62" height="22.6772"/>
			<rect x="0" y="378.892" width="102.614" height="22.6772" class="st5"/>
			<text x="30.08" y="393.83" class="st6" v:langID="1033"><v:paragraph v:horizAlign="1"/><v:tabList/>3  0</text>		</g>
		<g id="shape14-39" v:mID="14" v:groupContext="shape" transform="translate(66.4392,-255.777)">
			<title>Sheet.14</title>
			<path d="M0 401.57 L23.6 401.57" class="st4"/>
		</g>
		<g id="shape15-42" v:mID="15" v:groupContext="shape" transform="translate(27.1122,-214.958)">
			<title>Sheet.15</title>
			<desc>CLI MB</desc>
			<v:textBlock v:margins="rect(4,4,4,4)" v:tabSpace="42.5197"/>
			<v:textRect cx="51.3071" cy="390.23" width="102.62" height="22.6772"/>
			<rect x="0" y="378.892" width="102.614" height="22.6772" class="st5"/>
			<text x="12.59" y="393.83" class="st6" v:langID="1033"><v:paragraph v:horizAlign="1"/><v:tabList/>CLI   MB</text>		</g>
		<g id="shape16-45" v:mID="16" v:groupContext="shape" transform="translate(70.1988,-228.161)">
			<title>Sheet.16</title>
			<path d="M0 401.57 L15.59 401.57" class="st4"/>
		</g>
		<g id="shape17-48" v:mID="17" v:groupContext="shape" transform="translate(156.656,547.078) rotate(180)">
			<title>Sheet.17</title>
			<path d="M0 401.57 L57.39 401.57" class="st4"/>
		</g>
		<g id="shape18-51" v:mID="18" v:groupContext="shape" transform="translate(0.750006,-256.06)">
			<title>Sheet.18</title>
			<path d="M0 401.57 L55.28 401.57" class="st4"/>
		</g>
		<g id="shape19-54" v:mID="19" v:groupContext="shape" transform="translate(70.1988,-246.706)">
			<title>Sheet.19</title>
			<path d="M0 401.57 L15.59 401.57" class="st4"/>
		</g>
		<g id="shape20-57" v:mID="20" v:groupContext="shape" transform="translate(70.1988,-210.056)">
			<title>Sheet.20</title>
			<path d="M0 401.57 L15.59 401.57" class="st4"/>
		</g>
		<g id="shape21-60" v:mID="21" v:groupContext="shape" transform="translate(70.4823,-283.85)">
			<title>Sheet.21</title>
			<path d="M0 401.57 L15.59 401.57" class="st4"/>
		</g>
		<g id="shape22-63" v:mID="22" v:groupContext="shape" transform="translate(70.4823,-302.265)">
			<title>Sheet.22</title>
			<path d="M0 401.57 L15.59 401.57" class="st4"/>
		</g>
		<g id="shape23-66" v:mID="23" v:groupContext="shape" transform="translate(70.4823,-264.847)">
			<title>Sheet.23</title>
			<path d="M0 401.57 L15.59 401.57" class="st4"/>
		</g>
		<g id="shape24-69" v:mID="24" v:groupContext="shape" transform="translate(70.4823,-339.42)">
			<title>Sheet.24</title>
			<path d="M0 401.57 L15.59 401.57" class="st4"/>
		</g>
		<g id="shape25-72" v:mID="25" v:groupContext="shape" transform="translate(70.4823,-358.401)">
			<title>Sheet.25</title>
			<path d="M0 401.57 L15.59 401.57" class="st4"/>
		</g>
		<g id="shape26-75" v:mID="26" v:groupContext="shape" transform="translate(70.4823,-321.315)">
			<title>Sheet.26</title>
			<path d="M0 401.57 L15.59 401.57" class="st4"/>
		</g>
		<g id="shape27-78" v:mID="27" v:groupContext="shape" transform="translate(156.656,639.204) rotate(180)">
			<title>Sheet.27</title>
			<path d="M0 401.57 L155.91 401.57" class="st4"/>
		</g>
		<g id="shape28-81" v:mID="28" v:groupContext="shape" transform="translate(156.656,676.054) rotate(180)">
			<title>Sheet.28</title>
			<path d="M0 401.57 L155.91 401.57" class="st4"/>
		</g>
		<g id="shape29-84" v:mID="29" v:groupContext="shape" transform="translate(156.656,694.479) rotate(180)">
			<title>Sheet.29</title>
			<path d="M0 401.57 L155.91 401.57" class="st4"/>
		</g>
		<g id="shape30-87" v:mID="30" v:groupContext="shape" transform="translate(156.656,712.903) rotate(180)">
			<title>Sheet.30</title>
			<path d="M0 401.57 L155.91 401.57" class="st4"/>
		</g>
		<g id="shape31-90" v:mID="31" v:groupContext="shape" transform="translate(156.656,731.33) rotate(180)">
			<title>Sheet.31</title>
			<path d="M0 401.57 L155.91 401.57" class="st4"/>
		</g>
		<g id="shape32-93" v:mID="32" v:groupContext="shape" transform="translate(156.656,749.754) rotate(180)">
			<title>Sheet.32</title>
			<path d="M0 401.57 L155.91 401.57" class="st4"/>
		</g>
		<g id="shape33-96" v:mID="33" v:groupContext="shape" transform="translate(156.656,768.18) rotate(180)">
			<title>Sheet.33</title>
			<path d="M0 401.57 L155.91 401.57" class="st4"/>
		</g>
		<g id="shape34-99" v:mID="34" v:groupContext="shape" transform="translate(28.2461,-131.619)">
			<title>Sheet.34</title>
			<desc>3 0</desc>
			<v:textBlock v:margins="rect(4,4,4,4)" v:tabSpace="42.5197"/>
			<v:textRect cx="51.3071" cy="390.23" width="102.62" height="22.6772"/>
			<rect x="0" y="378.892" width="102.614" height="22.6772" class="st5"/>
			<text x="30.08" y="393.83" class="st6" v:langID="1033"><v:paragraph v:horizAlign="1"/><v:tabList/>3  0</text>		</g>
		<g id="shape35-102" v:mID="35" v:groupContext="shape" transform="translate(90.9663,657.345) rotate(180)">
			<title>Sheet.35</title>
			<path d="M0 401.57 L23.6 401.57" class="st4"/>
		</g>
		<g id="shape36-105" v:mID="36" v:groupContext="shape" transform="translate(30.2303,-159.966)">
			<title>Sheet.36</title>
			<desc>DI VE</desc>
			<v:textBlock v:margins="rect(4,4,4,4)" v:tabSpace="42.5197"/>
			<v:textRect cx="51.3071" cy="390.23" width="102.62" height="22.6772"/>
			<rect x="0" y="378.892" width="102.614" height="22.6772" class="st5"/>
			<text x="24.15" y="393.83" class="st6" v:langID="1033"><v:paragraph v:horizAlign="1"/><v:tabList/>DI  VE</text>		</g>
		<g id="shape37-108" v:mID="37" v:groupContext="shape" transform="translate(86.0728,629.73) rotate(180)">
			<title>Sheet.37</title>
			<path d="M0 401.57 L15.59 401.57" class="st4"/>
		</g>
		<g id="shape38-111" v:mID="38" v:groupContext="shape" transform="translate(0.750012,-145.509)">
			<title>Sheet.38</title>
			<path d="M0 401.57 L57.39 401.57" class="st4"/>
		</g>
		<g id="shape39-114" v:mID="39" v:groupContext="shape" transform="translate(156.656,657.629) rotate(180)">
			<title>Sheet.39</title>
			<path d="M0 401.57 L55.28 401.57" class="st4"/>
		</g>
		<g id="shape40-117" v:mID="40" v:groupContext="shape" transform="translate(86.0728,648.275) rotate(180)">
			<title>Sheet.40</title>
			<path d="M0 401.57 L15.59 401.57" class="st4"/>
		</g>
		<g id="shape41-120" v:mID="41" v:groupContext="shape" transform="translate(86.0728,611.625) rotate(180)">
			<title>Sheet.41</title>
			<path d="M0 401.57 L15.59 401.57" class="st4"/>
		</g>
		<g id="shape42-123" v:mID="42" v:groupContext="shape" transform="translate(85.7894,685.419) rotate(180)">
			<title>Sheet.42</title>
			<path d="M0 401.57 L15.59 401.57" class="st4"/>
		</g>
		<g id="shape43-126" v:mID="43" v:groupContext="shape" transform="translate(85.7894,703.834) rotate(180)">
			<title>Sheet.43</title>
			<path d="M0 401.57 L15.59 401.57" class="st4"/>
		</g>
		<g id="shape44-129" v:mID="44" v:groupContext="shape" transform="translate(85.7894,666.416) rotate(180)">
			<title>Sheet.44</title>
			<path d="M0 401.57 L15.59 401.57" class="st4"/>
		</g>
		<g id="shape45-132" v:mID="45" v:groupContext="shape" transform="translate(85.7894,740.989) rotate(180)">
			<title>Sheet.45</title>
			<path d="M0 401.57 L15.59 401.57" class="st4"/>
		</g>
		<g id="shape46-135" v:mID="46" v:groupContext="shape" transform="translate(85.7894,759.97) rotate(180)">
			<title>Sheet.46</title>
			<path d="M0 401.57 L15.59 401.57" class="st4"/>
		</g>
		<g id="shape47-138" v:mID="47" v:groupContext="shape" transform="translate(85.7894,722.884) rotate(180)">
			<title>Sheet.47</title>
			<path d="M0 401.57 L15.59 401.57" class="st4"/>
		</g>
	</g>
</svg>
