0
SECTION
2
HEADER
9
$INSUNITS
70
1
9
$ACADVER
1
AC1014
9
$HANDSEED
5
FFFF
0
ENDSEC
0
SECTION
2
TABLES
0
TABLE
2
VPORT
5
8
100
AcDbSymbolTable
0
ENDTAB
0
TABLE
2
LTYPE
5
5
100
AcDbSymbolTable
0
LTYPE
5
14
100
AcDbSymbolTableRecord
100
AcDbLinetypeTableRecord
2
BYBLOCK
70
0
0
LTYPE
5
15
100
AcDbSymbolTableRecord
100
AcDbLinetypeTableRecord
2
BYLAYER
70
0
0
ENDTAB
0
TABLE
2
LAYER
5
2
100
AcDbSymbolTable
70
2
0
LAYER
5
50
100
AcDbSymbolTableRecord
100
AcDbLayerTableRecord
2
0
70
0
6
CONTINUOUS
0
ENDTAB
0
TABLE
2
STYLE
5
3
100
AcDbSymbolTable
70
1
0
STYLE
5
11
100
AcDbSymbolTableRecord
100
AcDbTextStyleTableRecord
2
STANDARD
70
0
0
ENDTAB
0
TABLE
2
VIEW
5
6
100
AcDbSymbolTable
70
0
0
ENDTAB
0
TABLE
2
UCS
5
7
100
AcDbSymbolTable
70
0
0
ENDTAB
0
TABLE
2
APPID
5
9
100
AcDbSymbolTable
70
2
0
APPID
5
12
100
AcDbSymbolTableRecord
100
AcDbRegAppTableRecord
2
ACAD
70
0
0
ENDTAB
0
TABLE
2
DIMSTYLE
5
A
100
AcDbSymbolTable
70
1
0
ENDTAB
0
TABLE
2
BLOCK_RECORD
5
1
100
AcDbSymbolTable
70
1
0
BLOCK_RECORD
5
1F
100
AcDbSymbolTableRecord
100
AcDbBlockTableRecord
2
*MODEL_SPACE
0
BLOCK_RECORD
5
1B
100
AcDbSymbolTableRecord
100
AcDbBlockTableRecord
2
*PAPER_SPACE
0
ENDTAB
0
ENDSEC
0
SECTION
2
BLOCKS
0
BLOCK
5
20
100
AcDbEntity
100
AcDbBlockBegin
2
*MODEL_SPACE
0
ENDBLK
5
21
100
AcDbEntity
100
AcDbBlockEnd
0
BLOCK
5
1C
100
AcDbEntity
100
AcDbBlockBegin
2
*PAPER_SPACE
0
ENDBLK
5
1D
100
AcDbEntity
100
AcDbBlockEnd
0
ENDSEC
0
SECTION
2
ENTITIES
0
LWPOLYLINE
5
100
100
AcDbEntity
8
0
100
AcDbPolyline
90
8
70
1
43
0.0
10
-4.837500038636148
20
-3.0624968263113601
10
-6.9625000386361489
20
-3.06249682631127
10
-7.5250000386361489
20
-3.6249968263112793
10
-7.5250000386361489
20
-5.7499968263112891
10
-6.9625000386361489
20
-6.3124968263112793
10
-4.837500038636148
20
-6.312496826311369
10
-4.2750000386361489
20
-5.7499968263113699
10
-4.2750000386361489
20
-3.6249968263113699
0
LWPOLYLINE
5
101
100
AcDbEntity
8
0
100
AcDbPolyline
90
4
70
1
43
0.0
10
-7.4729079665862583
20
-3.8246714353097668
10
-7.3038508494724201
20
-3.6378176392892487
42
-0.99999999999999989
10
-7.2816047121713376
20
-3.6579449683515306
10
-7.4506618292851581
20
-3.8447987643720447
42
-0.99999999999999989
0
LWPOLYLINE
5
102
100
AcDbEntity
8
0
100
AcDbPolyline
90
7
70
1
43
0.0
10
-7.2739182959338686
20
-3.8300264452083392
10
-7.2862081275206769
20
-3.8603576967376925
42
-0.078731681351733626
10
-7.358080458815027
20
-3.7645838688002931
42
0.04209489151436651
10
-7.2492352902425985
20
-3.7691088932602552
10
-7.2626523561190082
20
-3.8022221541710217
42
0.12020062673919915
10
-7.0907637701503266
20
-3.8274479693673698
42
-1.0000000074505806
10
-7.0879617557676884
20
-3.8573168279896763
42
-0.12020062689384894
0
LWPOLYLINE
5
103
100
AcDbEntity
8
0
100
AcDbPolyline
90
8
70
1
43
0.0
10
-6.726229973447384
20
-3.2766178500570096
10
-6.726229973447384
20
-3.1517252693600897
10
-6.6958784112712193
20
-3.1517252693600897
10
-6.6958784112712193
20
-3.2766178500570096
10
-6.6512739170128112
20
-3.2766178500570096
10
-6.6512739170128112
20
-3.3020475381577499
10
-6.770731927623677
20
-3.3020475381577499
10
-6.770731927623677
20
-3.2766178500570096
0
LWPOLYLINE
5
104
100
AcDbEntity
8
0
100
AcDbPolyline
90
10
70
1
43
0.0
10
-6.5388609451503878
20
-3.2497526110732093
10
-6.5388609451503878
20
-3.1517252693600897
10
-6.5106627034322155
20
-3.1517252693600897
10
-6.5106627034322155
20
-3.3020475381577499
10
-6.5401939537513574
20
-3.3020475381577499
10
-6.6017173958273059
20
-3.2016617943557599
10
-6.6017173958273059
20
-3.3020475381577499
10
-6.6299156258122798
20
-3.3020475381577499
10
-6.6299156258122798
20
-3.1517252693600897
10
-6.5994615360205238
20
-3.1517252693600897
0
LWPOLYLINE
5
105
100
AcDbEntity
8
0
100
AcDbPolyline
90
4
70
1
43
0.0
10
-6.4814089168411195
20
-3.3020475381577499
10
-6.4814089168411195
20
-3.1517252693600897
10
-6.4510573531983075
20
-3.1517252693600897
10
-6.4510573531983075
20
-3.3020475381577499
0
CIRCLE
5
106
100
AcDbEntity
8
0
100
AcDbCircle
10
-4.6977949527462393
20
-5.8897019122012795
30
4.3709567898628207e-16
40
0.076499999999999999
210
0
220
7.9036898540466479e-24
230
1
0
CIRCLE
5
107
100
AcDbEntity
8
0
100
AcDbCircle
10
-4.6977949527462393
20
-3.4852917404214594
30
-2.6225740739176924e-16
40
0.076499999999999999
210
0
220
7.9036898540466479e-24
230
1
0
CIRCLE
5
108
100
AcDbEntity
8
0
100
AcDbCircle
10
-7.1022051245260789
20
-5.8897019122012191
30
4.3709567898628207e-16
40
0.076499999999999999
210
0
220
7.9036898540466479e-24
230
1
0
CIRCLE
5
109
100
AcDbEntity
8
0
100
AcDbCircle
10
-5.9000000386361506
20
-4.6874968263113628
30
8.7419135797256413e-17
40
1.4062499999999998
210
-1.2620233739580679e-29
220
7.9036898540466479e-24
230
1
0
CIRCLE
5
110
100
AcDbEntity
8
0
100
AcDbCircle
10
-7.2917281695409883
20
-3.54827549711597
30
-2.6225740739176924e-16
40
0.033499999999999502
210
-7.7037197775489434e-34
220
7.9036898540466479e-24
230
1
0
CIRCLE
5
111
100
AcDbEntity
8
0
100
AcDbCircle
10
-7.1250000386362489
20
-3.4624968263113298
30
2.9722506171067178e-14
40
0.12849999999999898
210
-7.7037197775489434e-34
220
7.9036898540466479e-24
230
1
0
ENDSEC
0
SECTION
2
OBJECTS
0
DICTIONARY
5
C
100
AcDbDictionary
3
ACAD_GROUP
350
D
3
ACAD_MLINESTYLE
350
17
0
DICTIONARY
5
D
100
AcDbDictionary
0
DICTIONARY
5
1A
330
C
100
AcDbDictionary
0
DICTIONARY
5
17
100
AcDbDictionary
0
ENDSEC
0
EOF
