0
SECTION
2
HEADER
9
$INSUNITS
70
4
9
$ACADVER
1
AC1014
9
$HANDSEED
5
FFFF
0
ENDSEC
0
SECTION
2
TABLES
0
TABLE
2
VPORT
5
8
100
AcDbSymbolTable
0
ENDTAB
0
TABLE
2
LTYPE
5
5
100
AcDbSymbolTable
0
LTYPE
5
14
100
AcDbSymbolTableRecord
100
AcDbLinetypeTableRecord
2
BYBLOCK
70
0
0
LTYPE
5
15
100
AcDbSymbolTableRecord
100
AcDbLinetypeTableRecord
2
BYLAYER
70
0
0
ENDTAB
0
TABLE
2
LAYER
5
2
100
AcDbSymbolTable
70
2
0
LAYER
5
50
100
AcDbSymbolTableRecord
100
AcDbLayerTableRecord
2
0
70
0
6
CONTINUOUS
0
ENDTAB
0
TABLE
2
STYLE
5
3
100
AcDbSymbolTable
70
1
0
STYLE
5
11
100
AcDbSymbolTableRecord
100
AcDbTextStyleTableRecord
2
STANDARD
70
0
0
ENDTAB
0
TABLE
2
VIEW
5
6
100
AcDbSymbolTable
70
0
0
ENDTAB
0
TABLE
2
UCS
5
7
100
AcDbSymbolTable
70
0
0
ENDTAB
0
TABLE
2
APPID
5
9
100
AcDbSymbolTable
70
2
0
APPID
5
12
100
AcDbSymbolTableRecord
100
AcDbRegAppTableRecord
2
ACAD
70
0
0
ENDTAB
0
TABLE
2
DIMSTYLE
5
A
100
AcDbSymbolTable
70
1
0
ENDTAB
0
TABLE
2
BLOCK_RECORD
5
1
100
AcDbSymbolTable
70
1
0
BLOCK_RECORD
5
1F
100
AcDbSymbolTableRecord
100
AcDbBlockTableRecord
2
*MODEL_SPACE
0
BLOCK_RECORD
5
1B
100
AcDbSymbolTableRecord
100
AcDbBlockTableRecord
2
*PAPER_SPACE
0
ENDTAB
0
ENDSEC
0
SECTION
2
BLOCKS
0
BLOCK
5
20
100
AcDbEntity
100
AcDbBlockBegin
2
*MODEL_SPACE
0
ENDBLK
5
21
100
AcDbEntity
100
AcDbBlockEnd
0
BLOCK
5
1C
100
AcDbEntity
100
AcDbBlockBegin
2
*PAPER_SPACE
0
ENDBLK
5
1D
100
AcDbEntity
100
AcDbBlockEnd
0
ENDSEC
0
SECTION
2
ENTITIES
0
LWPOLYLINE
5
100
100
AcDbEntity
8
0
100
AcDbPolyline
90
7
70
1
43
0.0
10
24.665108959441643
20
-32.142422154904636
10
24.665108959441639
20
-32.948253661639278
10
23.604448787661823
20
-31.887593489859448
10
24.66510895944165
20
-30.826933318079632
10
24.665108959441646
20
-31.632764824814256
10
26.110190983549721
20
-31.632764824814256
10
26.110190983549721
20
-32.142422154904636
0
LWPOLYLINE
5
101
100
AcDbEntity
8
0
100
AcDbPolyline
90
10
70
1
43
0.0
10
24.968705229254994
20
-34.726012450906936
10
26.104448787661823
20
-34.726012450906936
10
26.104448787661823
20
-35.05684464171857
10
23.604448787661823
20
-35.05684464171857
10
23.604448787661823
20
-33.370282453748885
10
23.899469278546604
20
-33.370282453748885
10
23.899469278546604
20
-34.726012450906936
10
24.673684738370213
20
-34.726012450906936
10
24.673684738370213
20
-33.55275179192752
10
24.968705229254994
20
-33.55275179192752
0
LWPOLYLINE
5
102
100
AcDbEntity
8
0
100
AcDbPolyline
90
46
70
1
43
0.0
10
20.620287946760136
20
28.43856322672551
42
0.18863991448751904
10
18.568123127289574
20
29.191392358867283
42
-0.11450563316842861
10
14.143431337613155
20
30.119336298145399
42
0.25853437793961537
10
-17.959925059105316
20
27.828163069685793
42
-0.053707281241944758
10
-19.869836428965204
20
26.85817129907695
42
-0.48898278794808786
10
-23.607349769863305
20
29.766104254287114
10
-23.607349769863312
20
36.038600019731483
10
-28.7960435094678
20
36.038600019731483
10
-25.438464695275925
20
33.540944381240031
42
-0.99999999999999989
10
-26.333748373953426
20
32.337421579339846
10
-31.309213417047875
20
36.038600019731476
10
-35.874293408318984
20
31.473520028460371
10
-35.874293408318977
20
20.91283942102762
10
-33.740824782219136
20
20.912839498676668
42
-0.41421356237309553
10
-31.240824771931898
20
18.412839508963913
10
-31.240824750613434
20
13.23203492641843
42
-0.092776865379854245
10
-31.634909576859783
20
9.5737961767202648
42
0.14721769988439176
10
-31.63490957685973
20
-9.5635961052457503
42
-0.092776863304699142
10
-31.240824744224209
20
-13.221834772894463
10
-31.240824744224199
20
-18.402639349553201
42
-0.41421356237309531
10
-33.740824744224199
20
-20.902639349553201
10
-35.874293408318955
20
-20.902639349553201
10
-35.874293408318948
20
-31.463319980268526
10
-31.309213438121265
20
-36.028399950466195
10
-29.00650870297849
20
-36.028399950466195
10
-24.599765396294909
20
-26.197697554671016
10
-23.41703498683005
20
-26.197697554671009
42
-0.1453195087143421
10
-17.959925059105217
20
-27.817962998211179
42
0.19719086262716187
10
6.8055170906621001
20
-32.525690369395562
42
-0.053707281241943086
10
8.9381276525163891
20
-32.324152116856581
42
0.030032749357271512
10
12.748147527745166
20
-31.03952213514955
10
17.999276575621927
20
-35.211737423046266
42
0.16944449825400659
10
20.339910175649592
20
-36.028399950466167
10
30.04756494233515
20
-36.028399950466174
42
0.56834519016166241
10
32.905178000954841
20
-31.230321267967696
42
0.13108495412091253
10
31.22337020995035
20
-29.450750610125382
10
25.952475797108395
20
-26.197697554671542
42
-0.19736729667975356
10
27.545380565609555
20
-18.767839054431679
42
0.096075702037409325
10
32.57763693785045
20
-7.1692390107581456
10
32.57763693785045
20
7.9799198634209194
42
-0.229414854977986
10
36.192641056070769
20
15.912839952801942
42
4.7903293423502469e-06
10
36.192706561878701
20
15.912922508590084
10
36.192706561878708
20
20.530820233107299
42
0.41421356237309548
10
33.192706561878701
20
23.530820233107306
10
27.681263662801278
20
23.530820233107306
42
-0.18313227820232583
10
25.030216223881567
20
24.535499302623016
0
LWPOLYLINE
5
103
100
AcDbEntity
8
0
100
AcDbPolyline
90
47
70
1
43
0.0
10
-25.571555536752829
20
15.438112737629544
10
-22.278950051137443
20
13.537126074174255
42
-0.12195745921361344
10
-13.372819461656604
20
22.443256663655102
10
-15.273806125111877
20
25.735862149270496
10
-14.407780721327443
20
26.235862149270496
10
-12.506794057872167
20
22.943256663655106
42
-0.11711674445531674
10
-0.84079342321967676
20
26.188808741035476
10
-0.84079342321966566
20
30.005100035737314
10
1.1592065767803272
20
30.005100035737314
10
1.159206576780264
20
26.188808741035466
42
-0.96253735000147811
10
1.1592065767803539
20
-26.178608669560795
10
1.1592065767803539
20
-29.994899964262686
10
-0.84079342321964345
20
-29.994899964262686
10
-0.84079342321963679
20
-26.178608669560802
42
-0.11711674445531685
10
-12.506794057872135
20
-22.933056592180442
10
-14.407780721327416
20
-26.225662077795825
10
-15.273806125111859
20
-25.725662077795825
10
-13.372819461656578
20
-22.433056592180446
42
-0.12195745921361344
10
-22.278950051137425
20
-13.526926002699609
10
-25.571555536752811
20
-15.427912666154896
10
-26.071555536752808
20
-14.561887262370451
10
-22.778950051137418
20
-12.660900598915187
42
-0.034104899982020889
10
-24.287875695411362
20
-9.4249991122353762
10
-25.981176733562258
20
-10.041310287774357
10
-26.323196876887923
20
-9.1016176669884494
10
-24.629895838737031
20
-8.4853064914494816
42
-0.034104899982021111
10
-25.553989115665292
20
-5.036543431020382
10
-27.328586418728026
20
-5.34945281544283
10
-27.50223459639496
20
-4.3646450624306219
10
-25.727637293332222
20
-4.0517356780082121
42
-0.03888203512824507
10
-26.043591013627932
20
0.0051000357373082172
10
-26.043591013627928
20
0.52510003573733555
10
-26.262674474214606
20
0.52510003573733566
10
-31.043591013627928
20
2.0051000357373323
10
-31.043591013627928
20
-1.9948999642626666
10
-26.043591013627928
20
-0.49489996426266536
10
-26.043591013627932
20
0.0051000357373159888
42
-0.03888203512824507
10
-25.727637293332222
20
4.0619357494828368
10
-27.502234596394949
20
4.3748451339052687
10
-27.328586418728026
20
5.3596528869174787
10
-25.553989115665296
20
5.0467435024950476
42
-0.034104899982020889
10
-24.629895838737035
20
8.4955065629241258
10
-26.323196876887934
20
9.1118177384630989
10
-25.981176733562265
20
10.05151035924901
10
-24.287875695411373
20
9.4351991837100329
42
-0.034104899982020667
10
-22.778950051137436
20
12.671100670389821
10
-26.071555536752825
20
14.572087333845104
0
CIRCLE
5
104
100
AcDbEntity
8
0
100
AcDbCircle
10
-31.733991620503225
20
-24.900518214062831
30
0
40
3.0500000000000016
210
3.6977854932234945e-32
220
1.6421466378806452e-47
230
1
0
CIRCLE
5
105
100
AcDbEntity
8
0
100
AcDbCircle
10
-31.848437076191551
20
24.970906510453187
30
4.4408920985006262e-15
40
3.0500000000000016
210
3.6977854932234945e-32
220
1.6421466378806452e-47
230
1
0
CIRCLE
5
106
100
AcDbEntity
8
0
100
AcDbCircle
10
32.747896876715778
20
18.481851988652476
30
0
40
1.749999999999998
210
-1.6023737137301802e-31
220
1.2325951644078241e-32
230
1
0
CIRCLE
5
107
100
AcDbEntity
8
0
100
AcDbCircle
10
30.002263194978816
20
-33.452313651772457
30
4.4408920985006262e-15
40
1.749999999999998
210
-1.6023737137301802e-31
220
1.2325951644078241e-32
230
1
0
CIRCLE
5
108
100
AcDbEntity
8
0
100
AcDbCircle
10
-31.848437076191555
20
31.473520028460364
30
0
40
1.7500000000000027
210
-6.1629758220391525e-32
220
-2.7369110631344064e-47
230
1
0
CIRCLE
5
109
100
AcDbEntity
8
0
100
AcDbCircle
10
-33.339448752707746
20
-29.857862848064009
30
4.4408920985006262e-15
40
1.7500000000000027
210
-6.1629758220391525e-32
220
-2.7369110631344064e-47
230
1
0
ENDSEC
0
SECTION
2
OBJECTS
0
DICTIONARY
5
C
100
AcDbDictionary
3
ACAD_GROUP
350
D
3
ACAD_MLINESTYLE
350
17
0
DICTIONARY
5
D
100
AcDbDictionary
0
DICTIONARY
5
1A
330
C
100
AcDbDictionary
0
DICTIONARY
5
17
100
AcDbDictionary
0
ENDSEC
0
EOF
